Plaster-Italic.glyphspackage
{
glyphname = exclam;
kernLeft = KO_exclam;
kernRight = KO_exclam;
layers = (
{
layerId = m01;
shapes = (
{
closed = 1;
nodes = (
(957,679,l),
(1121,1700,l),
(491,1700,l),
(406,679,l)
);
},
{
closed = 1;
nodes = (
(826,0,o),
(943,70,o),
(943,239,cs),
(943,358,o),
(847,406,o),
(649,406,cs),
(433,406,o),
(303,344,o),
(303,178,cs),
(303,60,o),
(405,0,o),
(610,0,cs)
);
}
);
width = 1194;
}
);
note = exclam;
unicode = 33;
userData = {
KernOnSpecialSpacing = {
L = "spaced-off";
};
};
}
{
glyphname = quotedbl;
kernLeft = KO_quotedbl;
kernRight = KO_quotedbl;
layers = (
{
layerId = m01;
shapes = (
{
closed = 1;
nodes = (
(1219,1585,l),
(1199,1422,ls),
(1188,1332,o),
(1198,1198,o),
(1225,1030,c),
(1533,1030,l),
(1606,1213,o),
(1644,1341,o),
(1654,1422,cs),
(1674,1585,l)
);
},
{
closed = 1;
nodes = (
(590,1585,l),
(570,1422,ls),
(559,1332,o),
(569,1198,o),
(596,1030,c),
(906,1030,l),
(979,1213,o),
(1017,1341,o),
(1027,1422,cs),
(1047,1585,l)
);
}
);
width = 1874;
}
);
note = quotedbl;
unicode = 34;
userData = {
KernOnName = quotedbl;
KernOnSpecialSpacing = {
L = quotes;
R = quotes;
};
};
}
{
glyphname = numbersign;
kernLeft = KO_numbersign;
kernRight = KO_numbersign;
layers = (
{
layerId = m01;
shapes = (
{
closed = 1;
nodes = (
(701,0,l),
(814,469,l),
(1108,469,l),
(995,0,l),
(1188,0,l),
(1301,469,l),
(1525,469,l),
(1565,660,l),
(1346,660,l),
(1410,923,l),
(1623,923,l),
(1664,1116,l),
(1456,1116,l),
(1570,1588,l),
(1378,1588,l),
(1264,1116,l),
(969,1117,l),
(1082,1588,l),
(891,1588,l),
(778,1117,l),
(545,1117,l),
(502,923,l),
(731,923,l),
(667,660,l),
(446,660,l),
(404,469,l),
(622,469,l),
(509,0,l)
);
},
{
closed = 1;
nodes = (
(923,923,l),
(1218,923,l),
(1154,660,l),
(859,660,l)
);
}
);
userData = {
assembly = "PUSHW[ ]	/* 4 values pushed */
15 7 1 4
CALL[ ]	/* CallFunction */
PUSHW[ ]	/* 1 value pushed */
15
SRP0[ ]	/* SetRefPoint0 */
PUSHW[ ]	/* 1 value pushed */
33
MDRP[11100]	/* MoveDirectRelPt */
SVTCA[0]	/* SetFreedomAndProjectionVectorToAxis */
PUSHW[ ]	/* 4 values pushed */
3 1 0 4
CALL[ ]	/* CallFunction */
PUSHW[ ]	/* 4 values pushed */
11 1 29 4
CALL[ ]	/* CallFunction */
PUSHW[ ]	/* 1 value pushed */
29
SRP0[ ]	/* SetRefPoint0 */
PUSHW[ ]	/* 1 value pushed */
4
MDRP[10000]	/* MoveDirectRelPt */
PUSHW[ ]	/* 1 value pushed */
11
SRP0[ ]	/* SetRefPoint0 */
PUSHW[ ]	/* 1 value pushed */
6
MDRP[10000]	/* MoveDirectRelPt */
PUSHW[ ]	/* 1 value pushed */
6
MDAP[1]	/* MoveDirectAbsPt */
PUSHW[ ]	/* 1 value pushed */
11
SRP0[ ]	/* SetRefPoint0 */
PUSHW[ ]	/* 1 value pushed */
14
MDRP[10000]	/* MoveDirectRelPt */
PUSHW[ ]	/* 1 value pushed */
29
SRP0[ ]	/* SetRefPoint0 */
PUSHW[ ]	/* 1 value pushed */
16
MDRP[10000]	/* MoveDirectRelPt */
PUSHW[ ]	/* 1 value pushed */
3
SRP0[ ]	/* SetRefPoint0 */
PUSHW[ ]	/* 1 value pushed */
18
MDRP[10000]	/* MoveDirectRelPt */
PUSHW[ ]	/* 1 value pushed */
0
SRP0[ ]	/* SetRefPoint0 */
PUSHW[ ]	/* 1 value pushed */
20
MDRP[10000]	/* MoveDirectRelPt */
PUSHW[ ]	/* 1 value pushed */
0
SRP0[ ]	/* SetRefPoint0 */
PUSHW[ ]	/* 1 value pushed */
24
MDRP[10000]	/* MoveDirectRelPt */
PUSHW[ ]	/* 1 value pushed */
3
SRP0[ ]	/* SetRefPoint0 */
PUSHW[ ]	/* 1 value pushed */
28
MDRP[10000]	/* MoveDirectRelPt */
IUP[0]	/* InterpolateUntPts */
IUP[1]	/* InterpolateUntPts */";
};
width = 1874;
}
);
note = numbersign;
unicode = 35;
}
{
glyphname = dollar;
kernLeft = KO_dollar;
kernRight = KO_dollar;
layers = (
{
layerId = m01;
shapes = (
{
closed = 1;
nodes = (
(1389,1530,l),
(1463,1837,l),
(1198,1837,l),
(1126,1530,l)
);
},
{
closed = 1;
nodes = (
(1688,680,l),
(1772,1361,l),
(1126,1361,l)
);
},
{
closed = 1;
nodes = (
(1128,1,l),
(1302,1,o),
(1424,31,o),
(1502,85,cs),
(1587,144,o),
(1634,239,o),
(1650,367,c),
(923,1361,l),
(592,1361,o),
(421,1234,o),
(387,959,c),
(393,959,l)
);
},
{
closed = 1;
nodes = (
(895,0,l),
(356,685,l),
(272,0,l)
);
},
{
closed = 1;
nodes = (
(689,-450,l),
(953,-450,l),
(1020,-167,l),
(757,-167,l)
);
}
);
width = 1874;
}
);
note = dollar;
unicode = 36;
userData = {
KernOnSpecialSpacing = {
L = symbols;
R = symbols;
};
};
}
{
glyphname = percent;
kernLeft = KO_percent;
kernRight = KO_percent;
layers = (
{
layerId = m01;
shapes = (
{
closed = 1;
nodes = (
(1118,-340,l),
(2019,1644,l),
(1789,1709,l),
(888,-274,l)
);
},
{
closed = 1;
nodes = (
(847,497,ls),
(1020,497,o),
(1123,584,o),
(1141,731,cs),
(1186,1098,ls),
(1190,1131,o),
(1188,1164,o),
(1180,1195,cs),
(1155,1287,o),
(1076,1330,o),
(949,1330,cs),
(910,1330,l),
(808,497,l)
);
},
{
closed = 1;
nodes = (
(733,1330,l),
(694,1330,ls),
(651,1330,o),
(610,1325,o),
(576,1314,cs),
(476,1282,o),
(414,1212,o),
(400,1098,cs),
(355,733,ls),
(337,587,o),
(415,497,o),
(592,497,cs),
(631,497,l)
);
},
{
closed = 1;
nodes = (
(2209,-12,ls),
(2248,-12,o),
(2287,-8,o),
(2325,4,cs),
(2432,38,o),
(2488,114,o),
(2501,219,cs),
(2547,593,ls),
(2551,627,o),
(2551,660,o),
(2542,693,cs),
(2517,783,o),
(2439,827,o),
(2312,827,cs),
(2271,827,l),
(2168,-12,l)
);
},
{
closed = 1;
nodes = (
(1697,73,o),
(1782,-12,o),
(1952,-12,cs),
(1991,-12,l),
(2094,827,l),
(2055,827,ls),
(1885,827,o),
(1779,742,o),
(1761,595,cs),
(1715,220,ls)
);
}
);
width = 2740;
}
);
note = percent;
unicode = 37;
userData = {
KernOnSpecialSpacing = {
L = "spaced-off";
};
};
}
{
glyphname = ampersand;
kernLeft = KO_ampersand;
kernRight = KO_ampersand;
layers = (
{
layerId = m01;
shapes = (
{
closed = 1;
nodes = (
(853,241,o),
(881,140,o),
(947,85,cs),
(1018,26,o),
(1153,0,o),
(1334,0,cs),
(1435,0,l),
(1477,344,ls),
(1495,492,o),
(1470,579,o),
(1393,624,cs),
(1311,672,o),
(1164,680,o),
(1030,680,cs),
(1047,680,ls),
(1115,680,o),
(1245,716,o),
(1350,787,cs),
(1446,852,o),
(1512,940,o),
(1512,1054,cs),
(1512,1133,o),
(1476,1199,o),
(1411,1255,cs),
(1324,1330,o),
(1204,1361,o),
(1066,1361,cs),
(989,1361,l),
(905,680,l),
(872,401,ls)
);
},
{
closed = 1;
nodes = (
(230,699,o),
(126,564,o),
(126,361,cs),
(126,257,o),
(160,177,o),
(223,116,cs),
(307,35,o),
(434,0,o),
(595,0,cs),
(672,0,l),
(839,1361,l),
(762,1361,ls),
(605,1361,o),
(477,1328,o),
(383,1256,cs),
(306,1197,o),
(243,1103,o),
(243,984,cs),
(243,895,o),
(287,821,o),
(389,767,c)
);
}
);
width = 1534;
}
);
note = ampersand;
unicode = 38;
userData = {
KernOnSpecialSpacing = {
L = symbols;
R = symbols;
};
};
}
{
glyphname = quotesingle;
kernLeft = KO_quotesingle;
kernRight = KO_quotesingle;
layers = (
{
layerId = m01;
shapes = (
{
closed = 1;
nodes = (
(633,1210,o),
(681,1341,o),
(691,1422,cs),
(711,1585,l),
(215,1585,l),
(195,1422,ls),
(184,1332,o),
(199,1201,o),
(241,1030,c),
(548,1030,l)
);
}
);
width = 536;
}
);
note = quotesingle;
unicode = 39;
userData = {
KernOnName = quotesingle;
KernOnSpecialSpacing = {
L = quotes;
R = quotes;
};
};
}
{
glyphname = parenleft;
kernLeft = KO_parenleft;
kernRight = KO_parenleft;
layers = (
{
layerId = m01;
shapes = (
{
closed = 1;
nodes = (
(223,221,o),
(265,69,o),
(346,-52,cs),
(405,-140,o),
(478,-209,o),
(570,-259,cs),
(684,-321,o),
(799,-350,o),
(915,-350,c),
(936,-176,l),
(863,-176,o),
(793,-158,o),
(724,-126,cs),
(624,-80,o),
(546,-7,o),
(494,93,cs),
(443,191,o),
(421,306,o),
(421,433,cs),
(421,617,o),
(468,802,o),
(500,881,cs),
(562,1034,o),
(648,1151,o),
(756,1228,cs),
(878,1315,o),
(1001,1360,o),
(1125,1360,c),
(1146,1534,l),
(1118,1534,o),
(1081,1531,o),
(1045,1526,cs),
(893,1505,o),
(759,1446,o),
(640,1358,cs),
(413,1190,o),
(223,872,o),
(223,410,cs)
);
}
);
width = 1195;
}
);
note = parenleft;
unicode = 40;
userData = {
KernOnSpecialSpacing = {
R = parenthesis;
};
};
}
{
glyphname = parenright;
kernLeft = KO_parenright;
kernRight = KO_parenright;
layers = (
{
layerId = m01;
shapes = (
{
closed = 1;
nodes = (
(210,-350,o),
(247,-347,o),
(283,-342,cs),
(427,-322,o),
(563,-267,o),
(690,-173,cs),
(914,-7,o),
(1105,310,o),
(1105,775,cs),
(1105,959,o),
(1065,1112,o),
(982,1234,cs),
(918,1328,o),
(844,1397,o),
(754,1445,cs),
(638,1507,o),
(524,1534,o),
(412,1534,c),
(391,1360,l),
(458,1360,o),
(527,1345,o),
(601,1311,cs),
(701,1265,o),
(780,1193,o),
(834,1090,cs),
(881,1000,o),
(907,888,o),
(907,750,cs),
(907,568,o),
(860,383,o),
(827,302,cs),
(763,145,o),
(678,31,o),
(572,-44,cs),
(446,-133,o),
(323,-176,o),
(202,-176,c),
(181,-350,l)
);
}
);
width = 1195;
}
);
note = parenright;
unicode = 41;
userData = {
KernOnSpecialSpacing = {
L = parenthesis;
};
};
}
{
glyphname = asterisk;
kernLeft = KO_asterisk;
kernRight = KO_asterisk;
layers = (
{
layerId = m01;
shapes = (
{
closed = 1;
nodes = (
(639,715,ls),
(682,765,o),
(740,877,o),
(814,1057,c),
(903,719,l),
(965,615,l),
(1241,800,l),
(1178,901,ls),
(1140,962,o),
(1049,1040,o),
(920,1128,c),
(1107,1123,o),
(1226,1130,o),
(1292,1151,cs),
(1418,1191,l),
(1357,1491,l),
(1232,1453,ls),
(1199,1443,o),
(1148,1417,o),
(1077,1371,cs),
(1004,1323,ls),
(975,1304,o),
(937,1276,o),
(895,1243,c),
(921,1295,o),
(944,1344,o),
(962,1388,cs),
(1003,1486,ls),
(1022,1531,o),
(1033,1575,o),
(1037,1607,cs),
(1053,1734,l),
(737,1734,l),
(721,1607,ls),
(712,1536,o),
(731,1412,o),
(775,1243,c),
(736,1279,o),
(706,1306,o),
(667,1337,cs),
(594,1395,ls),
(560,1422,o),
(525,1442,o),
(491,1453,cs),
(373,1491,l),
(240,1191,l),
(356,1153,ls),
(420,1132,o),
(540,1123,o),
(723,1128,c),
(677,1101,o),
(639,1078,o),
(592,1046,cs),
(508,989,ls),
(470,963,o),
(436,934,o),
(409,902,cs),
(322,799,l),
(553,615,l)
);
}
);
width = 1366;
}
);
note = asterisk;
unicode = 42;
userData = {
KernOnSpecialSpacing = {
L = quotes;
R = quotes;
};
};
}
{
glyphname = plus;
kernLeft = KO_plus;
kernRight = KO_plus;
layers = (
{
layerId = m01;
shapes = (
{
closed = 1;
nodes = (
(744,479,l),
(691,50,l),
(861,50,l),
(914,479,l),
(1338,479,l),
(1359,650,l),
(935,650,l),
(991,1109,l),
(821,1109,l),
(765,650,l),
(339,650,l),
(318,479,l)
);
}
);
userData = {
assembly = "PUSHW[ ]	/* 4 values pushed */
4 8 1 4
CALL[ ]	/* CallFunction */
PUSHW[ ]	/* 1 value pushed */
4
SRP0[ ]	/* SetRefPoint0 */
PUSHW[ ]	/* 1 value pushed */
7
MDRP[10000]	/* MoveDirectRelPt */
PUSHW[ ]	/* 1 value pushed */
1
SRP0[ ]	/* SetRefPoint0 */
PUSHW[ ]	/* 1 value pushed */
9
MDRP[10000]	/* MoveDirectRelPt */
SVTCA[0]	/* SetFreedomAndProjectionVectorToAxis */
PUSHW[ ]	/* 4 values pushed */
5 2 6 4
CALL[ ]	/* CallFunction */
PUSHW[ ]	/* 1 value pushed */
5
SRP0[ ]	/* SetRefPoint0 */
PUSHW[ ]	/* 1 value pushed */
0
MDRP[10000]	/* MoveDirectRelPt */
PUSHW[ ]	/* 1 value pushed */
6
SRP0[ ]	/* SetRefPoint0 */
PUSHW[ ]	/* 1 value pushed */
10
MDRP[10000]	/* MoveDirectRelPt */
IUP[0]	/* InterpolateUntPts */
IUP[1]	/* InterpolateUntPts */";
};
width = 1538;
}
);
note = plus;
unicode = 43;
userData = {
KernOnSpecialSpacing = {
L = math;
R = math;
};
};
}
{
glyphname = comma;
kernLeft = KO_comma;
kernRight = KO_comma;
layers = (
{
layerId = m01;
shapes = (
{
closed = 1;
nodes = (
(427,-230,o),
(508,-206,o),
(582,-156,cs),
(659,-104,o),
(701,-44,o),
(710,28,cs),
(732,207,ls),
(748,337,o),
(656,406,o),
(441,406,cs),
(217,406,o),
(112,345,o),
(95,207,cs),
(79,77,o),
(167,5,o),
(373,0,c),
(344,-230,l)
);
}
);
width = 777;
}
);
note = comma;
unicode = 44;
userData = {
KernOnSpecialSpacing = {
L = period;
R = period;
};
};
}
{
glyphname = period;
kernLeft = KO_period;
kernRight = KO_period;
layers = (
{
layerId = m01;
shapes = (
{
closed = 1;
nodes = (
(617,0,o),
(734,70,o),
(734,239,cs),
(734,358,o),
(638,406,o),
(440,406,cs),
(224,406,o),
(94,344,o),
(94,178,cs),
(94,60,o),
(196,0,o),
(401,0,cs)
);
}
);
width = 776;
}
);
note = period;
unicode = 46;
userData = {
KernOnName = period;
KernOnSpecialSpacing = {
L = period;
R = period;
};
};
}
{
glyphname = slash;
kernLeft = KO_slash;
kernRight = KO_slash;
layers = (
{
layerId = m01;
shapes = (
{
closed = 1;
nodes = (
(390,-166,l),
(1011,1521,l),
(793,1521,l),
(173,-166,l)
);
}
);
userData = {
assembly = "PUSHW[ ]	/* 4 values pushed */
1 13 3 4
CALL[ ]	/* CallFunction */
PUSHW[ ]	/* 1 value pushed */
1
SRP0[ ]	/* SetRefPoint0 */
PUSHW[ ]	/* 1 value pushed */
5
MDRP[11100]	/* MoveDirectRelPt */
SVTCA[0]	/* SetFreedomAndProjectionVectorToAxis */
PUSHW[ ]	/* 3 values pushed */
0 2 3
CALL[ ]	/* CallFunction */
IUP[0]	/* InterpolateUntPts */
IUP[1]	/* InterpolateUntPts */";
};
width = 1018;
}
);
note = slash;
unicode = 47;
userData = {
KernOnSpecialSpacing = {
L = slash;
R = slash;
};
};
}
{
glyphname = zero;
kernLeft = KO_zero;
kernRight = KO_zero;
layers = (
{
layerId = m01;
shapes = (
{
closed = 1;
nodes = (
(947,0,ls),
(1149,0,o),
(1294,64,o),
(1391,182,cs),
(1483,294,o),
(1586,580,o),
(1586,905,cs),
(1586,1031,o),
(1565,1132,o),
(1518,1204,cs),
(1446,1314,o),
(1305,1361,o),
(1114,1361,cs),
(1036,1361,l),
(869,0,l)
);
},
{
closed = 1;
nodes = (
(163,369,o),
(183,262,o),
(227,184,cs),
(298,58,o),
(435,0,o),
(628,0,cs),
(706,0,l),
(873,1361,l),
(795,1361,ls),
(604,1361,o),
(452,1314,o),
(353,1205,cs),
(253,1095,o),
(163,833,o),
(163,501,cs)
);
}
);
width = 1575;
}
);
note = zero;
unicode = 48;
}
{
glyphname = one;
kernLeft = KO_one;
kernRight = KO_one;
layers = (
{
layerId = m01;
shapes = (
{
closed = 1;
nodes = (
(715,0,l),
(888,1405,l),
(277,1241,l),
(125,0,l)
);
}
);
userData = {
assembly = "PUSHW[ ]	/* 4 values pushed */
1 9 0 4
CALL[ ]	/* CallFunction */
SVTCA[0]	/* SetFreedomAndProjectionVectorToAxis */
PUSHW[ ]	/* 1 value pushed */
0
RCVT[ ]	/* ReadCVT */
IF[ ]	/* If */
PUSHW[ ]	/* 1 value pushed */
2
MDAP[1]	/* MoveDirectAbsPt */
ELSE[ ]	/* Else */
PUSHW[ ]	/* 2 values pushed */
2 14
MIAP[0]	/* MoveIndirectAbsPt */
EIF[ ]	/* EndIf */
IUP[0]	/* InterpolateUntPts */
IUP[1]	/* InterpolateUntPts */";
};
width = 840;
}
);
note = one;
unicode = 49;
}
{
glyphname = two;
kernLeft = KO_two;
kernRight = KO_two;
layers = (
{
layerId = m01;
shapes = (
{
closed = 1;
nodes = (
(1009,532,ls),
(1094,532,o),
(1176,538,o),
(1251,553,cs),
(1470,597,o),
(1614,733,o),
(1614,1007,cs),
(1614,1121,o),
(1581,1207,o),
(1511,1263,cs),
(1427,1330,o),
(1281,1361,o),
(1083,1361,cs),
(1009,1361,l),
(907,532,l)
);
},
{
closed = 1;
nodes = (
(816,834,l),
(881,1361,l),
(756,1361,ls),
(608,1361,o),
(492,1329,o),
(405,1270,cs),
(306,1203,o),
(245,1103,o),
(228,969,cs),
(211,834,l)
);
},
{
closed = 1;
nodes = (
(714,0,l),
(804,731,l),
(679,731,ls),
(541,731,o),
(421,703,o),
(328,640,cs),
(223,569,o),
(166,466,o),
(150,334,cs),
(109,0,l)
);
},
{
closed = 1;
nodes = (
(1444,0,l),
(1492,391,l),
(903,391,l),
(855,0,l)
);
}
);
width = 1604;
}
);
note = two;
unicode = 50;
}
{
glyphname = three;
kernLeft = KO_three;
kernRight = KO_three;
layers = (
{
layerId = m01;
shapes = (
{
closed = 1;
nodes = (
(920,0,ls),
(1083,0,o),
(1218,31,o),
(1320,101,cs),
(1419,169,o),
(1488,285,o),
(1488,420,cs),
(1488,446,o),
(1485,466,o),
(1480,484,cs),
(1451,588,o),
(1356,656,o),
(1198,689,c),
(1391,733,o),
(1523,826,o),
(1523,1032,cs),
(1523,1121,o),
(1495,1198,o),
(1430,1257,cs),
(1354,1326,o),
(1234,1361,o),
(1072,1361,cs),
(995,1361,l),
(923,778,l),
(741,778,l),
(721,611,l),
(903,611,l),
(828,0,l)
);
},
{
closed = 1;
nodes = (
(824,900,l),
(881,1361,l),
(756,1361,ls),
(610,1361,o),
(494,1330,o),
(406,1271,cs),
(299,1199,o),
(243,1095,o),
(227,965,cs),
(219,900,l)
);
},
{
closed = 1;
nodes = (
(148,321,o),
(155,261,o),
(173,213,cs),
(229,65,o),
(374,0,o),
(589,0,cs),
(714,0,l),
(770,461,l),
(165,461,l),
(157,395,ls)
);
}
);
width = 1549;
}
);
note = three;
unicode = 51;
}
{
glyphname = four;
kernLeft = KO_four;
kernRight = KO_four;
layers = (
{
layerId = m01;
shapes = (
{
closed = 1;
nodes = (
(756,341,l),
(881,1361,l),
(816,1361,ls),
(716,1361,o),
(631,1348,o),
(557,1321,cs),
(357,1248,o),
(243,1092,o),
(214,854,cs),
(151,341,l)
);
},
{
closed = 1;
nodes = (
(1404,0,l),
(1529,1020,l),
(996,1020,l),
(871,0,l)
);
}
);
width = 1529;
}
);
note = four;
unicode = 52;
}
{
glyphname = five;
kernLeft = KO_five;
kernRight = KO_five;
layers = (
{
layerId = m01;
shapes = (
{
closed = 1;
nodes = (
(1565,1020,l),
(1607,1361,l),
(1018,1361,l),
(976,1020,l)
);
},
{
closed = 1;
nodes = (
(813,680,l),
(897,1361,l),
(292,1361,l),
(208,681,l)
);
},
{
closed = 1;
nodes = (
(912,0,ls),
(1113,0,o),
(1267,30,o),
(1366,95,cs),
(1468,162,o),
(1548,308,o),
(1548,500,cs),
(1548,739,o),
(1378,869,o),
(1046,869,cs),
(944,869,l),
(838,0,l)
);
},
{
closed = 1;
nodes = (
(164,321,o),
(171,261,o),
(189,213,cs),
(245,65,o),
(390,0,o),
(605,0,cs),
(730,0,l),
(786,461,l),
(181,461,l),
(173,395,ls)
);
}
);
width = 1600;
}
);
note = five;
unicode = 53;
}
{
glyphname = six;
kernLeft = KO_six;
kernRight = KO_six;
layers = (
{
layerId = m01;
shapes = (
{
closed = 1;
nodes = (
(969,1150,o),
(997,1048,o),
(1075,986,cs),
(1153,924,o),
(1289,894,o),
(1477,894,cs),
(1542,894,l),
(1599,1361,l),
(994,1361,l),
(985,1285,ls)
);
},
{
closed = 1;
nodes = (
(873,1361,l),
(795,1361,ls),
(437,1361,o),
(165,1129,o),
(165,525,cs),
(165,175,o),
(319,0,o),
(628,0,cs),
(706,0,l)
);
},
{
closed = 1;
nodes = (
(901,0,ls),
(1110,0,o),
(1262,24,o),
(1353,75,cs),
(1451,130,o),
(1532,266,o),
(1532,451,cs),
(1532,556,o),
(1494,628,o),
(1423,672,cs),
(1344,721,o),
(1205,742,o),
(1020,742,cs),
(918,742,l),
(827,0,l)
);
}
);
width = 1589;
}
);
note = six;
unicode = 54;
}
{
glyphname = seven;
kernLeft = KO_seven;
kernRight = KO_seven;
layers = (
{
layerId = m01;
shapes = (
{
closed = 1;
nodes = (
(1121,2,l),
(1608,1361,l),
(1021,1361,l),
(533,2,l)
);
},
{
closed = 1;
nodes = (
(300,753,ls),
(420,753,o),
(515,771,o),
(590,808,cs),
(657,841,o),
(697,884,o),
(733,958,cs),
(752,997,o),
(765,1055,o),
(773,1120,cs),
(803,1360,l),
(207,1360,l),
(132,753,l)
);
}
);
width = 1431;
}
);
note = seven;
unicode = 55;
}
{
glyphname = eight;
kernLeft = KO_eight;
kernRight = KO_eight;
layers = (
{
layerId = m01;
shapes = (
{
closed = 1;
nodes = (
(1498,743,o),
(1584,839,o),
(1584,1003,cs),
(1584,1091,o),
(1555,1171,o),
(1488,1238,cs),
(1407,1319,o),
(1284,1361,o),
(1116,1361,cs),
(1039,1361,l),
(872,0,l),
(964,0,ls),
(1126,0,o),
(1266,34,o),
(1377,112,cs),
(1478,183,o),
(1557,301,o),
(1557,450,cs),
(1557,563,o),
(1497,641,o),
(1385,688,c),
(1387,688,l)
);
},
{
closed = 1;
nodes = (
(257,635,o),
(156,540,o),
(156,355,cs),
(156,255,o),
(191,172,o),
(267,109,cs),
(355,36,o),
(482,0,o),
(649,0,cs),
(741,0,l),
(908,1361,l),
(831,1361,ls),
(665,1361,o),
(531,1320,o),
(429,1238,cs),
(332,1160,o),
(262,1039,o),
(262,902,cs),
(262,812,o),
(302,739,o),
(393,688,c),
(395,688,l)
);
}
);
width = 1613;
}
);
note = eight;
unicode = 56;
}
{
glyphname = nine;
kernLeft = KO_nine;
kernRight = KO_nine;
layers = (
{
layerId = m01;
shapes = (
{
closed = 1;
nodes = (
(971,0,ls),
(1329,0,o),
(1603,264,o),
(1603,858,cs),
(1603,899,o),
(1601,942,o),
(1596,981,cs),
(1563,1240,o),
(1404,1361,o),
(1138,1361,cs),
(1060,1361,l),
(893,0,l)
);
},
{
closed = 1;
nodes = (
(403,637,o),
(536,619,o),
(736,619,cs),
(838,619,l),
(929,1361,l),
(855,1361,ls),
(649,1361,o),
(497,1332,o),
(401,1271,cs),
(294,1203,o),
(220,1061,o),
(220,879,cs),
(220,771,o),
(259,711,o),
(331,674,cs)
);
},
{
closed = 1;
nodes = (
(187,251,o),
(219,151,o),
(294,92,cs),
(375,28,o),
(515,0,o),
(697,0,cs),
(762,0,l),
(819,467,l),
(214,467,l),
(205,395,ls)
);
}
);
width = 1599;
}
);
note = nine;
unicode = 57;
}
{
glyphname = colon;
kernLeft = KO_colon;
kernRight = KO_colon;
layers = (
{
layerId = m01;
shapes = (
{
closed = 1;
nodes = (
(702,688,o),
(818,758,o),
(818,927,cs),
(818,1046,o),
(723,1094,o),
(525,1094,cs),
(308,1094,o),
(178,1032,o),
(178,866,cs),
(178,748,o),
(280,688,o),
(486,688,cs)
);
},
{
closed = 1;
nodes = (
(617,0,o),
(734,70,o),
(734,239,cs),
(734,358,o),
(638,406,o),
(440,406,cs),
(224,406,o),
(94,344,o),
(94,178,cs),
(94,60,o),
(196,0,o),
(401,0,cs)
);
}
);
width = 776;
}
);
note = colon;
unicode = 58;
userData = {
KernOnName = colon;
KernOnSpecialSpacing = {
L = "spaced-off";
R = "spaced-off";
};
};
}
{
glyphname = semicolon;
kernLeft = KO_semicolon;
kernRight = KO_semicolon;
layers = (
{
layerId = m01;
shapes = (
{
closed = 1;
nodes = (
(740,688,o),
(857,758,o),
(857,927,cs),
(857,1046,o),
(761,1094,o),
(563,1094,cs),
(347,1094,o),
(217,1032,o),
(217,866,cs),
(217,747,o),
(320,688,o),
(524,688,cs)
);
},
{
closed = 1;
nodes = (
(466,-230,o),
(547,-206,o),
(621,-156,cs),
(698,-104,o),
(740,-44,o),
(749,28,cs),
(771,207,ls),
(787,337,o),
(695,406,o),
(480,406,cs),
(261,406,o),
(134,333,o),
(134,207,cs),
(134,74,o),
(210,5,o),
(412,0,c),
(383,-230,l)
);
}
);
width = 854;
}
);
note = semicolon;
unicode = 59;
userData = {
KernOnSpecialSpacing = {
L = "spaced-off";
R = "spaced-off";
};
};
}
{
glyphname = equal;
kernLeft = KO_equal;
kernRight = KO_equal;
layers = (
{
layerId = m01;
shapes = (
{
closed = 1;
nodes = (
(1327,670,l),
(1351,861,l),
(399,861,l),
(375,670,l)
);
},
{
closed = 1;
nodes = (
(1278,267,l),
(1302,461,l),
(350,461,l),
(326,267,l)
);
}
);
userData = {
assembly = "PUSHW[ ]	/* 4 values pushed */
1 7 0 4
CALL[ ]	/* CallFunction */
PUSHW[ ]	/* 1 value pushed */
0
SRP0[ ]	/* SetRefPoint0 */
PUSHW[ ]	/* 1 value pushed */
4
MDRP[10000]	/* MoveDirectRelPt */
PUSHW[ ]	/* 1 value pushed */
1
SRP0[ ]	/* SetRefPoint0 */
PUSHW[ ]	/* 1 value pushed */
5
MDRP[10000]	/* MoveDirectRelPt */
PUSHW[ ]	/* 1 value pushed */
1
SRP0[ ]	/* SetRefPoint0 */
PUSHW[ ]	/* 1 value pushed */
9
MDRP[11100]	/* MoveDirectRelPt */
SVTCA[0]	/* SetFreedomAndProjectionVectorToAxis */
PUSHW[ ]	/* 4 values pushed */
5 1 6 4
CALL[ ]	/* CallFunction */
PUSHW[ ]	/* 4 values pushed */
1 1 2 4
CALL[ ]	/* CallFunction */
IUP[0]	/* InterpolateUntPts */
IUP[1]	/* InterpolateUntPts */";
};
width = 1538;
}
);
note = equal;
unicode = 61;
userData = {
KernOnSpecialSpacing = {
L = math;
R = math;
};
};
}
{
glyphname = greater;
kernLeft = KO_greater;
kernRight = KO_greater;
layers = (
{
layerId = m01;
shapes = (
{
closed = 1;
nodes = (
(428,-11,l),
(1121,548,l),
(567,1124,l),
(426,978,l),
(840,548,l),
(322,135,l)
);
}
);
userData = {
assembly = "PUSHW[ ]	/* 4 values pushed */
3 10 5 4
CALL[ ]	/* CallFunction */
PUSHW[ ]	/* 1 value pushed */
3
SRP0[ ]	/* SetRefPoint0 */
PUSHW[ ]	/* 1 value pushed */
7
MDRP[11100]	/* MoveDirectRelPt */
SVTCA[0]	/* SetFreedomAndProjectionVectorToAxis */
PUSHW[ ]	/* 3 values pushed */
2 4 3
CALL[ ]	/* CallFunction */
IUP[0]	/* InterpolateUntPts */
IUP[1]	/* InterpolateUntPts */";
};
width = 1358;
}
);
note = greater;
unicode = 62;
userData = {
KernOnSpecialSpacing = {
L = math;
R = math;
};
};
}
{
glyphname = question;
kernLeft = KO_question;
kernRight = KO_question;
layers = (
{
layerId = m01;
shapes = (
{
closed = 1;
nodes = (
(1157,849,ls),
(1323,849,o),
(1460,894,o),
(1565,988,cs),
(1661,1074,o),
(1747,1225,o),
(1747,1444,cs),
(1747,1554,o),
(1720,1645,o),
(1665,1718,cs),
(1585,1824,o),
(1461,1869,o),
(1307,1869,cs),
(1230,1869,l),
(1105,849,l)
);
},
{
closed = 1;
nodes = (
(1013,1306,l),
(1082,1869,l),
(1016,1869,ls),
(925,1869,o),
(849,1858,o),
(786,1839,cs),
(601,1783,o),
(500,1639,o),
(473,1420,cs),
(459,1306,l)
);
},
{
closed = 1;
nodes = (
(648,84,o),
(673,44,o),
(730,11,cs),
(787,-22,o),
(861,-38,o),
(950,-38,cs),
(1042,-38,o),
(1114,-21,o),
(1173,12,cs),
(1237,48,o),
(1276,99,o),
(1276,165,cs),
(1276,211,o),
(1252,251,o),
(1195,283,cs),
(1138,315,o),
(1066,331,o),
(976,331,cs),
(890,331,o),
(815,316,o),
(752,282,cs),
(687,247,o),
(648,195,o),
(648,130,cs)
);
}
);
width = 1874;
}
);
note = question;
unicode = 63;
userData = {
KernOnSpecialSpacing = {
L = "spaced-off";
};
};
}
{
glyphname = at;
kernLeft = KO_at;
kernRight = KO_at;
layers = (
{
layerId = m01;
shapes = (
{
closed = 1;
nodes = (
(130,978,o),
(-58,712,o),
(-58,290,cs),
(-58,47,o),
(19,-145,o),
(158,-274,cs),
(325,-429,o),
(577,-506,o),
(951,-506,cs),
(1134,-506,o),
(1312,-488,o),
(1480,-453,cs),
(1552,-438,o),
(1642,-411,o),
(1742,-374,c),
(1770,-147,l),
(1659,-220,o),
(1507,-271,o),
(1318,-302,cs),
(1214,-319,o),
(1107,-330,o),
(904,-330,cs),
(806,-330,o),
(702,-316,o),
(596,-285,cs),
(326,-206,o),
(188,-11,o),
(188,306,cs),
(188,664,o),
(328,874,o),
(509,1004,cs),
(679,1126,o),
(898,1191,o),
(1170,1191,cs),
(1424,1191,o),
(1599,1138,o),
(1705,1037,cs),
(1790,956,o),
(1823,852,o),
(1823,736,cs),
(1823,616,o),
(1788,495,o),
(1763,440,cs),
(1695,290,o),
(1601,205,o),
(1476,188,c),
(1555,827,l),
(1092,827,l),
(1026,293,ls),
(1020,244,o),
(1021,197,o),
(1033,157,cs),
(1056,80,o),
(1120,36,o),
(1214,16,cs),
(1369,-17,o),
(1515,-2,o),
(1651,59,cs),
(1758,107,o),
(1843,177,o),
(1909,264,cs),
(1993,375,o),
(2065,555,o),
(2065,764,cs),
(2065,936,o),
(2009,1067,o),
(1905,1165,cs),
(1755,1306,o),
(1512,1370,o),
(1192,1370,cs),
(849,1370,o),
(570,1288,o),
(350,1133,cs)
);
},
{
closed = 1;
nodes = (
(426,266,o),
(450,186,o),
(503,122,cs),
(570,41,o),
(674,0,o),
(814,0,cs),
(876,0,l),
(978,827,l),
(895,827,ls),
(751,827,o),
(640,785,o),
(559,708,cs),
(482,635,o),
(426,514,o),
(426,357,cs)
);
}
);
width = 1874;
}
);
note = at;
unicode = 64;
userData = {
KernOnSpecialSpacing = {
L = symbols;
R = symbols;
};
};
}
{
color = 9;
glyphname = A;
kernLeft = KO_A;
kernRight = KO_A;
layers = (
{
anchors = (
{
name = bottom;
pos = (786,0);
},
{
name = ogonek;
pos = (1401,10);
},
{
name = top;
pos = (954,1361);
}
);
layerId = m01;
shapes = (
{
closed = 1;
nodes = (
(1265,462,l),
(1286,639,l),
(444,639,l),
(423,462,l)
);
},
{
closed = 1;
nodes = (
(903,424,ls),
(884,269,o),
(912,160,o),
(983,96,cs),
(1054,32,o),
(1183,0,o),
(1350,0,cs),
(1411,0,l),
(1499,717,ls),
(1538,1034,o),
(1470,1229,o),
(1307,1315,cs),
(1250,1345,o),
(1179,1361,o),
(1089,1361,cs),
(1018,1361,l)
);
},
{
closed = 1;
nodes = (
(780,1361,ls),
(617,1361,o),
(485,1306,o),
(387,1189,cs),
(295,1079,o),
(238,921,o),
(213,717,cs),
(125,0,l),
(186,0,ls),
(363,0,o),
(494,32,o),
(582,100,cs),
(669,167,o),
(719,278,o),
(737,424,cs),
(852,1361,l)
);
}
);
width = 1536;
}
);
note = A;
unicode = 65;
userData = {
KernOnName = A;
};
}
{
color = 9;
glyphname = B;
kernLeft = KO_H;
kernRight = KO_B;
layers = (
{
anchors = (
{
name = bottom;
pos = (783,0);
},
{
name = center;
pos = (442,340);
},
{
name = top;
pos = (950,1361);
}
);
layerId = m01;
shapes = (
{
closed = 1;
nodes = (
(1444,742,o),
(1521,843,o),
(1521,1008,cs),
(1521,1244,o),
(1333,1361,o),
(1073,1361,cs),
(996,1361,l),
(829,0,l),
(921,0,ls),
(1210,0,o),
(1494,135,o),
(1494,453,cs),
(1494,566,o),
(1439,643,o),
(1334,689,c),
(1337,689,l)
);
},
{
closed = 1;
nodes = (
(663,2,l),
(830,1361,l),
(292,1361,l),
(125,2,l)
);
}
);
width = 1550;
}
);
note = B;
unicode = 66;
}
{
color = 9;
glyphname = C;
kernLeft = KO_O;
kernRight = KO_C;
layers = (
{
anchors = (
{
name = bottom;
pos = (726,0);
},
{
name = top;
pos = (945,1361);
}
);
layerId = m01;
shapes = (
{
closed = 1;
nodes = (
(965,904,o),
(994,805,o),
(1059,749,cs),
(1131,687,o),
(1256,661,o),
(1417,661,cs),
(1488,661,l),
(1574,1361,l),
(1022,1361,l),
(984,1055,ls)
);
},
{
closed = 1;
nodes = (
(1054,0,ls),
(1151,0,o),
(1233,23,o),
(1295,75,cs),
(1345,117,o),
(1374,170,o),
(1383,233,cs),
(1387,261,l),
(887,261,l),
(854,0,l)
);
},
{
closed = 1;
nodes = (
(874,1361,l),
(796,1361,ls),
(422,1361,o),
(168,1073,o),
(168,553,cs),
(168,248,o),
(289,0,o),
(628,0,cs),
(706,0,l)
);
}
);
width = 1531;
}
);
note = C;
unicode = 67;
userData = {
KernOnName = C;
};
}
{
color = 9;
glyphname = D;
kernLeft = KO_H;
kernRight = KO_D;
layers = (
{
anchors = (
{
name = bottom;
pos = (784,0);
},
{
name = center;
pos = (484,681);
},
{
name = top;
pos = (951,1361);
}
);
layerId = m01;
shapes = (
{
closed = 1;
nodes = (
(913,0,ls),
(1091,0,o),
(1234,68,o),
(1341,205,cs),
(1484,388,o),
(1565,724,o),
(1538,993,cs),
(1513,1242,o),
(1357,1361,o),
(1080,1361,cs),
(996,1361,l),
(829,0,l)
);
},
{
closed = 1;
nodes = (
(663,2,l),
(830,1361,l),
(292,1361,l),
(125,2,l)
);
}
);
width = 1534;
}
);
note = D;
unicode = 68;
}
{
color = 9;
glyphname = E;
kernLeft = KO_H;
kernRight = KO_E;
layers = (
{
anchors = (
{
name = bottom;
pos = (758,0);
},
{
name = ogonek;
pos = (1373,10);
},
{
name = top;
pos = (925,1361);
},
{
name = topleft;
pos = (178,1361);
}
);
layerId = m01;
shapes = (
{
closed = 1;
nodes = (
(955,1020,o),
(1048,913,o),
(1182,913,cs),
(1437,913,l),
(1492,1361,l),
(997,1361,l),
(969,1134,ls)
);
},
{
closed = 1;
nodes = (
(663,2,l),
(741,635,l),
(1172,635,l),
(1190,786,l),
(759,786,l),
(830,1361,l),
(292,1361,l),
(125,2,l)
);
},
{
closed = 1;
nodes = (
(1325,0,l),
(1389,526,l),
(1147,526,ls),
(1037,526,o),
(885,461,o),
(860,255,cs),
(829,0,l)
);
}
);
width = 1450;
}
);
note = E;
unicode = 69;
userData = {
KernOnName = E;
};
}
{
color = 9;
glyphname = F;
kernLeft = KO_H;
kernRight = KO_F;
layers = (
{
anchors = (
{
name = bottom;
pos = (758,0);
},
{
name = ogonek;
pos = (1373,10);
},
{
name = top;
pos = (925,1361);
},
{
name = topleft;
pos = (178,1361);
}
);
background = {
shapes = (
{
closed = 1;
nodes = (
(836,1190,o),
(863,1115,o),
(917,1068,cs),
(983,1011,o),
(1106,983,o),
(1287,983,cs),
(1391,983,l),
(1391,1361,l),
(836,1361,l),
(836,1294,ls)
);
},
{
closed = 1;
nodes = (
(663,2,l),
(663,552,l),
(1064,552,l),
(1064,813,l),
(663,813,l),
(663,1361,l),
(125,1361,l),
(125,2,l)
);
}
);
};
layerId = m01;
shapes = (
{
closed = 1;
nodes = (
(935,1028,o),
(954,954,o),
(1001,908,cs),
(1063,848,o),
(1189,823,o),
(1361,823,cs),
(1405,823,l),
(1471,1361,l),
(976,1361,l),
(948,1134,ls)
);
},
{
closed = 1;
nodes = (
(663,2,l),
(731,555,l),
(1162,555,l),
(1180,706,l),
(749,706,l),
(830,1361,l),
(292,1361,l),
(125,2,l)
);
}
);
width = 1363;
}
);
note = F;
unicode = 70;
userData = {
KernOnName = F;
};
}
{
color = 9;
glyphname = G;
kernLeft = KO_O;
kernRight = KO_G;
layers = (
{
anchors = (
{
name = bottom;
pos = (726,0);
},
{
name = top;
pos = (965,1361);
}
);
layerId = m01;
shapes = (
{
closed = 1;
nodes = (
(1002,1037,o),
(1018,985,o),
(1058,943,cs),
(1108,891,o),
(1184,867,o),
(1281,867,cs),
(1531,867,l),
(1591,1361,l),
(1041,1361,l),
(1018,1170,ls)
);
},
{
closed = 1;
nodes = (
(943,0,ls),
(1115,0,o),
(1241,30,o),
(1323,89,cs),
(1402,146,o),
(1454,243,o),
(1472,389,cs),
(1509,686,l),
(957,686,l),
(872,0,l)
);
},
{
closed = 1;
nodes = (
(873,1361,l),
(795,1361,ls),
(667,1361,o),
(553,1330,o),
(456,1262,cs),
(302,1154,o),
(168,923,o),
(168,557,cs),
(168,490,o),
(174,429,o),
(185,374,cs),
(236,118,o),
(389,0,o),
(628,0,cs),
(706,0,l)
);
}
);
width = 1549;
}
);
note = G;
unicode = 71;
}
{
color = 9;
glyphname = I;
kernLeft = KO_I;
kernRight = KO_I;
layers = (
{
anchors = (
{
name = bottom;
pos = (407,0);
},
{
name = ogonek;
pos = (750,10);
},
{
name = top;
pos = (574,1361);
},
{
name = topleft;
pos = (166,1361);
}
);
layerId = m01;
shapes = (
{
closed = 1;
nodes = (
(676,0,l),
(843,1361,l),
(305,1361,l),
(138,0,l)
);
}
);
userData = {
assembly = "PUSHW[ ]	/* 4 values pushed */
1 11 0 4
CALL[ ]	/* CallFunction */
PUSHW[ ]	/* 1 value pushed */
1
SRP0[ ]	/* SetRefPoint0 */
PUSHW[ ]	/* 1 value pushed */
5
MDRP[11100]	/* MoveDirectRelPt */
SVTCA[0]	/* SetFreedomAndProjectionVectorToAxis */
PUSHW[ ]	/* 1 value pushed */
0
RCVT[ ]	/* ReadCVT */
IF[ ]	/* If */
PUSHW[ ]	/* 1 value pushed */
0
MDAP[1]	/* MoveDirectAbsPt */
ELSE[ ]	/* Else */
PUSHW[ ]	/* 2 values pushed */
0 20
MIAP[0]	/* MoveIndirectAbsPt */
EIF[ ]	/* EndIf */
IUP[0]	/* InterpolateUntPts */
IUP[1]	/* InterpolateUntPts */";
};
width = 814;
}
);
note = I;
unicode = 73;
}
{
color = 9;
glyphname = J;
kernLeft = KO_J;
kernRight = KO_J;
layers = (
{
anchors = (
{
name = bottom;
pos = (632,0);
},
{
name = top;
pos = (1180,1361);
}
);
layerId = m01;
shapes = (
{
closed = 1;
nodes = (
(831,0,ls),
(991,0,o),
(1120,34,o),
(1206,112,cs),
(1281,180,o),
(1329,289,o),
(1347,436,cs),
(1461,1361,l),
(908,1361,l),
(741,0,l)
);
},
{
closed = 1;
nodes = (
(120,251,o),
(152,151,o),
(230,90,cs),
(305,31,o),
(359,0,o),
(500,0,cs),
(575,0,l),
(632,467,l),
(147,467,l),
(138,395,ls)
);
}
);
width = 1419;
}
);
note = J;
unicode = 74;
userData = {
KernOnName = J;
};
}
{
color = 9;
glyphname = K;
kernLeft = KO_H;
kernRight = KO_K;
layers = (
{
anchors = (
{
name = bottom;
pos = (783,0);
},
{
name = top;
pos = (950,1361);
}
);
background = {
shapes = (
{
closed = 1;
nodes = (
(829,21,o),
(1003,0,o),
(1130,0,cs),
(1441,0,l),
(1441,198,ls),
(1441,382,o),
(1403,495,o),
(1326,566,cs),
(1245,641,o),
(1111,678,o),
(923,678,cs),
(829,678,l),
(829,358,ls)
);
}
);
};
layerId = m01;
shapes = (
{
closed = 1;
nodes = (
(663,2,l),
(830,1361,l),
(292,1361,l),
(125,2,l)
);
},
{
closed = 1;
nodes = (
(1019,782,ls),
(1207,782,o),
(1346,813,o),
(1432,877,cs),
(1521,943,o),
(1566,1023,o),
(1584,1167,cs),
(1608,1359,l),
(1304,1359,ls),
(1122,1359,o),
(996,1365,o),
(954,1020,cs),
(925,782,l)
);
},
{
closed = 1;
nodes = (
(1504,515,o),
(1429,650,o),
(1270,650,cs),
(909,650,l),
(829,0,l),
(1441,0,l),
(1487,376,ls)
);
}
);
width = 1551;
}
);
note = K;
unicode = 75;
userData = {
KernOnName = K;
};
}
{
color = 9;
glyphname = L;
kernLeft = KO_H;
kernRight = KO_L;
layers = (
{
anchors = (
{
name = bottom;
pos = (758,0);
},
{
name = center;
pos = (841,681);
},
{
name = top;
pos = (561,1361);
},
{
name = topright;
pos = (1672,1361);
}
);
layerId = m01;
shapes = (
{
closed = 1;
nodes = (
(663,2,l),
(830,1361,l),
(292,1361,l),
(125,2,l)
);
},
{
closed = 1;
nodes = (
(829,0,l),
(1324,0,l),
(1390,538,l),
(1146,538,ls),
(986,538,o),
(878,403,o),
(861,263,cs)
);
}
);
width = 1384;
}
);
note = L;
unicode = 76;
userData = {
KernOnName = L;
};
}
{
color = 9;
glyphname = M;
kernLeft = KO_H;
kernRight = KO_M;
layers = (
{
anchors = (
{
name = bottom;
pos = (1145,0);
},
{
name = top;
pos = (1312,1361);
}
);
layerId = m01;
shapes = (
{
closed = 1;
nodes = (
(2122,0,l),
(2236,928,ls),
(2244,993,o),
(2245,1057,o),
(2235,1114,cs),
(2206,1286,o),
(2061,1362,o),
(1826,1362,cs),
(1736,1362,l),
(1569,0,l)
);
},
{
closed = 1;
nodes = (
(1403,0,l),
(1570,1362,l),
(1014,1362,l),
(847,0,l)
);
},
{
closed = 1;
nodes = (
(681,0,l),
(848,1362,l),
(292,1362,l),
(125,0,l)
);
}
);
width = 2247;
}
);
note = M;
unicode = 77;
}
{
color = 9;
glyphname = N;
kernLeft = KO_H;
kernRight = KO_N;
layers = (
{
anchors = (
{
name = bottom;
pos = (765,0);
},
{
name = top;
pos = (932,1361);
}
);
layerId = m01;
shapes = (
{
closed = 1;
nodes = (
(1382,0,l),
(1507,1018,ls),
(1533,1230,o),
(1406,1361,o),
(1086,1361,cs),
(996,1361,l),
(829,0,l)
);
},
{
closed = 1;
nodes = (
(663,0,l),
(830,1361,l),
(292,1361,l),
(125,0,l)
);
}
);
width = 1492;
}
);
note = N;
unicode = 78;
}
{
color = 9;
glyphname = O;
kernLeft = KO_O;
kernRight = KO_O;
layers = (
{
anchors = (
{
name = bottom;
pos = (788,0);
},
{
name = center;
pos = (872,681);
},
{
name = ogonek;
pos = (1404,10);
},
{
name = top;
pos = (956,1361);
},
{
name = topleft;
pos = (209,1361);
},
{
name = topright;
pos = (1703,1361);
}
);
layerId = m01;
shapes = (
{
closed = 1;
nodes = (
(950,0,ls),
(1344,0,o),
(1586,376,o),
(1586,858,cs),
(1586,1155,o),
(1450,1361,o),
(1118,1361,cs),
(1040,1361,l),
(872,0,l)
);
},
{
closed = 1;
nodes = (
(874,1361,l),
(796,1361,ls),
(422,1361,o),
(168,1073,o),
(168,553,cs),
(168,248,o),
(289,0,o),
(628,0,cs),
(706,0,l)
);
}
);
width = 1578;
}
);
note = O;
unicode = 79;
userData = {
KernOnName = O;
};
}
{
color = 9;
glyphname = P;
kernLeft = KO_H;
kernRight = KO_P;
layers = (
{
anchors = (
{
name = bottom;
pos = (811,0);
},
{
name = top;
pos = (978,1361);
}
);
layerId = m01;
shapes = (
{
closed = 1;
nodes = (
(990,366,ls),
(1167,366,o),
(1310,413,o),
(1420,506,cs),
(1524,594,o),
(1606,731,o),
(1606,938,cs),
(1606,1055,o),
(1574,1146,o),
(1514,1214,cs),
(1424,1316,o),
(1276,1361,o),
(1084,1361,cs),
(996,1361,l),
(874,366,l)
);
},
{
closed = 1;
nodes = (
(663,2,l),
(830,1361,l),
(292,1361,l),
(125,2,l)
);
}
);
width = 1566;
}
);
note = P;
unicode = 80;
}
{
color = 4;
glyphname = Q;
kernLeft = KO_O;
kernRight = KO_O;
layers = (
{
anchors = (
{
name = bottom;
pos = (787,0);
},
{
name = top;
pos = (954,1361);
}
);
layerId = m01;
shapes = (
{
closed = 1;
nodes = (
(670,-238,ls),
(665,-281,o),
(670,-320,o),
(685,-354,cs),
(733,-462,o),
(861,-510,o),
(1054,-510,cs),
(1242,-510,l),
(1283,-170,l),
(678,-170,l)
);
},
{
closed = 1;
nodes = (
(950,0,ls),
(1141,0,o),
(1293,75,o),
(1403,229,cs),
(1498,362,o),
(1585,597,o),
(1585,855,cs),
(1585,917,o),
(1579,976,o),
(1567,1028,cs),
(1516,1250,o),
(1366,1361,o),
(1117,1361,cs),
(1039,1361,l),
(872,0,l)
);
},
{
closed = 1;
nodes = (
(873,1361,l),
(795,1361,ls),
(667,1361,o),
(553,1330,o),
(456,1262,cs),
(302,1154,o),
(168,923,o),
(168,557,cs),
(168,490,o),
(174,429,o),
(185,374,cs),
(236,118,o),
(389,0,o),
(628,0,cs),
(706,0,l)
);
}
);
width = 1578;
}
);
note = Q;
unicode = 81;
}
{
color = 9;
glyphname = R;
kernLeft = KO_H;
kernRight = KO_R;
layers = (
{
anchors = (
{
name = bottom;
pos = (775,0);
},
{
name = top;
pos = (942,1361);
}
);
layerId = m01;
shapes = (
{
closed = 1;
nodes = (
(1521,1129,o),
(1486,1209,o),
(1424,1264,cs),
(1346,1333,o),
(1216,1363,o),
(1048,1363,cs),
(996,1363,l),
(829,0,l),
(1425,0,l),
(1438,106,ls),
(1450,204,o),
(1438,289,o),
(1405,360,cs),
(1364,448,o),
(1293,506,o),
(1203,541,c),
(1390,602,o),
(1521,764,o),
(1521,1016,cs)
);
},
{
closed = 1;
nodes = (
(663,0,l),
(830,1361,l),
(292,1361,l),
(125,0,l)
);
}
);
width = 1534;
}
);
note = R;
unicode = 82;
userData = {
KernOnName = R;
};
}
{
color = 9;
glyphname = T;
kernLeft = KO_T;
kernRight = KO_T;
layers = (
{
anchors = (
{
name = bottom;
pos = (894,0);
},
{
name = center;
pos = (978,681);
},
{
name = top;
pos = (1061,1361);
}
);
layerId = m01;
shapes = (
{
closed = 1;
nodes = (
(1387,935,o),
(1390,844,o),
(1410,780,cs),
(1430,716,o),
(1461,681,o),
(1526,650,cs),
(1562,633,o),
(1616,626,o),
(1685,626,cs),
(1797,626,l),
(1887,1361,l),
(1439,1361,l),
(1401,1050,ls)
);
},
{
closed = 1;
nodes = (
(1164,0,l),
(1331,1361,l),
(793,1361,l),
(626,0,l)
);
},
{
closed = 1;
nodes = (
(259,626,ls),
(363,626,o),
(449,648,o),
(509,700,cs),
(583,764,o),
(627,887,o),
(647,1050,cs),
(685,1361,l),
(237,1361,l),
(147,626,l)
);
}
);
width = 1790;
}
);
note = T;
unicode = 84;
userData = {
KernOnName = T;
};
}
{
color = 9;
glyphname = U;
kernLeft = KO_U;
kernRight = KO_H;
layers = (
{
anchors = (
{
name = bottom;
pos = (747,0);
},
{
name = ogonek;
pos = (1363,10);
},
{
name = top;
pos = (914,1361);
},
{
name = topright;
pos = (1661,1361);
}
);
layerId = m01;
shapes = (
{
closed = 1;
nodes = (
(1384,0,l),
(1552,1362,l),
(996,1362,l),
(828,0,l)
);
},
{
closed = 1;
nodes = (
(155,364,o),
(156,303,o),
(165,249,cs),
(193,79,o),
(334,0,o),
(573,0,cs),
(663,0,l),
(831,1362,l),
(278,1362,l),
(164,437,ls)
);
}
);
width = 1509;
}
);
note = U;
unicode = 85;
userData = {
KernOnName = U;
};
}
{
color = 9;
glyphname = V;
kernLeft = KO_V;
kernRight = KO_V;
layers = (
{
layerId = m01;
shapes = (
{
closed = 1;
nodes = (
(907,0,ls),
(997,0,o),
(1071,16,o),
(1134,45,cs),
(1323,132,o),
(1437,331,o),
(1475,642,cs),
(1563,1361,l),
(1502,1361,ls),
(1333,1361,o),
(1192,1328,o),
(1105,1260,cs),
(1023,1196,o),
(970,1090,o),
(951,935,cs),
(836,0,l)
);
},
{
closed = 1;
nodes = (
(785,935,ls),
(804,1090,o),
(777,1196,o),
(711,1260,cs),
(644,1325,o),
(525,1361,o),
(338,1361,cs),
(277,1361,l),
(189,642,ls),
(164,438,o),
(183,283,o),
(245,176,cs),
(314,56,o),
(434,0,o),
(598,0,cs),
(670,0,l)
);
}
);
width = 1506;
}
);
note = V;
unicode = 86;
}
{
color = 9;
glyphname = X;
kernLeft = KO_X;
kernRight = KO_X;
layers = (
{
anchors = (
{
name = bottom;
pos = (708,0);
},
{
name = top;
pos = (875,1361);
}
);
layerId = m01;
shapes = (
{
closed = 1;
nodes = (
(962,0,l),
(1365,0,l),
(1383,146,ls),
(1405,325,o),
(1393,396,o),
(1274,547,cs),
(631,1361,l),
(207,1361,l),
(181,1148,ls),
(174,1091,o),
(177,984,o),
(262,878,cs)
);
},
{
closed = 1;
nodes = (
(1070,866,ls),
(1193,866,o),
(1286,882,o),
(1346,918,cs),
(1429,968,o),
(1476,1065,o),
(1493,1205,cs),
(1512,1361,l),
(1458,1361,l),
(1079,1361,l),
(1018,866,l)
);
},
{
closed = 1;
nodes = (
(503,0,l),
(564,493,l),
(512,493,ls),
(389,493,o),
(294,477,o),
(235,441,cs),
(153,391,o),
(106,294,o),
(89,155,cs),
(70,0,l)
);
}
);
width = 1405;
}
);
note = X;
unicode = 88;
userData = {
KernOnName = X;
};
}
{
color = 9;
glyphname = Y;
kernLeft = KO_U;
kernRight = KO_H;
layers = (
{
anchors = (
{
name = bottom;
pos = (747,0);
},
{
name = top;
pos = (914,1361);
},
{
name = topleft;
pos = (167,1361);
}
);
layerId = m01;
shapes = (
{
closed = 1;
nodes = (
(996,1361,l),
(767,-510,l),
(829,-510,ls),
(1143,-510,o),
(1323,-355,o),
(1362,-36,cs),
(1533,1361,l)
);
},
{
closed = 1;
nodes = (
(155,363,o),
(156,303,o),
(165,249,cs),
(193,79,o),
(334,0,o),
(573,0,cs),
(663,0,l),
(830,1361,l),
(277,1361,l),
(164,437,ls)
);
}
);
width = 1491;
}
);
note = Y;
unicode = 89;
}
{
color = 9;
glyphname = Z;
kernLeft = KO_Z;
kernRight = KO_Z;
layers = (
{
anchors = (
{
name = bottom;
pos = (796,0);
},
{
name = center;
pos = (880,681);
},
{
name = top;
pos = (963,1361);
}
);
background = {
shapes = (
{
closed = 1;
nodes = (
(545,0,l),
(1238,751,ls),
(1340,862,o),
(1404,1076,o),
(1404,1248,cs),
(1404,1361,l),
(964,1361,l),
(242,511,ls),
(143,394,o),
(125,240,o),
(125,128,cs),
(125,0,l)
);
},
{
closed = 1;
nodes = (
(141,947,o),
(174,824,o),
(241,785,c),
(271,785,l),
(763,1361,l),
(173,1361,l),
(152,1330,o),
(141,1271,o),
(141,1185,cs)
);
},
{
closed = 1;
nodes = (
(1391,279,o),
(1390,317,o),
(1387,354,cs),
(1378,472,o),
(1346,547,o),
(1291,578,c),
(757,0,l),
(1360,0,l),
(1380,31,o),
(1390,90,o),
(1390,177,cs),
(1391,238,ls)
);
}
);
};
layerId = m01;
shapes = (
{
closed = 1;
nodes = (
(545,0,l),
(1330,751,ls),
(1445,861,o),
(1536,1074,o),
(1557,1246,cs),
(1571,1361,l),
(1131,1361,l),
(305,511,ls),
(190,393,o),
(154,236,o),
(141,130,cs),
(125,0,l)
);
},
{
closed = 1;
nodes = (
(404,894,ls),
(507,894,o),
(587,920,o),
(647,971,cs),
(698,1014,o),
(725,1068,o),
(732,1124,cs),
(761,1361,l),
(311,1361,l),
(254,894,l)
);
},
{
closed = 1;
nodes = (
(1297,467,ls),
(1200,467,o),
(1117,444,o),
(1053,389,cs),
(1002,345,o),
(976,293,o),
(969,236,cs),
(940,0,l),
(1390,0,l),
(1447,467,l)
);
}
);
width = 1529;
}
);
note = Z;
unicode = 90;
}
{
glyphname = bracketleft;
kernRight = KO_bracketleft;
layers = (
{
layerId = m01;
shapes = (
{
closed = 1;
nodes = (
(896,-340,l),
(917,-170,l),
(501,-170,l),
(689,1360,l),
(1105,1360,l),
(1126,1530,l),
(528,1530,l),
(298,-340,l)
);
}
);
userData = {
assembly = "PUSHW[ ]	/* 4 values pushed */
3 8 0 4
CALL[ ]	/* CallFunction */
SVTCA[0]	/* SetFreedomAndProjectionVectorToAxis */
PUSHW[ ]	/* 1 value pushed */
0
RCVT[ ]	/* ReadCVT */
IF[ ]	/* If */
PUSHW[ ]	/* 1 value pushed */
6
MDAP[1]	/* MoveDirectAbsPt */
ELSE[ ]	/* Else */
PUSHW[ ]	/* 2 values pushed */
6 16
MIAP[0]	/* MoveIndirectAbsPt */
EIF[ ]	/* EndIf */
PUSHW[ ]	/* 4 values pushed */
1 2 2 4
CALL[ ]	/* CallFunction */
PUSHW[ ]	/* 1 value pushed */
6
SRP0[ ]	/* SetRefPoint0 */
PUSHW[ ]	/* 2 values pushed */
4 2
MIRP[10100]	/* MoveIndirectRelPt */
IUP[0]	/* InterpolateUntPts */
IUP[1]	/* InterpolateUntPts */";
};
width = 1195;
}
);
note = bracketleft;
unicode = 91;
userData = {
KernOnSpecialSpacing = {
L = NoKerning;
R = parenthesis;
};
};
}
{
glyphname = asciicircum;
kernLeft = KO_asciicircum;
kernRight = KO_asciicircum;
layers = (
{
layerId = m01;
shapes = (
{
closed = 1;
nodes = (
(909,1226,l),
(1233,512,l),
(1408,607,l),
(952,1571,l),
(275,607,l),
(427,512,l)
);
}
);
userData = {
assembly = "PUSHW[ ]	/* 4 values pushed */
2 7 0 4
CALL[ ]	/* CallFunction */
PUSHW[ ]	/* 3 values pushed */
4 0 2
SRP1[ ]	/* SetRefPoint1 */
SRP2[ ]	/* SetRefPoint2 */
IP[ ]	/* InterpolatePts */
PUSHW[ ]	/* 1 value pushed */
2
SRP0[ ]	/* SetRefPoint0 */
PUSHW[ ]	/* 1 value pushed */
7
MDRP[11100]	/* MoveDirectRelPt */
SVTCA[0]	/* SetFreedomAndProjectionVectorToAxis */
PUSHW[ ]	/* 4 values pushed */
1 4 5 4
CALL[ ]	/* CallFunction */
IUP[0]	/* InterpolateUntPts */
IUP[1]	/* InterpolateUntPts */";
};
width = 1533;
}
);
note = asciicircum;
unicode = 94;
userData = {
KernOnSpecialSpacing = {
L = math;
R = math;
};
};
}
{
glyphname = grave;
layers = (
{
layerId = m01;
shapes = (
{
closed = 1;
nodes = (
(508,1886,l),
(299,1699,l),
(492,1479,ls),
(578,1381,o),
(684,1332,o),
(762,1332,cs),
(830,1332,o),
(888,1347,o),
(930,1384,cs),
(981,1429,l)
);
}
);
width = 895;
}
);
note = grave;
unicode = 96;
}
{
color = 9;
glyphname = a;
kernLeft = KO_a;
kernRight = KO_a;
layers = (
{
anchors = (
{
name = bottom;
pos = (707,0);
},
{
name = ogonek;
pos = (1322,10);
},
{
name = top;
pos = (832,1020);
}
);
layerId = m01;
shapes = (
{
closed = 1;
nodes = (
(823,253,o),
(849,151,o),
(919,90,cs),
(990,28,o),
(1114,0,o),
(1281,0,cs),
(1344,0,l),
(1469,1020,l),
(917,1020,l),
(840,392,ls)
);
},
{
closed = 1;
nodes = (
(131,338,o),
(144,224,o),
(218,139,cs),
(298,47,o),
(422,0,o),
(592,0,cs),
(644,0,l),
(769,1020,l),
(692,1020,ls),
(533,1020,o),
(393,972,o),
(288,860,cs),
(196,762,o),
(131,589,o),
(131,498,cs)
);
}
);
width = 1469;
}
);
note = a;
unicode = 97;
userData = {
KernOnName = a;
};
}
{
color = 9;
glyphname = e;
kernLeft = KO_a;
kernRight = KO_e;
layers = (
{
anchors = (
{
name = bottom;
pos = (708,0);
},
{
name = ogonek;
pos = (1323,10);
},
{
name = top;
pos = (833,1020);
}
);
layerId = m01;
shapes = (
{
closed = 1;
nodes = (
(1402,457,l),
(1415,563,ls),
(1425,644,o),
(1424,711,o),
(1412,767,cs),
(1377,937,o),
(1232,1020,o),
(983,1020,cs),
(917,1020,l),
(848,457,l)
);
},
{
closed = 1;
nodes = (
(131,338,o),
(144,224,o),
(218,139,cs),
(298,47,o),
(422,0,o),
(592,0,cs),
(644,0,l),
(769,1020,l),
(692,1020,ls),
(533,1020,o),
(393,972,o),
(288,860,cs),
(196,762,o),
(131,589,o),
(131,498,cs)
);
},
{
closed = 1;
nodes = (
(992,0,ls),
(1095,0,o),
(1175,26,o),
(1235,77,cs),
(1285,119,o),
(1313,173,o),
(1320,229,cs),
(1324,261,l),
(824,261,l),
(792,0,l)
);
}
);
width = 1416;
}
);
note = e;
unicode = 101;
userData = {
KernOnName = e;
};
}
{
color = 9;
glyphname = f;
kernLeft = KO_f;
kernRight = KO_f;
layers = (
{
anchors = (
{
name = bottom;
pos = (750,0);
},
{
name = top;
pos = (736,1549);
}
);
layerId = m01;
shapes = (
{
closed = 1;
nodes = (
(703,0,l),
(893,1549,l),
(826,1549,ls),
(736,1549,o),
(663,1536,o),
(601,1512,cs),
(428,1445,o),
(324,1296,o),
(295,1060,cs),
(165,0,l)
);
},
{
closed = 1;
nodes = (
(1068,555,l),
(1087,706,l),
(97,706,l),
(78,555,l)
);
},
{
closed = 1;
nodes = (
(1029,1546,o),
(906,1450,o),
(906,1227,cs),
(906,1092,o),
(979,1033,o),
(1134,1033,cs),
(1308,1033,o),
(1420,1117,o),
(1420,1351,cs),
(1420,1486,o),
(1354,1546,o),
(1205,1546,cs)
);
}
);
width = 1158;
}
);
note = f;
unicode = 102;
userData = {
KernOnName = f;
};
}
{
color = 9;
glyphname = g;
kernLeft = KO_a;
kernRight = KO_a;
layers = (
{
anchors = (
{
name = bottom;
pos = (620,-560);
},
{
name = top;
pos = (844,1020);
}
);
layerId = m01;
shapes = (
{
closed = 1;
nodes = (
(868,-450,ls),
(1194,-450,o),
(1299,-222,o),
(1329,23,cs),
(1451,1020,l),
(917,1020,l),
(737,-450,l)
);
},
{
closed = 1;
nodes = (
(126,150,o),
(297,0,o),
(592,0,cs),
(644,0,l),
(769,1020,l),
(692,1020,ls),
(367,1020,o),
(126,789,o),
(126,414,cs)
);
},
{
closed = 1;
nodes = (
(187,-197,ls),
(164,-384,o),
(273,-450,o),
(435,-450,cs),
(589,-450,l),
(636,-67,l),
(203,-67,l)
);
}
);
width = 1451;
}
);
note = g;
unicode = 103;
}
{
color = 9;
glyphname = h;
kernLeft = KO_h;
kernRight = KO_n;
layers = (
{
anchors = (
{
name = bottom;
pos = (743,0);
},
{
name = center;
pos = (526,1187);
},
{
name = top;
pos = (578,1532);
}
);
layerId = m01;
shapes = (
{
closed = 1;
nodes = (
(663,0,l),
(851,1531,l),
(313,1531,l),
(125,0,l)
);
},
{
closed = 1;
nodes = (
(1364,0,l),
(1436,586,ls),
(1444,651,o),
(1444,712,o),
(1435,769,cs),
(1408,938,o),
(1270,1020,o),
(1026,1020,cs),
(936,1020,l),
(811,0,l)
);
}
);
width = 1484;
}
);
note = h;
unicode = 104;
}
{
color = 9;
glyphname = i;
kernLeft = KO_i;
kernRight = KO_i;
layers = (
{
layerId = m01;
shapes = (
{
closed = 1;
nodes = (
(665,0,l),
(790,1019,l),
(252,1019,l),
(127,0,l)
);
},
{
closed = 1;
nodes = (
(763,1201,o),
(881,1269,o),
(881,1440,cs),
(881,1557,o),
(789,1607,o),
(587,1607,cs),
(368,1607,o),
(241,1544,o),
(241,1379,cs),
(241,1261,o),
(343,1201,o),
(548,1201,cs)
);
}
);
width = 776;
}
);
note = i;
unicode = 105;
userData = {
KernOnName = i;
};
}
{
color = 9;
glyphname = k;
kernLeft = KO_h;
kernRight = KO_k;
layers = (
{
anchors = (
{
name = bottom;
pos = (744,0);
},
{
name = top;
pos = (579,1531);
}
);
layerId = m01;
shapes = (
{
closed = 1;
nodes = (
(662,0,l),
(850,1531,l),
(313,1531,l),
(125,0,l)
);
},
{
closed = 1;
nodes = (
(873,784,o),
(879,761,o),
(890,742,cs),
(935,664,o),
(1028,628,o),
(1159,628,cs),
(1244,628,o),
(1315,645,o),
(1372,679,cs),
(1434,716,o),
(1477,777,o),
(1477,858,cs),
(1477,883,o),
(1472,905,o),
(1461,925,cs),
(1422,996,o),
(1338,1033,o),
(1202,1033,cs),
(1119,1033,o),
(1045,1018,o),
(985,986,cs),
(921,952,o),
(873,893,o),
(873,810,cs)
);
},
{
closed = 1;
nodes = (
(1363,0,l),
(1372,73,ls),
(1381,146,o),
(1380,211,o),
(1371,264,cs),
(1343,425,o),
(1209,509,o),
(962,509,cs),
(872,509,l),
(810,0,l)
);
}
);
width = 1463;
}
);
note = k;
unicode = 107;
userData = {
KernOnName = k;
};
}
{
color = 9;
glyphname = l;
kernLeft = KO_l;
kernRight = KO_l;
layers = (
{
anchors = (
{
name = bottom;
pos = (339,0);
},
{
name = center;
pos = (402,510);
},
{
name = top;
pos = (527,1531);
},
{
name = topright;
pos = (1134,2000);
}
);
layerId = m01;
shapes = (
{
closed = 1;
nodes = (
(608,0,l),
(796,1531,l),
(258,1531,l),
(70,0,l)
);
}
);
userData = {
assembly = "PUSHW[ ]	/* 4 values pushed */
1 11 0 4
CALL[ ]	/* CallFunction */
PUSHW[ ]	/* 1 value pushed */
1
SRP0[ ]	/* SetRefPoint0 */
PUSHW[ ]	/* 1 value pushed */
5
MDRP[11100]	/* MoveDirectRelPt */
SVTCA[0]	/* SetFreedomAndProjectionVectorToAxis */
PUSHW[ ]	/* 1 value pushed */
0
RCVT[ ]	/* ReadCVT */
IF[ ]	/* If */
PUSHW[ ]	/* 1 value pushed */
2
MDAP[1]	/* MoveDirectAbsPt */
ELSE[ ]	/* Else */
PUSHW[ ]	/* 2 values pushed */
2 14
MIAP[0]	/* MoveIndirectAbsPt */
EIF[ ]	/* EndIf */
PUSHW[ ]	/* 1 value pushed */
0
MDRP[11100]	/* MoveDirectRelPt */
IUP[0]	/* InterpolateUntPts */
IUP[1]	/* InterpolateUntPts */";
};
width = 678;
}
);
note = l;
unicode = 108;
userData = {
KernOnName = l;
};
}
{
color = 9;
glyphname = m;
kernLeft = KO_n;
kernRight = KO_n;
layers = (
{
anchors = (
{
name = bottom;
pos = (1145,0);
},
{
name = top;
pos = (1270,1020);
}
);
layerId = m01;
shapes = (
{
closed = 1;
nodes = (
(2083,0,l),
(2155,586,ls),
(2191,879,o),
(2073,1020,o),
(1745,1020,cs),
(1655,1020,l),
(1530,0,l)
);
},
{
closed = 1;
nodes = (
(1382,0,l),
(1454,586,ls),
(1490,879,o),
(1372,1020,o),
(1044,1020,cs),
(954,1020,l),
(829,0,l)
);
},
{
closed = 1;
nodes = (
(681,0,l),
(806,1020,l),
(250,1020,l),
(125,0,l)
);
}
);
width = 2203;
}
);
note = m;
unicode = 109;
userData = {
KernOnName = m;
};
}
{
color = 9;
glyphname = n;
kernLeft = KO_n;
kernRight = KO_n;
layers = (
{
anchors = (
{
name = bottom;
pos = (762,0);
},
{
name = top;
pos = (887,1020);
}
);
layerId = m01;
shapes = (
{
closed = 1;
nodes = (
(1382,0,l),
(1454,586,ls),
(1462,651,o),
(1462,712,o),
(1453,769,cs),
(1426,938,o),
(1288,1020,o),
(1044,1020,cs),
(954,1020,l),
(829,0,l)
);
},
{
closed = 1;
nodes = (
(681,0,l),
(806,1020,l),
(250,1020,l),
(125,0,l)
);
}
);
width = 1502;
}
);
note = n;
unicode = 110;
userData = {
KernOnName = n;
};
}
{
color = 9;
glyphname = o;
kernLeft = KO_a;
kernRight = KO_o;
layers = (
{
anchors = (
{
name = bottom;
pos = (725,0);
},
{
name = center;
pos = (788,510);
},
{
name = ogonek;
pos = (1340,10);
},
{
name = top;
pos = (850,1020);
},
{
name = topright;
pos = (1597,1020);
}
);
layerId = m01;
shapes = (
{
closed = 1;
nodes = (
(844,0,ls),
(1171,0,o),
(1434,197,o),
(1434,594,cs),
(1434,850,o),
(1288,1020,o),
(994,1020,cs),
(917,1020,l),
(792,0,l)
);
},
{
closed = 1;
nodes = (
(126,150,o),
(297,0,o),
(592,0,cs),
(644,0,l),
(769,1020,l),
(692,1020,ls),
(367,1020,o),
(126,789,o),
(126,414,cs)
);
}
);
width = 1436;
}
);
note = o;
unicode = 111;
userData = {
KernOnName = o;
};
}
{
color = 9;
glyphname = p;
kernLeft = KO_n;
kernRight = KO_o;
layers = (
{
anchors = (
{
name = bottom;
pos = (726,0);
},
{
name = top;
pos = (851,1020);
}
);
layerId = m01;
shapes = (
{
closed = 1;
nodes = (
(863,0,ls),
(1025,0,o),
(1165,43,o),
(1273,141,cs),
(1371,230,o),
(1452,383,o),
(1452,596,cs),
(1452,707,o),
(1424,798,o),
(1372,868,cs),
(1297,969,o),
(1177,1020,o),
(1013,1020,cs),
(936,1020,l),
(811,0,l)
);
},
{
closed = 1;
nodes = (
(621,-340,l),
(788,1020,l),
(250,1020,l),
(83,-340,l)
);
}
);
width = 1455;
}
);
note = p;
unicode = 112;
}
{
color = 9;
glyphname = q;
kernLeft = KO_a;
kernRight = KO_a;
layers = (
{
anchors = (
{
name = bottom;
pos = (707,0);
},
{
name = top;
pos = (832,1020);
}
);
layerId = m01;
shapes = (
{
closed = 1;
nodes = (
(1288,-340,l),
(1455,1020,l),
(917,1020,l),
(750,-340,l)
);
},
{
closed = 1;
nodes = (
(131,338,o),
(144,224,o),
(218,139,cs),
(298,47,o),
(422,0,o),
(592,0,cs),
(644,0,l),
(769,1020,l),
(692,1020,ls),
(533,1020,o),
(393,972,o),
(288,860,cs),
(196,762,o),
(131,589,o),
(131,498,cs)
);
}
);
width = 1455;
}
);
note = q;
unicode = 113;
}
{
color = 9;
glyphname = r;
kernLeft = KO_n;
kernRight = KO_r;
layers = (
{
anchors = (
{
name = bottom;
pos = (704,0);
},
{
name = top;
pos = (829,1020);
}
);
layerId = m01;
shapes = (
{
closed = 1;
nodes = (
(681,0,l),
(806,1020,l),
(250,1020,l),
(125,0,l)
);
},
{
closed = 1;
nodes = (
(974,1022,o),
(851,926,o),
(851,703,cs),
(851,568,o),
(924,509,o),
(1078,509,cs),
(1253,509,o),
(1365,593,o),
(1365,827,cs),
(1365,962,o),
(1299,1022,o),
(1149,1022,cs)
);
}
);
width = 1311;
}
);
note = r;
unicode = 114;
userData = {
KernOnName = r;
};
}
{
color = 9;
glyphname = s;
kernLeft = KO_s;
kernRight = KO_s;
layers = (
{
anchors = (
{
name = bottom;
pos = (687,0);
},
{
name = top;
pos = (812,1020);
}
);
layerId = m01;
shapes = (
{
closed = 1;
nodes = (
(887,-10,l),
(1011,-10,o),
(1104,21,o),
(1173,77,cs),
(1259,147,o),
(1298,274,o),
(1282,377,c),
(619,1030,l),
(494,1030,o),
(398,1002,o),
(331,946,cs),
(276,900,o),
(238,826,o),
(230,764,cs),
(227,741,o),
(225,712,o),
(225,690,cs),
(225,662,l),
(227,636,l),
(234,636,l)
);
},
{
closed = 1;
nodes = (
(118,0,l),
(498,0,l),
(515,138,ls),
(523,203,o),
(505,255,o),
(466,296,cs),
(419,345,o),
(347,371,o),
(244,371,cs),
(164,371,l)
);
},
{
closed = 1;
nodes = (
(1358,1020,l),
(978,1020,l),
(961,880,ls),
(954,822,o),
(968,768,o),
(1010,724,cs),
(1056,676,o),
(1127,649,o),
(1233,649,cs),
(1313,649,l)
);
}
);
width = 1373;
}
);
note = s;
unicode = 115;
userData = {
KernOnName = s;
};
}
{
color = 9;
glyphname = t;
kernLeft = KO_t;
kernRight = KO_t;
layers = (
{
anchors = (
{
name = bottom;
pos = (757,0);
},
{
name = center;
pos = (819,510);
},
{
name = top;
pos = (915,1291);
},
{
name = topright;
pos = (1749,2000);
}
);
layerId = m01;
shapes = (
{
closed = 1;
nodes = (
(860,1361,l),
(710,1361,l),
(244,1014,l),
(175,452,ls),
(138,151,o),
(285,0,o),
(615,0,cs),
(693,0,l)
);
},
{
closed = 1;
nodes = (
(1251,869,l),
(1270,1020,l),
(420,1020,l),
(401,869,l)
);
},
{
closed = 1;
nodes = (
(870,0,ls),
(966,0,o),
(1047,23,o),
(1109,74,cs),
(1165,120,o),
(1191,175,o),
(1198,232,cs),
(1215,371,l),
(835,371,l),
(790,0,l)
);
}
);
width = 1260;
}
);
note = t;
unicode = 116;
userData = {
KernOnName = t;
};
}
{
color = 9;
glyphname = u;
kernLeft = KO_u;
kernRight = KO_a;
layers = (
{
anchors = (
{
name = bottom;
pos = (757,0);
},
{
name = ogonek;
pos = (1373,10);
},
{
name = top;
pos = (883,1020);
},
{
name = topright;
pos = (1630,1020);
}
);
layerId = m01;
shapes = (
{
closed = 1;
nodes = (
(1377,0,l),
(1503,1020,l),
(947,1020,l),
(821,0,l)
);
},
{
closed = 1;
nodes = (
(165,364,o),
(166,303,o),
(175,249,cs),
(203,79,o),
(344,0,o),
(583,0,cs),
(673,0,l),
(799,1020,l),
(246,1020,l),
(174,437,ls)
);
}
);
width = 1502;
}
);
note = u;
unicode = 117;
}
{
color = 9;
glyphname = v;
kernLeft = KO_v;
kernRight = KO_v;
layers = (
{
anchors = (
{
name = bottom;
pos = (757,0);
},
{
name = top;
pos = (882,1020);
}
);
layerId = m01;
shapes = (
{
closed = 1;
nodes = (
(879,0,ls),
(969,0,o),
(1043,16,o),
(1106,45,cs),
(1295,132,o),
(1409,331,o),
(1447,642,cs),
(1493,1020,l),
(1432,1020,ls),
(1258,1020,o),
(1128,986,o),
(1043,918,cs),
(962,853,o),
(910,747,o),
(891,593,cs),
(818,0,l)
);
},
{
closed = 1;
nodes = (
(743,593,ls),
(762,747,o),
(736,855,o),
(669,920,cs),
(596,991,o),
(468,1020,o),
(306,1020,cs),
(245,1020,l),
(199,642,ls),
(174,436,o),
(194,282,o),
(255,176,cs),
(324,56,o),
(444,0,o),
(608,0,cs),
(670,0,l)
);
}
);
width = 1488;
}
);
note = v;
unicode = 118;
userData = {
KernOnName = v;
};
}
{
color = 9;
glyphname = w;
kernLeft = KO_u;
kernRight = KO_w;
layers = (
{
anchors = (
{
name = bottom;
pos = (1139,0);
},
{
name = top;
pos = (1265,1020);
}
);
layerId = m01;
shapes = (
{
closed = 1;
nodes = (
(1614,0,ls),
(1785,0,o),
(1910,38,o),
(1992,113,cs),
(2071,185,o),
(2115,299,o),
(2132,437,cs),
(2204,1020,l),
(1651,1020,l),
(1525,0,l)
);
},
{
closed = 1;
nodes = (
(165,364,o),
(166,303,o),
(175,249,cs),
(203,79,o),
(344,0,o),
(584,0,cs),
(673,0,l),
(799,1020,l),
(246,1020,l),
(174,437,ls)
);
},
{
closed = 1;
nodes = (
(1377,-1,l),
(1502,1019,l),
(946,1019,l),
(821,-1,l)
);
}
);
width = 2198;
}
);
note = w;
unicode = 119;
userData = {
KernOnName = w;
};
}
{
color = 9;
glyphname = x;
kernLeft = KO_x;
kernRight = KO_x;
layers = (
{
anchors = (
{
name = bottom;
pos = (698,0);
},
{
name = top;
pos = (823,1020);
}
);
layerId = m01;
shapes = (
{
closed = 1;
nodes = (
(572,0,l),
(606,279,l),
(882,0,l),
(1305,0,l),
(1318,106,ls),
(1332,220,o),
(1316,313,o),
(1290,352,cs),
(1276,373,o),
(1269,383,o),
(1264,394,cs),
(1253,418,o),
(1180,499,o),
(1031,650,c),
(1079,651,o),
(1123,654,o),
(1169,660,cs),
(1320,680,o),
(1399,764,o),
(1416,904,cs),
(1430,1020,l),
(949,1020,l),
(917,759,l),
(637,1020,l),
(215,1020,l),
(202,912,ls),
(187,787,o),
(202,700,o),
(245,645,c),
(516,370,l),
(464,370,o),
(413,368,o),
(369,364,cs),
(204,349,o),
(122,260,o),
(104,114,cs),
(90,0,l)
);
}
);
width = 1395;
}
);
note = x;
unicode = 120;
}
{
color = 9;
glyphname = y;
kernLeft = KO_u;
kernRight = KO_a;
layers = (
{
anchors = (
{
name = bottom;
pos = (757,0);
},
{
name = top;
pos = (883,1020);
}
);
layerId = m01;
shapes = (
{
closed = 1;
nodes = (
(947,1020,l),
(755,-540,l),
(817,-540,ls),
(1131,-540,o),
(1311,-385,o),
(1350,-68,cs),
(1484,1020,l)
);
},
{
closed = 1;
nodes = (
(165,364,o),
(166,303,o),
(175,249,cs),
(203,79,o),
(344,0,o),
(583,0,cs),
(673,0,l),
(799,1020,l),
(246,1020,l),
(174,437,ls)
);
}
);
width = 1483;
}
);
note = y;
unicode = 121;
}
{
color = 9;
glyphname = z;
kernLeft = KO_z;
kernRight = KO_z;
layers = (
{
anchors = (
{
name = bottom;
pos = (664,0);
},
{
name = center;
pos = (727,510);
},
{
name = top;
pos = (789,1020);
}
);
background = {
shapes = (
{
closed = 1;
nodes = (
(233,481,ls),
(162,418,o),
(127,354,o),
(127,261,cs),
(127,100,l),
(125,0,l),
(468,0,l),
(1106,542,l),
(1178,608,o),
(1214,681,o),
(1214,762,cs),
(1214,901,l),
(1215,1020,l),
(870,1020,l)
);
},
{
closed = 1;
nodes = (
(90,792,o),
(121,724,o),
(183,684,c),
(213,684,l),
(603,1020,l),
(118,1020,l),
(99,988,o),
(90,944,o),
(90,889,cs)
);
},
{
closed = 1;
nodes = (
(1237,224,o),
(1201,295,o),
(1129,346,c),
(726,0,l),
(1211,0,l),
(1228,31,o),
(1237,75,o),
(1237,131,cs)
);
}
);
};
layerId = m01;
shapes = (
{
closed = 1;
nodes = (
(291,480,ls),
(214,421,o),
(171,356,o),
(159,261,cs),
(139,100,l),
(125,0,l),
(468,0,l),
(1173,542,l),
(1257,612,o),
(1298,685,o),
(1308,765,cs),
(1325,901,l),
(1340,1020,l),
(995,1020,l)
);
},
{
closed = 1;
nodes = (
(1199,371,ls),
(1102,371,o),
(1021,348,o),
(959,297,cs),
(908,255,o),
(878,202,o),
(870,138,cs),
(853,0,l),
(1233,0,l),
(1279,371,l)
);
},
{
closed = 1;
nodes = (
(278,649,ls),
(381,649,o),
(461,675,o),
(521,726,cs),
(572,769,o),
(599,823,o),
(606,880,cs),
(623,1020,l),
(243,1020,l),
(198,649,l)
);
}
);
width = 1327;
}
);
note = z;
unicode = 122;
userData = {
KernOnName = z;
};
}
{
glyphname = braceleft;
kernLeft = KO_braceleft;
kernRight = KO_braceleft;
layers = (
{
layerId = m01;
shapes = (
{
closed = 1;
nodes = (
(650,-171,o),
(557,-134,o),
(567,-52,cs),
(572,-11,ls),
(577,28,o),
(581,53,o),
(593,121,cs),
(600,160,o),
(655,317,o),
(655,438,cs),
(655,543,o),
(612,605,o),
(522,618,c),
(524,632,l),
(632,645,o),
(693,726,o),
(711,868,cs),
(716,908,o),
(720,943,o),
(720,972,cs),
(720,1010,o),
(720,1034,o),
(716,1078,cs),
(713,1112,o),
(716,1164,o),
(725,1236,cs),
(731,1284,ls),
(736,1324,o),
(767,1359,o),
(826,1386,cs),
(881,1411,o),
(946,1421,o),
(1023,1421,cs),
(1063,1421,o),
(1120,1415,o),
(1196,1403,c),
(1219,1593,l),
(1178,1595,l),
(1122,1598,l),
(1051,1598,ls),
(731,1598,o),
(565,1487,o),
(539,1276,cs),
(535,1244,o),
(529,1191,o),
(529,1121,cs),
(529,1098,o),
(530,1077,o),
(534,1023,cs),
(536,994,o),
(534,943,o),
(526,870,cs),
(524,852,ls),
(520,816,o),
(504,783,o),
(472,756,cs),
(440,729,o),
(401,715,o),
(354,714,cs),
(259,712,l),
(237,535,l),
(332,535,ls),
(352,535,o),
(374,532,o),
(394,524,cs),
(449,502,o),
(475,459,o),
(468,397,cs),
(466,379,ls),
(459,315,o),
(444,248,o),
(421,180,cs),
(400,118,o),
(374,-32,o),
(374,-94,cs),
(374,-180,o),
(407,-242,o),
(468,-282,cs),
(543,-331,o),
(673,-349,o),
(770,-349,cs),
(829,-349,o),
(868,-348,o),
(891,-347,cs),
(938,-345,l),
(981,-343,l),
(1004,-154,l),
(931,-165,o),
(873,-171,o),
(831,-171,cs)
);
}
);
width = 1195;
}
);
note = braceleft;
unicode = 123;
userData = {
KernOnSpecialSpacing = {
R = parenthesis;
};
};
}
{
glyphname = bar;
layers = (
{
layerId = m01;
shapes = (
{
closed = 1;
nodes = (
(297,-170,l),
(527,1700,l),
(299,1700,l),
(69,-170,l)
);
}
);
userData = {
assembly = "PUSHW[ ]	/* 4 values pushed */
1 8 0 4
CALL[ ]	/* CallFunction */
SVTCA[0]	/* SetFreedomAndProjectionVectorToAxis */
PUSHW[ ]	/* 3 values pushed */
1 2 3
CALL[ ]	/* CallFunction */
IUP[0]	/* InterpolateUntPts */
IUP[1]	/* InterpolateUntPts */";
};
width = 408;
}
);
note = bar;
unicode = 124;
userData = {
KernOnSpecialSpacing = {
L = NoKerning;
R = NoKerning;
};
};
}
{
glyphname = braceright;
kernLeft = KO_braceright;
kernRight = KO_braceright;
layers = (
{
layerId = m01;
shapes = (
{
closed = 1;
nodes = (
(172,-345,l),
(229,-348,l),
(301,-349,ls),
(451,-351,o),
(573,-331,o),
(658,-282,cs),
(743,-233,o),
(792,-154,o),
(804,-66,cs),
(807,-44,o),
(818,44,o),
(818,133,cs),
(818,157,o),
(817,180,o),
(814,226,cs),
(812,253,o),
(814,306,o),
(822,379,cs),
(824,397,ls),
(828,433,o),
(844,466,o),
(877,494,cs),
(909,521,o),
(948,535,o),
(994,535,cs),
(1089,535,l),
(1111,712,l),
(1016,714,ls),
(987,715,o),
(969,719,o),
(954,725,cs),
(899,747,o),
(873,789,o),
(880,852,cs),
(882,870,ls),
(889,934,o),
(904,1000,o),
(927,1068,cs),
(949,1132,o),
(972,1266,o),
(972,1324,cs),
(972,1533,o),
(786,1601,o),
(537,1598,cs),
(454,1597,l),
(367,1593,l),
(343,1403,l),
(422,1415,o),
(490,1421,o),
(551,1421,cs),
(612,1421,o),
(664,1408,o),
(708,1386,cs),
(758,1361,o),
(784,1327,o),
(779,1286,cs),
(769,1204,ls),
(764,1163,o),
(755,1118,o),
(741,1072,cs),
(720,1001,ls),
(709,964,o),
(693,857,o),
(693,810,cs),
(693,703,o),
(737,643,o),
(826,632,c),
(824,618,l),
(717,603,o),
(655,524,o),
(637,382,cs),
(629,319,o),
(626,269,o),
(628,231,cs),
(632,158,ls),
(634,120,o),
(628,57,o),
(620,-9,cs),
(614,-58,ls),
(609,-99,o),
(571,-128,o),
(520,-146,cs),
(466,-165,o),
(405,-171,o),
(321,-171,cs),
(279,-171,o),
(223,-165,o),
(152,-154,c),
(129,-343,l)
);
}
);
width = 1195;
}
);
note = braceright;
unicode = 125;
userData = {
KernOnSpecialSpacing = {
L = parenthesis;
};
};
}
{
glyphname = asciitilde;
kernLeft = KO_asciitilde;
kernRight = KO_asciitilde;
layers = (
{
layerId = m01;
shapes = (
{
closed = 1;
nodes = (
(1087,613,l),
(1122,895,l),
(794,630,l),
(494,900,l),
(167,628,l),
(133,351,l),
(459,628,l),
(760,351,l)
);
}
);
width = 1102;
}
);
note = asciitilde;
unicode = 126;
userData = {
KernOnSpecialSpacing = {
L = math;
R = math;
};
};
}
{
glyphname = exclamdown;
kernLeft = KO_exclamdown;
kernRight = KO_exclamdown;
layers = (
{
layerId = m01;
shapes = (
{
closed = 1;
nodes = (
(418,1005,o),
(515,955,o),
(716,955,cs),
(932,955,o),
(1059,1015,o),
(1059,1190,cs),
(1059,1308,o),
(973,1361,o),
(777,1361,cs),
(555,1361,o),
(418,1289,o),
(418,1123,cs)
);
},
{
closed = 1;
nodes = (
(870,-339,l),
(956,682,l),
(405,682,l),
(240,-339,l)
);
}
);
width = 1194;
}
);
note = exclamdown;
unicode = 161;
userData = {
KernOnSpecialSpacing = {
R = "spaced-off";
};
};
}
{
glyphname = cent;
kernLeft = KO_cent;
kernRight = KO_cent;
layers = (
{
layerId = m01;
shapes = (
{
closed = 1;
nodes = (
(1343,1156,l),
(1416,1463,l),
(1151,1463,l),
(1080,1156,l)
);
},
{
closed = 1;
nodes = (
(1123,695,o),
(1157,597,o),
(1231,539,cs),
(1306,480,o),
(1440,449,o),
(1634,449,cs),
(1710,449,l),
(1780,1020,l),
(1163,1020,l),
(1141,841,ls)
);
},
{
closed = 1;
nodes = (
(275,301,o),
(313,208,o),
(382,138,cs),
(477,41,o),
(622,0,o),
(796,0,cs),
(871,0,l),
(996,1020,l),
(921,1020,ls),
(737,1020,o),
(588,968,o),
(473,869,cs),
(365,776,o),
(275,621,o),
(275,420,cs)
);
},
{
closed = 1;
nodes = (
(1208,0,ls),
(1314,0,o),
(1413,22,o),
(1501,76,cs),
(1579,124,o),
(1619,176,o),
(1626,230,cs),
(1630,261,l),
(1070,261,l),
(1038,0,l)
);
},
{
closed = 1;
nodes = (
(689,-450,l),
(953,-450,l),
(1020,-167,l),
(757,-167,l)
);
}
);
width = 1874;
}
);
note = cent;
unicode = 162;
userData = {
KernOnSpecialSpacing = {
L = symbols;
R = symbols;
};
};
}
{
glyphname = sterling;
kernLeft = KO_sterling;
kernRight = KO_sterling;
layers = (
{
layerId = m01;
shapes = (
{
closed = 1;
nodes = (
(1273,1182,o),
(1294,1102,o),
(1363,1054,cs),
(1438,1002,o),
(1575,992,o),
(1750,992,cs),
(1815,992,l),
(1861,1371,l),
(1295,1371,l),
(1290,1328,ls)
);
},
{
closed = 1;
nodes = (
(205,644,l),
(384,644,l),
(353,414,o),
(319,255,o),
(284,165,cs),
(241,55,o),
(117,0,o),
(186,0,cs),
(958,0,l),
(1037,644,l),
(1502,644,l),
(1523,811,l),
(1058,811,l),
(1126,1371,l),
(1053,1371,ls),
(701,1371,o),
(480,1191,o),
(408,811,c),
(226,811,l)
);
},
{
closed = 1;
nodes = (
(1781,-1,l),
(1834,434,l),
(1663,434,ls),
(1491,434,o),
(1364,399,o),
(1284,327,cs),
(1214,264,o),
(1177,162,o),
(1162,40,cs),
(1157,-1,l)
);
}
);
width = 1874;
}
);
note = sterling;
unicode = 163;
userData = {
KernOnSpecialSpacing = {
L = symbols;
R = symbols;
};
};
}
{
glyphname = currency;
layers = (
{
layerId = m01;
shapes = (
{
closed = 1;
nodes = (
(1608,1464,l),
(1237,1133,l),
(1189,1150,o),
(1136,1158,o),
(1078,1158,cs),
(1023,1158,o),
(966,1149,o),
(907,1129,c),
(613,1464,l),
(378,1257,l),
(657,939,l),
(617,879,o),
(584,788,o),
(584,679,cs),
(584,639,o),
(589,602,o),
(600,567,c),
(256,261,l),
(438,57,l),
(780,362,l),
(828,341,o),
(886,329,o),
(958,329,cs),
(1030,329,o),
(1096,343,o),
(1160,369,c),
(1437,57,l),
(1668,261,l),
(1397,569,l),
(1431,623,o),
(1460,718,o),
(1460,808,cs),
(1460,853,o),
(1453,899,o),
(1437,943,c),
(1790,1257,l)
);
},
{
closed = 1;
nodes = (
(812,849,o),
(932,940,o),
(1048,940,cs),
(1102,940,o),
(1150,923,o),
(1187,883,cs),
(1216,852,o),
(1232,815,o),
(1232,770,cs),
(1232,696,o),
(1195,642,o),
(1149,605,cs),
(1103,568,o),
(1050,549,o),
(990,549,cs),
(933,549,o),
(889,569,o),
(856,605,cs),
(825,639,o),
(812,678,o),
(812,719,cs)
);
}
);
width = 1874;
}
);
note = currency;
unicode = 164;
}
{
glyphname = yen;
kernRight = KO_yen;
layers = (
{
layerId = m01;
shapes = (
{
closed = 1;
nodes = (
(1680,1361,ls),
(1508,1361,o),
(1379,1327,o),
(1293,1260,cs),
(1207,1193,o),
(1157,1083,o),
(1139,936,cs),
(1126,829,l),
(952,829,l),
(965,936,ls),
(983,1086,o),
(960,1199,o),
(883,1267,cs),
(815,1327,o),
(700,1361,o),
(528,1361,cs),
(347,1361,l),
(337,1278,ls),
(309,1046,o),
(397,893,o),
(614,829,c),
(246,829,l),
(228,683,l),
(1807,683,l),
(1825,829,l),
(1468,829,l),
(1724,896,o),
(1854,1054,o),
(1881,1278,cs),
(1891,1361,l)
);
},
{
closed = 1;
nodes = (
(702,366,l),
(657,0,l),
(1217,0,l),
(1262,366,l),
(1770,366,l),
(1788,510,l),
(208,510,l),
(190,366,l)
);
}
);
width = 1874;
}
);
note = yen;
unicode = 165;
userData = {
KernOnSpecialSpacing = {
L = symbols;
R = symbols;
};
};
}
{
glyphname = brokenbar;
layers = (
{
layerId = m01;
shapes = (
{
closed = 1;
nodes = (
(443,1022,l),
(527,1700,l),
(299,1700,l),
(215,1022,l)
);
},
{
closed = 1;
nodes = (
(297,-170,l),
(380,508,l),
(152,508,l),
(69,-170,l)
);
}
);
userData = {
assembly = "PUSHW[ ]	/* 4 values pushed */
1 8 0 4
CALL[ ]	/* CallFunction */
PUSHW[ ]	/* 1 value pushed */
0
SRP0[ ]	/* SetRefPoint0 */
PUSHW[ ]	/* 1 value pushed */
4
MDRP[10000]	/* MoveDirectRelPt */
PUSHW[ ]	/* 1 value pushed */
1
SRP0[ ]	/* SetRefPoint0 */
PUSHW[ ]	/* 1 value pushed */
5
MDRP[10000]	/* MoveDirectRelPt */
SVTCA[0]	/* SetFreedomAndProjectionVectorToAxis */
PUSHW[ ]	/* 4 values pushed */
1 4 2 4
CALL[ ]	/* CallFunction */
IUP[0]	/* InterpolateUntPts */
IUP[1]	/* InterpolateUntPts */";
};
width = 408;
}
);
note = brokenbar;
unicode = 166;
}
{
glyphname = section;
kernLeft = KO_section;
layers = (
{
layerId = m01;
shapes = (
{
closed = 1;
nodes = (
(1783,1700,l),
(1166,1700,l),
(1699,1015,l)
);
},
{
closed = 1;
nodes = (
(1129,-339,l),
(1249,-339,o),
(1353,-313,o),
(1433,-255,cs),
(1513,-197,o),
(1561,-115,o),
(1574,-7,c),
(1318,344,l),
(1302,344,l),
(1352,350,o),
(1397,361,o),
(1438,378,cs),
(1564,430,o),
(1639,526,o),
(1657,672,c),
(907,1700,l),
(778,1700,o),
(678,1669,o),
(603,1613,cs),
(524,1554,o),
(479,1471,o),
(466,1366,c),
(720,1017,l),
(736,1017,l),
(634,1005,o),
(554,969,o),
(496,915,cs),
(434,857,o),
(394,780,o),
(382,680,c),
(388,680,l)
);
},
{
closed = 1;
nodes = (
(854,-340,l),
(345,349,l),
(260,-340,l)
);
}
);
width = 1707;
}
);
note = section;
unicode = 167;
userData = {
KernOnSpecialSpacing = {
R = symbols;
};
};
}
{
glyphname = dieresis;
layers = (
{
layerId = m01;
shapes = (
{
closed = 1;
nodes = (
(1297,1688,o),
(1273,1696,o),
(1248,1700,cs),
(1223,1704,o),
(1176,1706,o),
(1116,1706,cs),
(995,1706,o),
(894,1668,o),
(894,1498,cs),
(894,1395,o),
(960,1360,o),
(1146,1360,cs),
(1203,1360,o),
(1249,1371,o),
(1284,1394,cs),
(1325,1421,o),
(1357,1487,o),
(1357,1573,cs),
(1357,1617,o),
(1345,1653,o),
(1316,1674,cs)
);
},
{
closed = 1;
nodes = (
(679,1686,o),
(655,1694,o),
(629,1698,cs),
(603,1702,o),
(558,1704,o),
(497,1704,cs),
(377,1704,o),
(276,1666,o),
(276,1496,cs),
(276,1393,o),
(342,1358,o),
(528,1358,cs),
(587,1358,o),
(633,1370,o),
(667,1393,cs),
(704,1418,o),
(739,1480,o),
(739,1571,cs),
(739,1615,o),
(727,1650,o),
(699,1671,cs)
);
}
);
width = 1256;
}
);
note = dieresis;
unicode = 168;
}
{
glyphname = copyright;
kernLeft = KO_registered;
kernRight = KO_copyright;
layers = (
{
layerId = m01;
shapes = (
{
closed = 1;
nodes = (
(1654,-339,o),
(2230,23,o),
(2230,729,cs),
(2230,1225,o),
(1865,1528,o),
(1299,1528,cs),
(688,1528,o),
(139,1146,o),
(139,461,cs),
(139,-36,o),
(506,-339,o),
(1070,-339,cs)
);
},
{
closed = 1;
nodes = (
(634,-206,o),
(345,43,o),
(345,468,cs),
(345,1068,o),
(783,1393,o),
(1282,1393,cs),
(1739,1393,o),
(2025,1146,o),
(2025,722,cs),
(2025,120,o),
(1585,-206,o),
(1086,-206,cs)
);
},
{
closed = 1;
nodes = (
(1052,160,l),
(1158,1020,l),
(1092,1020,ls),
(815,1020,o),
(560,869,o),
(560,539,cs),
(560,302,o),
(728,160,o),
(986,160,cs)
);
},
{
closed = 1;
nodes = (
(1323,160,ls),
(1460,160,o),
(1657,230,o),
(1671,347,cs),
(1674,372,l),
(1206,372,l),
(1180,160,l)
);
},
{
closed = 1;
nodes = (
(1744,565,l),
(1800,1020,l),
(1286,1020,l),
(1269,885,ls),
(1236,623,o),
(1411,565,o),
(1678,565,cs)
);
}
);
width = 2222;
}
);
note = copyright;
unicode = 169;
userData = {
KernOnSpecialSpacing = {
R = symbols;
};
};
}
{
glyphname = ordfeminine;
kernLeft = KO_ordmasculine;
layers = (
{
layerId = m01;
shapes = (
{
closed = 1;
nodes = (
(1228,1007,o),
(1260,920,o),
(1337,848,cs),
(1424,767,o),
(1546,734,o),
(1690,735,cs),
(1790,736,l),
(1882,1487,l),
(1287,1487,l),
(1241,1113,ls)
);
},
{
closed = 1;
nodes = (
(1119,1487,l),
(1022,1487,ls),
(866,1487,o),
(738,1453,o),
(638,1380,cs),
(545,1312,o),
(474,1206,o),
(474,1067,cs),
(474,980,o),
(509,907,o),
(575,846,cs),
(654,773,o),
(768,733,o),
(924,735,cs),
(1027,736,l)
);
}
);
width = 2040;
}
);
note = ordfeminine;
unicode = 170;
userData = {
KernOnSpecialSpacing = {
L = superiors;
R = superiors;
};
};
}
{
glyphname = guillemetleft;
kernLeft = KO_guillemetleft;
kernRight = KO_guillemetleft;
layers = (
{
layerId = m01;
shapes = (
{
closed = 1;
nodes = (
(1926,-108,l),
(1956,138,l),
(1525,510,l),
(2047,878,l),
(2078,1128,l),
(1228,510,l)
);
},
{
closed = 1;
nodes = (
(1019,-108,l),
(1049,138,l),
(618,510,l),
(1140,878,l),
(1171,1128,l),
(321,510,l)
);
}
);
userData = {
assembly = "PUSHW[ ]	/* 4 values pushed */
1 7 11 4
CALL[ ]	/* CallFunction */
PUSHW[ ]	/* 1 value pushed */
1
SRP0[ ]	/* SetRefPoint0 */
PUSHW[ ]	/* 1 value pushed */
3
MDRP[10000]	/* MoveDirectRelPt */
PUSHW[ ]	/* 1 value pushed */
1
SRP0[ ]	/* SetRefPoint0 */
PUSHW[ ]	/* 1 value pushed */
13
MDRP[11100]	/* MoveDirectRelPt */
SVTCA[0]	/* SetFreedomAndProjectionVectorToAxis */
PUSHW[ ]	/* 3 values pushed */
0 4 3
CALL[ ]	/* CallFunction */
IUP[0]	/* InterpolateUntPts */
IUP[1]	/* InterpolateUntPts */";
};
width = 2224;
}
);
note = guillemotleft;
unicode = 171;
userData = {
KernOnSpecialSpacing = {
L = quotes;
R = quotes;
};
};
}
{
glyphname = registered;
kernLeft = KO_registered;
kernRight = KO_copyright;
layers = (
{
layerId = m01;
shapes = (
{
closed = 1;
nodes = (
(506,-339,o),
(1070,-339,cs),
(1654,-339,o),
(2230,23,o),
(2230,729,cs),
(2230,1225,o),
(1865,1528,o),
(1299,1528,cs),
(688,1528,o),
(139,1146,o),
(139,461,cs),
(139,-36,o)
);
},
{
closed = 1;
nodes = (
(345,1068,o),
(783,1393,o),
(1282,1393,cs),
(1739,1393,o),
(2025,1146,o),
(2025,722,cs),
(2025,120,o),
(1585,-206,o),
(1086,-206,cs),
(634,-206,o),
(345,43,o),
(345,468,cs)
);
},
{
closed = 1;
nodes = (
(1784,982,o),
(1642,1020,o),
(1454,1020,cs),
(1249,1020,l),
(1143,159,l),
(1684,159,l),
(1700,290,ls),
(1726,503,o),
(1587,531,o),
(1431,536,c),
(1630,560,o),
(1784,647,o),
(1784,823,cs)
);
},
{
closed = 1;
nodes = (
(1021,160,l),
(1127,1020,l),
(658,1020,l),
(552,160,l)
);
}
);
width = 2222;
}
);
note = registered;
unicode = 174;
userData = {
KernOnSpecialSpacing = {
L = superiors;
};
};
}
{
glyphname = macron;
layers = (
{
layerId = m01;
shapes = (
{
closed = 1;
nodes = (
(1079,1200,l),
(1106,1417,l),
(264,1417,l),
(237,1200,l)
);
}
);
userData = {
assembly = "SVTCA[0]	/* SetFreedomAndProjectionVectorToAxis */
PUSHW[ ]	/* 4 values pushed */
1 1 2 4
CALL[ ]	/* CallFunction */
IUP[0]	/* InterpolateUntPts */
IUP[1]	/* InterpolateUntPts */";
};
width = 1022;
}
);
note = macron;
unicode = 175;
}
{
glyphname = degree;
kernLeft = KO_degree;
kernRight = KO_degree;
layers = (
{
layerId = m01;
shapes = (
{
closed = 1;
nodes = (
(852,1171,o),
(962,1210,o),
(1055,1283,cs),
(1157,1363,o),
(1231,1485,o),
(1231,1653,cs),
(1231,1747,o),
(1204,1827,o),
(1142,1892,cs),
(1070,1967,o),
(972,2000,o),
(853,2000,cs),
(726,2000,o),
(617,1962,o),
(526,1889,cs),
(430,1812,o),
(355,1692,o),
(355,1519,cs),
(355,1424,o),
(383,1344,o),
(441,1281,cs),
(510,1206,o),
(612,1171,o),
(724,1171,cs)
);
},
{
closed = 1;
nodes = (
(704,1391,o),
(660,1411,o),
(627,1447,cs),
(596,1481,o),
(583,1520,o),
(583,1561,cs),
(583,1691,o),
(703,1782,o),
(819,1782,cs),
(873,1782,o),
(921,1765,o),
(958,1725,cs),
(987,1694,o),
(1003,1657,o),
(1003,1612,cs),
(1003,1540,o),
(968,1487,o),
(922,1449,cs),
(876,1411,o),
(817,1391,o),
(762,1391,cs)
);
}
);
width = 1195;
}
);
note = degree;
unicode = 176;
userData = {
KernOnSpecialSpacing = {
L = superiors;
R = superiors;
};
};
}
{
glyphname = plusminus;
kernLeft = KO_plusminus;
kernRight = KO_plusminus;
layers = (
{
layerId = m01;
shapes = (
{
closed = 1;
nodes = (
(766,669,l),
(728,358,l),
(898,358,l),
(936,669,l),
(1361,669,l),
(1382,840,l),
(957,840,l),
(1013,1298,l),
(843,1298,l),
(787,840,l),
(362,840,l),
(341,669,l)
);
},
{
closed = 1;
nodes = (
(1279,-1,l),
(1300,171,l),
(279,171,l),
(258,-1,l)
);
}
);
userData = {
assembly = "PUSHW[ ]	/* 4 values pushed */
4 8 1 4
CALL[ ]	/* CallFunction */
PUSHW[ ]	/* 1 value pushed */
4
SRP0[ ]	/* SetRefPoint0 */
PUSHW[ ]	/* 1 value pushed */
7
MDRP[10000]	/* MoveDirectRelPt */
PUSHW[ ]	/* 1 value pushed */
1
SRP0[ ]	/* SetRefPoint0 */
PUSHW[ ]	/* 1 value pushed */
9
MDRP[10000]	/* MoveDirectRelPt */
SVTCA[0]	/* SetFreedomAndProjectionVectorToAxis */
PUSHW[ ]	/* 1 value pushed */
0
RCVT[ ]	/* ReadCVT */
IF[ ]	/* If */
PUSHW[ ]	/* 1 value pushed */
14
MDAP[1]	/* MoveDirectAbsPt */
ELSE[ ]	/* Else */
PUSHW[ ]	/* 2 values pushed */
14 14
MIAP[0]	/* MoveIndirectAbsPt */
EIF[ ]	/* EndIf */
PUSHW[ ]	/* 4 values pushed */
5 2 6 4
CALL[ ]	/* CallFunction */
PUSHW[ ]	/* 1 value pushed */
5
SRP0[ ]	/* SetRefPoint0 */
PUSHW[ ]	/* 1 value pushed */
0
MDRP[10000]	/* MoveDirectRelPt */
PUSHW[ ]	/* 1 value pushed */
6
SRP0[ ]	/* SetRefPoint0 */
PUSHW[ ]	/* 1 value pushed */
10
MDRP[10000]	/* MoveDirectRelPt */
PUSHW[ ]	/* 1 value pushed */
14
SRP0[ ]	/* SetRefPoint0 */
PUSHW[ ]	/* 2 values pushed */
12 2
MIRP[10100]	/* MoveIndirectRelPt */
IUP[0]	/* InterpolateUntPts */
IUP[1]	/* InterpolateUntPts */";
};
width = 1538;
}
);
note = plusminus;
unicode = 177;
userData = {
KernOnSpecialSpacing = {
L = math;
R = math;
};
};
}
{
glyphname = twosuperior;
kernLeft = KO_twosuperior;
kernRight = KO_twosuperior;
layers = (
{
layerId = m01;
shapes = (
{
closed = 1;
nodes = (
(1265,1259,ls),
(1466,1259,o),
(1610,1368,o),
(1610,1624,cs),
(1610,1649,o),
(1608,1673,o),
(1604,1694,cs),
(1581,1817,o),
(1482,1870,o),
(1325,1870,cs),
(1163,1870,l),
(1088,1259,l)
);
},
{
closed = 1;
nodes = (
(961,1450,l),
(1012,1870,l),
(805,1870,ls),
(732,1870,o),
(667,1846,o),
(609,1797,cs),
(551,1748,o),
(515,1683,o),
(505,1600,cs),
(487,1450,l)
);
},
{
closed = 1;
nodes = (
(887,850,l),
(945,1320,l),
(780,1320,ls),
(734,1320,o),
(686,1314,o),
(643,1299,cs),
(520,1256,o),
(455,1160,o),
(439,1023,cs),
(419,850,l)
);
},
{
closed = 1;
nodes = (
(1486,850,l),
(1517,1106,l),
(1069,1106,l),
(1038,850,l)
);
}
);
width = 1700;
}
);
note = twosuperior;
unicode = 178;
userData = {
KernOnSpecialSpacing = {
L = superiors;
R = superiors;
};
};
}
{
glyphname = threesuperior;
kernLeft = KO_threesuperior;
kernRight = KO_threesuperior;
layers = (
{
layerId = m01;
shapes = (
{
closed = 1;
nodes = (
(1640,1785,o),
(1515,1866,o),
(1268,1866,cs),
(1149,1866,l),
(1095,1431,l),
(935,1431,l),
(920,1306,l),
(1080,1306,l),
(1024,850,l),
(1157,850,ls),
(1449,850,o),
(1618,969,o),
(1618,1154,cs),
(1618,1173,o),
(1614,1192,o),
(1606,1210,cs),
(1572,1288,o),
(1482,1338,o),
(1340,1364,c),
(1529,1399,o),
(1640,1465,o),
(1640,1622,cs)
);
},
{
closed = 1;
nodes = (
(952,1522,l),
(995,1866,l),
(830,1866,ls),
(590,1866,o),
(457,1769,o),
(432,1576,cs),
(425,1522,l)
);
},
{
closed = 1;
nodes = (
(912,1194,l),
(385,1194,l),
(379,1144,ls),
(355,944,o),
(469,850,o),
(705,850,cs),
(870,850,l)
);
}
);
width = 1698;
}
);
note = threesuperior;
unicode = 179;
userData = {
KernOnSpecialSpacing = {
L = superiors;
R = superiors;
};
};
}
{
glyphname = acute;
layers = (
{
layerId = m01;
shapes = (
{
closed = 1;
nodes = (
(1013,1699,l),
(850,1886,l),
(265,1429,l),
(302,1387,ls),
(337,1347,o),
(392,1332,o),
(460,1332,cs),
(536,1332,o),
(655,1380,o),
(765,1478,cs)
);
}
);
width = 895;
}
);
note = acute;
unicode = 180;
}
{
glyphname = micro;
kernLeft = KO_micro;
kernRight = KO_micro;
layers = (
{
layerId = m01;
shapes = (
{
closed = 1;
nodes = (
(1569,0,l),
(1694,1020,l),
(1138,1020,l),
(1013,0,l)
);
},
{
closed = 1;
nodes = (
(785,-510,l),
(973,1020,l),
(420,1020,l),
(232,-510,l)
);
}
);
userData = {
assembly = "PUSHW[ ]	/* 1 value pushed */
8
MDAP[1]	/* MoveDirectAbsPt */
PUSHW[ ]	/* 1 value pushed */
0
MDAP[1]	/* MoveDirectAbsPt */
PUSHW[ ]	/* 2 values pushed */
1 11
MIRP[10100]	/* MoveIndirectRelPt */
PUSHW[ ]	/* 1 value pushed */
8
SRP0[ ]	/* SetRefPoint0 */
PUSHW[ ]	/* 1 value pushed */
4
MDRP[10000]	/* MoveDirectRelPt */
PUSHW[ ]	/* 1 value pushed */
4
MDAP[1]	/* MoveDirectAbsPt */
PUSHW[ ]	/* 2 values pushed */
5 11
MIRP[10100]	/* MoveIndirectRelPt */
PUSHW[ ]	/* 1 value pushed */
1
SRP0[ ]	/* SetRefPoint0 */
PUSHW[ ]	/* 1 value pushed */
9
MDRP[11100]	/* MoveDirectRelPt */
SVTCA[0]	/* SetFreedomAndProjectionVectorToAxis */
PUSHW[ ]	/* 1 value pushed */
0
RCVT[ ]	/* ReadCVT */
IF[ ]	/* If */
PUSHW[ ]	/* 1 value pushed */
0
MDAP[1]	/* MoveDirectAbsPt */
ELSE[ ]	/* Else */
PUSHW[ ]	/* 2 values pushed */
0 18
MIAP[0]	/* MoveIndirectAbsPt */
EIF[ ]	/* EndIf */
PUSHW[ ]	/* 1 value pushed */
0
RCVT[ ]	/* ReadCVT */
IF[ ]	/* If */
PUSHW[ ]	/* 1 value pushed */
4
MDAP[1]	/* MoveDirectAbsPt */
ELSE[ ]	/* Else */
PUSHW[ ]	/* 2 values pushed */
4 18
MIAP[0]	/* MoveIndirectAbsPt */
EIF[ ]	/* EndIf */
IUP[0]	/* InterpolateUntPts */
IUP[1]	/* InterpolateUntPts */";
};
width = 1874;
}
);
note = mu;
unicode = 181;
}
{
glyphname = paragraph;
layers = (
{
layerId = m01;
shapes = (
{
closed = 1;
nodes = (
(1688,-171,l),
(1897,1530,l),
(1359,1530,l),
(1150,-171,l)
);
},
{
closed = 1;
nodes = (
(1179,1530,l),
(1105,1530,ls),
(908,1530,o),
(753,1467,o),
(637,1342,cs),
(534,1231,o),
(447,1053,o),
(447,847,cs),
(447,733,o),
(478,627,o),
(544,531,cs),
(634,400,o),
(765,340,o),
(931,340,cs),
(1033,340,l)
);
}
);
width = 2047;
}
);
note = paragraph;
unicode = 182;
userData = {
KernOnSpecialSpacing = {
L = NoKerning;
R = NoKerning;
};
};
}
{
glyphname = periodcentered;
layers = (
{
layerId = m01;
shapes = (
{
closed = 1;
nodes = (
(710,444,o),
(827,514,o),
(827,683,cs),
(827,802,o),
(731,850,o),
(533,850,cs),
(317,850,o),
(187,788,o),
(187,622,cs),
(187,504,o),
(289,444,o),
(494,444,cs)
);
}
);
width = 854;
}
);
note = periodcentered;
unicode = 183;
userData = {
KernOnSpecialSpacing = {
L = NoKerning;
R = NoKerning;
};
};
}
{
glyphname = cedilla;
layers = (
{
layerId = m01;
shapes = (
{
closed = 1;
nodes = (
(588,-259,l),
(425,-9,l),
(204,-157,ls),
(113,-218,o),
(63,-277,o),
(49,-335,cs),
(42,-364,o),
(53,-396,o),
(74,-429,cs),
(156,-556,l)
);
}
);
width = 710;
}
);
note = cedilla;
unicode = 184;
}
{
glyphname = onesuperior;
kernLeft = KO_onesuperior;
kernRight = KO_onesuperior;
layers = (
{
layerId = m01;
shapes = (
{
closed = 1;
nodes = (
(981,850,l),
(1118,1962,l),
(541,1819,l),
(422,850,l)
);
}
);
userData = {
assembly = "PUSHW[ ]	/* 4 values pushed */
1 12 0 4
CALL[ ]	/* CallFunction */
SVTCA[0]	/* SetFreedomAndProjectionVectorToAxis */
PUSHW[ ]	/* 3 values pushed */
1 2 3
CALL[ ]	/* CallFunction */
IUP[0]	/* InterpolateUntPts */
IUP[1]	/* InterpolateUntPts */";
};
width = 1195;
}
);
note = onesuperior;
unicode = 185;
userData = {
KernOnSpecialSpacing = {
L = superiors;
R = superiors;
};
};
}
{
glyphname = ordmasculine;
kernLeft = KO_ordmasculine;
layers = (
{
layerId = m01;
shapes = (
{
closed = 1;
nodes = (
(1297,735,ls),
(1485,733,o),
(1604,792,o),
(1680,851,cs),
(1774,924,o),
(1840,1024,o),
(1840,1159,cs),
(1840,1249,o),
(1806,1323,o),
(1741,1381,cs),
(1658,1455,o),
(1536,1487,o),
(1385,1487,cs),
(1288,1487,l),
(1196,736,l)
);
},
{
closed = 1;
nodes = (
(1120,1487,l),
(1023,1487,ls),
(872,1487,o),
(740,1455,o),
(637,1379,cs),
(545,1311,o),
(475,1204,o),
(475,1067,cs),
(475,981,o),
(509,910,o),
(570,851,cs),
(656,768,o),
(779,734,o),
(925,735,cs),
(1028,736,l)
);
}
);
width = 2040;
}
);
note = ordmasculine;
unicode = 186;
userData = {
KernOnSpecialSpacing = {
L = superiors;
R = superiors;
};
};
}
{
glyphname = guillemetright;
kernLeft = KO_guillemetright;
kernRight = KO_guillemetright;
layers = (
{
layerId = m01;
shapes = (
{
closed = 1;
nodes = (
(1963,510,l),
(1265,1128,l),
(1234,878,l),
(1666,510,l),
(1143,138,l),
(1113,-108,l)
);
},
{
closed = 1;
nodes = (
(1122,510,l),
(424,1128,l),
(393,878,l),
(825,510,l),
(302,138,l),
(272,-108,l)
);
}
);
userData = {
assembly = "PUSHW[ ]	/* 4 values pushed */
4 7 8 4
CALL[ ]	/* CallFunction */
PUSHW[ ]	/* 1 value pushed */
8
SRP0[ ]	/* SetRefPoint0 */
PUSHW[ ]	/* 1 value pushed */
6
MDRP[10000]	/* MoveDirectRelPt */
PUSHW[ ]	/* 1 value pushed */
4
SRP0[ ]	/* SetRefPoint0 */
PUSHW[ ]	/* 1 value pushed */
13
MDRP[11100]	/* MoveDirectRelPt */
SVTCA[0]	/* SetFreedomAndProjectionVectorToAxis */
PUSHW[ ]	/* 3 values pushed */
3 5 3
CALL[ ]	/* CallFunction */
IUP[0]	/* InterpolateUntPts */
IUP[1]	/* InterpolateUntPts */";
};
width = 2224;
}
);
note = guillemotright;
unicode = 187;
userData = {
KernOnSpecialSpacing = {
L = quotes;
R = quotes;
};
};
}
{
glyphname = onequarter;
layers = (
{
layerId = m01;
shapes = (
{
closed = 1;
nodes = (
(1395,850,l),
(1531,1962,l),
(955,1819,l),
(836,850,l)
);
},
{
closed = 1;
nodes = (
(912,-255,l),
(1006,510,l),
(892,510,ls),
(778,510,o),
(689,492,o),
(623,460,cs),
(559,429,o),
(520,388,o),
(481,310,cs),
(460,268,o),
(446,202,o),
(437,128,cs),
(390,-255,l)
);
},
{
closed = 1;
nodes = (
(1036,-510,l),
(1555,-510,l),
(1648,252,l),
(1129,252,l)
);
}
);
width = 2038;
}
);
note = onequarter;
unicode = 188;
userData = {
KernOnSpecialSpacing = {
L = NoKerning;
R = NoKerning;
};
};
}
{
glyphname = onehalf;
layers = (
{
layerId = m01;
shapes = (
{
closed = 1;
nodes = (
(1400,850,l),
(1537,1962,l),
(960,1819,l),
(841,850,l)
);
},
{
closed = 1;
nodes = (
(1255,-101,ls),
(1456,-101,o),
(1600,8,o),
(1600,264,cs),
(1600,289,o),
(1598,313,o),
(1594,334,cs),
(1571,457,o),
(1472,510,o),
(1315,510,cs),
(1153,510,l),
(1078,-101,l)
);
},
{
closed = 1;
nodes = (
(951,90,l),
(1002,510,l),
(795,510,ls),
(722,510,o),
(657,486,o),
(599,437,cs),
(541,388,o),
(505,323,o),
(495,240,cs),
(477,90,l)
);
},
{
closed = 1;
nodes = (
(877,-510,l),
(935,-40,l),
(770,-40,ls),
(724,-40,o),
(676,-46,o),
(633,-61,cs),
(510,-104,o),
(445,-200,o),
(429,-337,cs),
(409,-510,l)
);
},
{
closed = 1;
nodes = (
(1028,-510,l),
(1476,-510,l),
(1507,-254,l),
(1059,-254,l)
);
}
);
width = 2038;
}
);
note = onehalf;
unicode = 189;
userData = {
KernOnSpecialSpacing = {
L = NoKerning;
R = NoKerning;
};
};
}
{
glyphname = threequarters;
layers = (
{
layerId = m01;
shapes = (
{
closed = 1;
nodes = (
(1818,1785,o),
(1693,1866,o),
(1445,1866,cs),
(1326,1866,l),
(1273,1431,l),
(1113,1431,l),
(1098,1306,l),
(1258,1306,l),
(1202,850,l),
(1335,850,ls),
(1628,850,o),
(1796,969,o),
(1796,1156,cs),
(1796,1173,o),
(1793,1192,o),
(1784,1212,cs),
(1751,1285,o),
(1666,1337,o),
(1518,1364,c),
(1707,1399,o),
(1818,1465,o),
(1818,1622,cs)
);
},
{
closed = 1;
nodes = (
(1130,1522,l),
(1172,1866,l),
(1007,1866,ls),
(769,1866,o),
(634,1770,o),
(609,1570,cs),
(603,1522,l)
);
},
{
closed = 1;
nodes = (
(1090,1194,l),
(563,1194,l),
(557,1146,ls),
(532,946,o),
(644,850,o),
(883,850,cs),
(1048,850,l)
);
},
{
closed = 1;
nodes = (
(906,-255,l),
(1000,510,l),
(886,510,ls),
(772,510,o),
(683,492,o),
(617,460,cs),
(553,429,o),
(514,388,o),
(475,310,cs),
(454,268,o),
(440,202,o),
(431,128,cs),
(384,-255,l)
);
},
{
closed = 1;
nodes = (
(1030,-510,l),
(1549,-510,l),
(1642,252,l),
(1123,252,l)
);
}
);
width = 2038;
}
);
note = threequarters;
unicode = 190;
userData = {
KernOnSpecialSpacing = {
L = NoKerning;
R = NoKerning;
};
};
}
{
glyphname = questiondown;
kernLeft = KO_questiondown;
kernRight = KO_questiondown;
layers = (
{
layerId = m01;
shapes = (
{
closed = 1;
nodes = (
(1214,1500,o),
(1287,1517,o),
(1346,1548,cs),
(1412,1583,o),
(1451,1637,o),
(1451,1701,cs),
(1451,1749,o),
(1423,1788,o),
(1370,1819,cs),
(1312,1853,o),
(1237,1869,o),
(1148,1869,cs),
(1057,1869,o),
(985,1852,o),
(927,1820,cs),
(862,1784,o),
(822,1733,o),
(822,1666,cs),
(822,1617,o),
(850,1577,o),
(904,1547,cs),
(958,1517,o),
(1029,1500,o),
(1122,1500,cs)
);
},
{
closed = 1;
nodes = (
(352,281,o),
(377,188,o),
(432,114,cs),
(510,9,o),
(634,-38,o),
(791,-38,cs),
(868,-38,l),
(993,982,l),
(941,982,ls),
(778,982,o),
(639,938,o),
(531,840,cs),
(434,752,o),
(352,598,o),
(352,387,cs)
);
},
{
closed = 1;
nodes = (
(1082,-38,ls),
(1174,-38,o),
(1251,-28,o),
(1315,-8,cs),
(1498,49,o),
(1599,192,o),
(1626,417,cs),
(1639,525,l),
(1085,525,l),
(1016,-38,l)
);
}
);
width = 1874;
}
);
note = questiondown;
unicode = 191;
userData = {
KernOnSpecialSpacing = {
R = "spaced-off";
};
};
}
{
color = 9;
glyphname = AE;
kernLeft = KO_A;
kernRight = KO_AE;
layers = (
{
anchors = (
{
name = bottom;
pos = (1101,0);
},
{
name = top;
pos = (1268,1361);
}
);
layerId = m01;
shapes = (
{
closed = 1;
nodes = (
(1714,1237,o),
(1717,1180,o),
(1733,1137,cs),
(1774,1030,o),
(1916,983,o),
(2134,983,cs),
(2238,983,l),
(2284,1361,l),
(1729,1361,l),
(1722,1303,ls)
);
},
{
closed = 1;
nodes = (
(1389,2,l),
(1457,552,l),
(1858,552,l),
(1890,813,l),
(1489,813,l),
(1556,1361,l),
(1018,1361,l),
(851,2,l)
);
},
{
closed = 1;
nodes = (
(2117,0,l),
(2167,406,l),
(2088,406,ls),
(1991,406,o),
(1909,397,o),
(1843,377,cs),
(1684,329,o),
(1590,237,o),
(1573,98,cs),
(1561,0,l)
);
},
{
closed = 1;
nodes = (
(1257,462,l),
(1278,639,l),
(436,639,l),
(415,462,l)
);
},
{
closed = 1;
nodes = (
(780,1361,ls),
(617,1361,o),
(485,1306,o),
(387,1189,cs),
(295,1079,o),
(238,921,o),
(213,717,cs),
(125,0,l),
(186,0,ls),
(363,0,o),
(494,32,o),
(582,100,cs),
(669,167,o),
(719,278,o),
(737,424,cs),
(852,1361,l)
);
}
);
width = 2242;
}
);
note = AE;
unicode = 198;
}
{
glyphname = multiply;
kernLeft = KO_multiply;
kernRight = KO_multiply;
layers = (
{
layerId = m01;
shapes = (
{
closed = 1;
nodes = (
(452,93,l),
(820,420,l),
(1108,93,l),
(1261,229,l),
(973,556,l),
(1341,884,l),
(1221,1020,l),
(853,692,l),
(566,1020,l),
(413,884,l),
(700,556,l),
(333,229,l)
);
}
);
userData = {
assembly = "PUSHW[ ]	/* 4 values pushed */
5 10 1 4
CALL[ ]	/* CallFunction */
PUSHW[ ]	/* 1 value pushed */
5
SRP0[ ]	/* SetRefPoint0 */
PUSHW[ ]	/* 1 value pushed */
13
MDRP[11100]	/* MoveDirectRelPt */
SVTCA[0]	/* SetFreedomAndProjectionVectorToAxis */
PUSHW[ ]	/* 1 value pushed */
0
RCVT[ ]	/* ReadCVT */
IF[ ]	/* If */
PUSHW[ ]	/* 1 value pushed */
2
MDAP[1]	/* MoveDirectAbsPt */
ELSE[ ]	/* Else */
PUSHW[ ]	/* 2 values pushed */
2 18
MIAP[0]	/* MoveIndirectAbsPt */
EIF[ ]	/* EndIf */
PUSHW[ ]	/* 1 value pushed */
0
RCVT[ ]	/* ReadCVT */
IF[ ]	/* If */
PUSHW[ ]	/* 1 value pushed */
4
MDAP[1]	/* MoveDirectAbsPt */
ELSE[ ]	/* Else */
PUSHW[ ]	/* 2 values pushed */
4 18
MIAP[0]	/* MoveIndirectAbsPt */
EIF[ ]	/* EndIf */
IUP[0]	/* InterpolateUntPts */
IUP[1]	/* InterpolateUntPts */";
};
width = 1538;
}
);
note = multiply;
unicode = 215;
userData = {
KernOnSpecialSpacing = {
L = math;
R = math;
};
};
}
{
color = 9;
glyphname = Thorn;
kernLeft = KO_H;
kernRight = KO_Thorn;
layers = (
{
layerId = m01;
shapes = (
{
closed = 1;
nodes = (
(663,2,l),
(830,1361,l),
(292,1361,l),
(125,2,l)
);
},
{
closed = 1;
nodes = (
(961,249,ls),
(1325,249,o),
(1569,401,o),
(1569,744,cs),
(1569,786,o),
(1564,826,o),
(1554,860,cs),
(1507,1021,o),
(1338,1104,o),
(1038,1104,cs),
(964,1104,l),
(859,249,l)
);
}
);
width = 1552;
}
);
note = Thorn;
unicode = 222;
}
{
color = 9;
glyphname = germandbls;
kernLeft = KO_germandbls;
kernRight = KO_germandbls;
layers = (
{
layerId = m01;
shapes = (
{
closed = 1;
nodes = (
(1048,0,ls),
(1223,0,o),
(1356,39,o),
(1453,114,cs),
(1550,189,o),
(1623,319,o),
(1623,482,cs),
(1623,511,o),
(1620,540,o),
(1612,566,cs),
(1578,676,o),
(1474,745,o),
(1297,771,c),
(1392,798,o),
(1466,845,o),
(1519,908,cs),
(1567,965,o),
(1604,1053,o),
(1604,1121,cs),
(1604,1149,o),
(1596,1179,o),
(1580,1208,cs),
(1521,1315,o),
(1387,1361,o),
(1200,1361,cs),
(1123,1361,l),
(956,0,l)
);
},
{
closed = 1;
nodes = (
(808,0,l),
(975,1361,l),
(885,1361,ls),
(724,1361,o),
(596,1326,o),
(510,1249,cs),
(433,1180,o),
(385,1071,o),
(368,924,cs),
(359,847,l),
(194,847,l),
(173,680,l),
(338,680,l),
(255,0,l)
);
}
);
width = 1638;
}
);
note = germandbls;
unicode = 223;
}
{
color = 4;
glyphname = ae;
kernLeft = KO_a;
kernRight = KO_e;
layers = (
{
anchors = (
{
name = bottom;
pos = (1048,0);
},
{
name = top;
pos = (1173,1020);
}
);
layerId = m01;
shapes = (
{
closed = 1;
nodes = (
(2102,457,l),
(2115,563,ls),
(2125,644,o),
(2124,711,o),
(2112,767,cs),
(2077,937,o),
(1932,1020,o),
(1683,1020,cs),
(1617,1020,l),
(1548,457,l)
);
},
{
closed = 1;
nodes = (
(823,253,o),
(849,151,o),
(919,90,cs),
(990,28,o),
(1114,0,o),
(1281,0,cs),
(1344,0,l),
(1469,1020,l),
(917,1020,l),
(840,392,ls)
);
},
{
closed = 1;
nodes = (
(131,338,o),
(144,224,o),
(218,139,cs),
(298,47,o),
(422,0,o),
(592,0,cs),
(644,0,l),
(769,1020,l),
(692,1020,ls),
(533,1020,o),
(393,972,o),
(288,860,cs),
(196,762,o),
(131,589,o),
(131,498,cs)
);
},
{
closed = 1;
nodes = (
(1692,0,ls),
(1795,0,o),
(1875,26,o),
(1935,77,cs),
(1985,119,o),
(2013,173,o),
(2020,229,cs),
(2024,261,l),
(1524,261,l),
(1492,0,l)
);
}
);
width = 2116;
}
);
note = ae;
unicode = 230;
}
{
color = 9;
glyphname = eth;
kernLeft = KO_eth;
kernRight = KO_eth;
layers = (
{
layerId = m01;
shapes = (
{
closed = 1;
nodes = (
(1824,1486,l),
(1797,1676,l),
(1471,1592,l),
(1398,1712,o),
(1289,1771,o),
(1143,1771,cs),
(1065,1771,l),
(1030,1484,l),
(1049,1484,l),
(698,1395,l),
(724,1206,l),
(1005,1277,l),
(848,0,l),
(926,0,ls),
(997,0,o),
(1058,16,o),
(1113,44,cs),
(1223,100,o),
(1315,194,o),
(1388,324,cs),
(1489,504,o),
(1588,792,o),
(1588,1097,cs),
(1588,1205,o),
(1575,1311,o),
(1548,1412,c),
(1531,1412,l)
);
},
{
closed = 1;
nodes = (
(191,288,o),
(226,204,o),
(283,139,cs),
(364,46,o),
(489,0,o),
(657,0,cs),
(709,0,l),
(834,1020,l),
(757,1020,ls),
(598,1020,o),
(464,972,o),
(361,868,cs),
(265,771,o),
(191,617,o),
(191,390,cs)
);
}
);
width = 1534;
}
);
note = eth;
unicode = 240;
}
{
glyphname = divide;
kernLeft = KO_divide;
kernRight = KO_divide;
layers = (
{
layerId = m01;
shapes = (
{
closed = 1;
nodes = (
(801,1156,o),
(739,1101,o),
(726,990,cs),
(713,879,o),
(764,827,o),
(871,827,cs),
(981,827,o),
(1058,889,o),
(1058,1026,cs),
(1058,1112,o),
(1009,1156,o),
(911,1156,cs)
);
},
{
closed = 1;
nodes = (
(1303,469,l),
(1326,660,l),
(374,660,l),
(351,469,l)
);
},
{
closed = 1;
nodes = (
(875,-30,o),
(953,29,o),
(953,175,cs),
(953,259,o),
(902,301,o),
(806,301,cs),
(697,301,o),
(619,240,o),
(619,101,cs),
(619,14,o),
(668,-30,o),
(766,-30,cs)
);
}
);
width = 1538;
}
);
note = divide;
unicode = 247;
userData = {
KernOnSpecialSpacing = {
L = math;
R = math;
};
};
}
{
color = 9;
glyphname = oslash;
kernLeft = KO_oslash;
kernRight = KO_oslash;
layers = (
{
anchors = (
{
name = top;
pos = (892,1020);
}
);
layerId = m01;
shapes = (
{
closed = 1;
nodes = (
(1678,1054,l),
(1541,1208,l),
(1284,972,l),
(1221,1006,o),
(1141,1020,o),
(1050,1020,cs),
(973,1020,l),
(848,0,l),
(900,0,ls),
(1064,0,o),
(1201,44,o),
(1306,137,cs),
(1402,222,o),
(1489,375,o),
(1489,589,cs),
(1489,675,o),
(1472,756,o),
(1434,830,c),
(1431,830,l)
);
},
{
closed = 1;
nodes = (
(811,1020,l),
(734,1020,ls),
(567,1020,o),
(436,967,o),
(338,868,cs),
(249,778,o),
(169,619,o),
(169,419,cs),
(169,328,o),
(189,252,o),
(224,188,c),
(227,188,l),
(-22,-34,l),
(113,-188,l),
(380,50,l),
(451,17,o),
(536,0,o),
(634,0,cs),
(686,0,l)
);
}
);
width = 1534;
}
);
note = oslash;
unicode = 248;
}
{
color = 9;
glyphname = thorn;
kernLeft = KO_h;
kernRight = KO_o;
layers = (
{
layerId = m01;
shapes = (
{
closed = 1;
nodes = (
(597,-540,l),
(851,1530,l),
(313,1530,l),
(59,-540,l)
);
},
{
closed = 1;
nodes = (
(863,0,ls),
(1030,0,o),
(1166,45,o),
(1269,138,cs),
(1372,231,o),
(1451,387,o),
(1451,595,cs),
(1451,704,o),
(1424,796,o),
(1370,869,cs),
(1296,969,o),
(1178,1020,o),
(1014,1020,cs),
(937,1020,l),
(811,0,l)
);
}
);
width = 1453;
}
);
note = thorn;
unicode = 254;
}
{
glyphname = dcaron;
kernLeft = KO_aogonek;
kernRight = KO_dcaron;
layers = (
{
layerId = m01;
shapes = (
{
closed = 1;
nodes = (
(1617,937,ls),
(1810,937,o),
(1892,980,o),
(1923,1087,cs),
(1938,1140,o),
(1946,1221,o),
(1946,1329,cs),
(1946,1586,l),
(1554,1586,l),
(1554,937,l)
);
},
{
closed = 1;
nodes = (
(1404,0,l),
(1404,1531,l),
(871,1531,l),
(871,0,l)
);
},
{
closed = 1;
nodes = (
(130,346,o),
(174,226,o),
(262,138,cs),
(354,46,o),
(484,0,o),
(652,0,cs),
(704,0,l),
(704,1020,l),
(627,1020,ls),
(463,1020,o),
(337,969,o),
(249,868,cs),
(169,775,o),
(130,647,o),
(130,498,cs)
);
}
);
width = 2040;
}
);
note = dcaron;
unicode = 271;
userData = {
KernOnName = dcaron;
};
}
{
glyphname = Hbar;
kernLeft = KO_Hbar;
kernRight = KO_Hbar;
layers = (
{
layerId = m01;
shapes = (
{
closed = 1;
nodes = (
(841,2,l),
(841,451,l),
(1036,451,l),
(1036,2,l),
(1574,2,l),
(1574,850,l),
(1725,850,l),
(1725,1020,l),
(1574,1020,l),
(1574,1361,l),
(1036,1361,l),
(1036,1020,l),
(841,1020,l),
(841,1361,l),
(303,1361,l),
(303,1020,l),
(145,1020,l),
(145,850,l),
(303,850,l),
(303,2,l)
);
},
{
closed = 1;
nodes = (
(841,850,l),
(1036,850,l),
(1036,602,l),
(841,602,l)
);
}
);
userData = {
assembly = "PUSHW[ ]	/* 1 value pushed */
24
MDAP[1]	/* MoveDirectAbsPt */
PUSHW[ ]	/* 1 value pushed */
7
MDAP[1]	/* MoveDirectAbsPt */
PUSHW[ ]	/* 1 value pushed */
24
SRP0[ ]	/* SetRefPoint0 */
PUSHW[ ]	/* 1 value pushed */
0
MDRP[10000]	/* MoveDirectRelPt */
PUSHW[ ]	/* 1 value pushed */
0
MDAP[1]	/* MoveDirectAbsPt */
PUSHW[ ]	/* 1 value pushed */
3
MDRP[10000]	/* MoveDirectRelPt */
PUSHW[ ]	/* 1 value pushed */
0
SRP0[ ]	/* SetRefPoint0 */
PUSHW[ ]	/* 2 values pushed */
22 11
MIRP[10100]	/* MoveIndirectRelPt */
PUSHW[ ]	/* 1 value pushed */
5
MDRP[10000]	/* MoveDirectRelPt */
PUSHW[ ]	/* 1 value pushed */
7
SRP0[ ]	/* SetRefPoint0 */
PUSHW[ ]	/* 2 values pushed */
10 11
MIRP[10100]	/* MoveIndirectRelPt */
PUSHW[ ]	/* 1 value pushed */
13
MDRP[10000]	/* MoveDirectRelPt */
PUSHW[ ]	/* 1 value pushed */
7
SRP0[ ]	/* SetRefPoint0 */
PUSHW[ ]	/* 1 value pushed */
15
MDRP[10000]	/* MoveDirectRelPt */
PUSHW[ ]	/* 1 value pushed */
22
SRP0[ ]	/* SetRefPoint0 */
PUSHW[ ]	/* 1 value pushed */
17
MDRP[10000]	/* MoveDirectRelPt */
PUSHW[ ]	/* 1 value pushed */
7
SRP0[ ]	/* SetRefPoint0 */
PUSHW[ ]	/* 1 value pushed */
20
MDRP[10000]	/* MoveDirectRelPt */
PUSHW[ ]	/* 1 value pushed */
10
SRP0[ ]	/* SetRefPoint0 */
PUSHW[ ]	/* 1 value pushed */
25
MDRP[11100]	/* MoveDirectRelPt */
SVTCA[0]	/* SetFreedomAndProjectionVectorToAxis */
PUSHW[ ]	/* 1 value pushed */
0
RCVT[ ]	/* ReadCVT */
IF[ ]	/* If */
PUSHW[ ]	/* 1 value pushed */
2
MDAP[1]	/* MoveDirectAbsPt */
ELSE[ ]	/* Else */
PUSHW[ ]	/* 2 values pushed */
2 18
MIAP[0]	/* MoveIndirectAbsPt */
EIF[ ]	/* EndIf */
PUSHW[ ]	/* 1 value pushed */
0
RCVT[ ]	/* ReadCVT */
IF[ ]	/* If */
PUSHW[ ]	/* 1 value pushed */
6
MDAP[1]	/* MoveDirectAbsPt */
ELSE[ ]	/* Else */
PUSHW[ ]	/* 2 values pushed */
6 18
MIAP[0]	/* MoveIndirectAbsPt */
EIF[ ]	/* EndIf */
PUSHW[ ]	/* 1 value pushed */
0
RCVT[ ]	/* ReadCVT */
IF[ ]	/* If */
PUSHW[ ]	/* 1 value pushed */
10
MDAP[1]	/* MoveDirectAbsPt */
ELSE[ ]	/* Else */
PUSHW[ ]	/* 2 values pushed */
10 18
MIAP[0]	/* MoveIndirectAbsPt */
EIF[ ]	/* EndIf */
PUSHW[ ]	/* 1 value pushed */
0
RCVT[ ]	/* ReadCVT */
IF[ ]	/* If */
PUSHW[ ]	/* 1 value pushed */
4
MDAP[1]	/* MoveDirectAbsPt */
ELSE[ ]	/* Else */
PUSHW[ ]	/* 2 values pushed */
4 20
MIAP[0]	/* MoveIndirectAbsPt */
EIF[ ]	/* EndIf */
PUSHW[ ]	/* 1 value pushed */
0
RCVT[ ]	/* ReadCVT */
IF[ ]	/* If */
PUSHW[ ]	/* 1 value pushed */
8
MDAP[1]	/* MoveDirectAbsPt */
ELSE[ ]	/* Else */
PUSHW[ ]	/* 2 values pushed */
8 20
MIAP[0]	/* MoveIndirectAbsPt */
EIF[ ]	/* EndIf */
PUSHW[ ]	/* 4 values pushed */
20 2 16 4
CALL[ ]	/* CallFunction */
PUSHW[ ]	/* 1 value pushed */
2
SRP0[ ]	/* SetRefPoint0 */
PUSHW[ ]	/* 2 values pushed */
0 2
MIRP[10100]	/* MoveIndirectRelPt */
PUSHW[ ]	/* 1 value pushed */
4
SRP0[ ]	/* SetRefPoint0 */
PUSHW[ ]	/* 2 values pushed */
1 4
MIRP[10100]	/* MoveIndirectRelPt */
PUSHW[ ]	/* 1 value pushed */
0
SRP0[ ]	/* SetRefPoint0 */
PUSHW[ ]	/* 1 value pushed */
12
MDRP[10000]	/* MoveDirectRelPt */
PUSHW[ ]	/* 1 value pushed */
13
MDRP[10000]	/* MoveDirectRelPt */
PUSHW[ ]	/* 1 value pushed */
21
MDRP[10000]	/* MoveDirectRelPt */
PUSHW[ ]	/* 1 value pushed */
22
MDRP[10000]	/* MoveDirectRelPt */
IUP[0]	/* InterpolateUntPts */
IUP[1]	/* InterpolateUntPts */";
};
width = 1874;
}
);
note = Hbar;
unicode = 294;
}
{
color = 9;
glyphname = idotless;
kernLeft = KO_iacute;
kernRight = KO_idotless;
layers = (
{
anchors = (
{
name = bottom;
pos = (428,0);
},
{
name = ogonek;
pos = (697,0);
},
{
name = top;
pos = (553,1020);
}
);
layerId = m01;
shapes = (
{
closed = 1;
nodes = (
(697,0,l),
(822,1019,l),
(284,1019,l),
(159,0,l)
);
}
);
userData = {
assembly = "PUSHW[ ]	/* 4 values pushed */
1 11 0 4
CALL[ ]	/* CallFunction */
PUSHW[ ]	/* 1 value pushed */
1
SRP0[ ]	/* SetRefPoint0 */
PUSHW[ ]	/* 1 value pushed */
5
MDRP[11100]	/* MoveDirectRelPt */
SVTCA[0]	/* SetFreedomAndProjectionVectorToAxis */
PUSHW[ ]	/* 1 value pushed */
0
RCVT[ ]	/* ReadCVT */
IF[ ]	/* If */
PUSHW[ ]	/* 1 value pushed */
0
MDAP[1]	/* MoveDirectAbsPt */
ELSE[ ]	/* Else */
PUSHW[ ]	/* 2 values pushed */
0 18
MIAP[0]	/* MoveIndirectAbsPt */
EIF[ ]	/* EndIf */
IUP[0]	/* InterpolateUntPts */
IUP[1]	/* InterpolateUntPts */";
};
width = 856;
}
);
note = dotlessi;
unicode = 305;
}
{
color = 9;
glyphname = kgreenlandic;
kernLeft = KO_n;
kernRight = KO_k;
layers = (
{
anchors = (
{
name = bottom;
pos = (753,0);
},
{
name = top;
pos = (878,1020);
}
);
layerId = m01;
shapes = (
{
closed = 1;
nodes = (
(909,784,o),
(915,761,o),
(926,742,cs),
(971,664,o),
(1064,628,o),
(1195,628,cs),
(1280,628,o),
(1351,645,o),
(1408,679,cs),
(1470,716,o),
(1513,777,o),
(1513,858,cs),
(1513,883,o),
(1508,905,o),
(1497,925,cs),
(1458,996,o),
(1374,1033,o),
(1238,1033,cs),
(1155,1033,o),
(1081,1018,o),
(1021,986,cs),
(957,952,o),
(909,893,o),
(909,810,cs)
);
},
{
closed = 1;
nodes = (
(662,0,l),
(787,1020,l),
(250,1020,l),
(125,0,l)
);
},
{
closed = 1;
nodes = (
(1399,0,l),
(1408,73,ls),
(1417,146,o),
(1416,211,o),
(1407,264,cs),
(1379,425,o),
(1245,509,o),
(998,509,cs),
(908,509,l),
(846,0,l)
);
}
);
width = 1499;
}
);
note = kgreenlandic;
unicode = 312;
}
{
color = 4;
glyphname = ldot;
layers = (
{
layerId = m01;
shapes = (
{
closed = 1;
nodes = (
(778,0,l),
(778,1531,l),
(240,1531,l),
(240,0,l)
);
},
{
closed = 1;
nodes = (
(1462,444,o),
(1552,507,o),
(1552,651,cs),
(1552,791,o),
(1455,850,o),
(1236,850,cs),
(1017,850,o),
(916,791,o),
(916,651,cs),
(916,513,o),
(1026,444,o),
(1247,444,cs)
);
}
);
width = 1572;
}
);
note = ldot;
unicode = 320;
userData = {
KernOnSpecialSpacing = {
R = NoKerning;
};
};
}
{
color = 9;
glyphname = eng;
kernLeft = KO_eng;
kernRight = KO_n;
layers = (
{
layerId = m01;
shapes = (
{
closed = 1;
nodes = (
(876,-508,ls),
(966,-508,o),
(1040,-495,o),
(1100,-472,cs),
(1282,-402,o),
(1384,-244,o),
(1413,-8,cs),
(1486,586,ls),
(1494,651,o),
(1494,712,o),
(1485,769,cs),
(1458,938,o),
(1320,1020,o),
(1076,1020,cs),
(986,1020,l),
(799,-508,l)
);
},
{
closed = 1;
nodes = (
(696,0,l),
(821,1020,l),
(265,1020,l),
(140,0,l)
);
}
);
width = 1534;
}
);
note = eng;
unicode = 331;
}
{
color = 9;
glyphname = OE;
kernLeft = KO_O;
kernRight = KO_AE;
layers = (
{
anchors = (
{
name = bottom;
pos = (1129,0);
},
{
name = top;
pos = (1296,1361);
}
);
layerId = m01;
shapes = (
{
closed = 1;
nodes = (
(1730,1189,o),
(1748,1111,o),
(1800,1064,cs),
(1862,1008,o),
(1984,983,o),
(2155,983,cs),
(2259,983,l),
(2305,1361,l),
(1750,1361,l),
(1742,1292,ls)
);
},
{
closed = 1;
nodes = (
(1411,2,l),
(1478,552,l),
(1879,552,l),
(1911,813,l),
(1510,813,l),
(1577,1361,l),
(1039,1361,l),
(873,2,l)
);
},
{
closed = 1;
nodes = (
(873,1361,l),
(795,1361,ls),
(670,1361,o),
(556,1331,o),
(459,1264,cs),
(307,1159,o),
(168,930,o),
(168,555,cs),
(168,486,o),
(174,425,o),
(185,371,cs),
(235,127,o),
(380,0,o),
(628,0,cs),
(706,0,l)
);
},
{
closed = 1;
nodes = (
(2138,0,l),
(2188,406,l),
(2109,406,ls),
(2018,406,o),
(1934,398,o),
(1865,377,cs),
(1697,326,o),
(1611,230,o),
(1594,95,cs),
(1582,0,l)
);
}
);
width = 2263;
}
);
note = OE;
unicode = 338;
}
{
color = 9;
glyphname = oe;
kernLeft = KO_a;
kernRight = KO_e;
layers = (
{
anchors = (
{
name = bottom;
pos = (1066,0);
},
{
name = top;
pos = (1191,1020);
}
);
layerId = m01;
shapes = (
{
closed = 1;
nodes = (
(2127,457,l),
(2140,563,ls),
(2150,644,o),
(2149,711,o),
(2137,767,cs),
(2102,937,o),
(1957,1020,o),
(1708,1020,cs),
(1642,1020,l),
(1573,457,l)
);
},
{
closed = 1;
nodes = (
(844,0,ls),
(920,0,o),
(976,21,o),
(1059,57,cs),
(1089,70,l),
(1128,51,ls),
(1190,21,o),
(1244,0,o),
(1317,0,cs),
(1369,0,l),
(1494,1020,l),
(1417,1020,ls),
(1366,1020,o),
(1308,1005,o),
(1244,975,cs),
(1212,960,l),
(1198,953,l),
(1168,968,ls),
(1098,1003,o),
(1061,1020,o),
(994,1020,cs),
(917,1020,l),
(792,0,l)
);
},
{
closed = 1;
nodes = (
(131,338,o),
(144,224,o),
(218,139,cs),
(298,47,o),
(422,0,o),
(592,0,cs),
(644,0,l),
(769,1020,l),
(692,1020,ls),
(533,1020,o),
(393,972,o),
(288,860,cs),
(196,762,o),
(131,589,o),
(131,498,cs)
);
},
{
closed = 1;
nodes = (
(1717,0,ls),
(1820,0,o),
(1900,26,o),
(1960,77,cs),
(2010,119,o),
(2038,173,o),
(2045,229,cs),
(2049,261,l),
(1549,261,l),
(1517,0,l)
);
}
);
width = 2141;
}
);
note = oe;
unicode = 339;
}
{
color = 9;
glyphname = Tbar;
kernLeft = KO_T;
kernRight = KO_T;
layers = (
{
anchors = (
{
name = bottom;
pos = (894,0);
},
{
name = center;
pos = (978,681);
},
{
name = top;
pos = (1061,1361);
}
);
background = {
shapes = (
{
closed = 1;
nodes = (
(1316,1106,o),
(1330,1015,o),
(1358,950,cs),
(1386,886,o),
(1421,851,o),
(1490,820,cs),
(1525,804,o),
(1579,796,o),
(1652,796,cs),
(1764,796,l),
(1764,1361,l),
(1316,1361,l),
(1316,1222,ls)
);
},
{
closed = 1;
nodes = (
(669,338,l),
(669,0,l),
(1207,0,l),
(1207,338,l),
(1413,338,l),
(1413,508,l),
(1207,508,l),
(1207,1361,l),
(669,1361,l),
(669,508,l),
(493,508,l),
(493,338,l)
);
},
{
closed = 1;
nodes = (
(221,796,ls),
(332,796,o),
(413,821,o),
(464,872,cs),
(526,934,o),
(557,1051,o),
(557,1222,cs),
(557,1361,l),
(109,1361,l),
(109,796,l)
);
}
);
};
layerId = m01;
shapes = (
{
closed = 1;
nodes = (
(1387,935,o),
(1390,844,o),
(1410,780,cs),
(1430,716,o),
(1461,681,o),
(1526,650,cs),
(1562,633,o),
(1616,626,o),
(1685,626,cs),
(1797,626,l),
(1887,1361,l),
(1439,1361,l),
(1401,1050,ls)
);
},
{
closed = 1;
nodes = (
(1164,0,l),
(1331,1361,l),
(793,1361,l),
(626,0,l)
);
},
{
closed = 1;
nodes = (
(259,626,ls),
(363,626,o),
(449,648,o),
(509,700,cs),
(583,764,o),
(627,887,o),
(647,1050,cs),
(685,1361,l),
(237,1361,l),
(147,626,l)
);
},
{
closed = 1;
nodes = (
(1400,271,l),
(1422,448,l),
(480,448,l),
(458,271,l)
);
}
);
width = 1790;
}
);
note = Tbar;
unicode = 358;
}
{
glyphname = uogonek;
kernLeft = KO_uogonek;
kernRight = KO_aogonek;
layers = (
{
layerId = m01;
shapes = (
{
closed = 1;
nodes = (
(844,-354,o),
(879,-427,o),
(950,-483,cs),
(1015,-534,o),
(1094,-560,o),
(1188,-560,cs),
(1404,-560,l),
(1404,-230,l),
(1278,-230,ls),
(1227,-230,o),
(1199,-218,o),
(1171,-174,cs),
(1156,-151,o),
(1149,-103,o),
(1149,-28,cs),
(1149,0,l),
(1404,0,l),
(1404,1020,l),
(848,1020,l),
(848,0,l),
(959,0,l),
(882,-62,o),
(844,-150,o),
(844,-263,cs)
);
},
{
closed = 1;
nodes = (
(130,366,o),
(138,304,o),
(154,250,cs),
(201,83,o),
(348,0,o),
(593,0,cs),
(683,0,l),
(683,1020,l),
(130,1020,l),
(130,437,ls)
);
}
);
width = 1534;
}
);
note = uogonek;
unicode = 371;
}
{
color = 9;
glyphname = Bhook;
kernRight = KO_B;
layers = (
{
anchors = (
{
name = bottom;
pos = (1203,0);
},
{
name = center;
pos = (862,340);
},
{
name = top;
pos = (1370,1361);
}
);
layerId = m01;
shapes = (
{
closed = 1;
nodes = (
(1869,744,o),
(1941,848,o),
(1941,1008,cs),
(1941,1244,o),
(1754,1361,o),
(1493,1361,cs),
(1416,1361,l),
(1249,0,l),
(1341,0,ls),
(1631,0,o),
(1914,135,o),
(1914,453,cs),
(1914,563,o),
(1862,642,o),
(1755,689,c),
(1758,689,l)
);
},
{
closed = 1;
nodes = (
(1083,2,l),
(1250,1361,l),
(712,1361,l),
(545,2,l)
);
},
{
closed = 1;
nodes = (
(504,1016,l),
(546,1361,l),
(441,1361,ls),
(363,1361,o),
(177,1277,o),
(151,1065,cs),
(145,1016,l)
);
}
);
width = 1970;
}
);
unicode = 385;
}
{
color = 9;
glyphname = Oopen;
kernLeft = KO_Oopen;
kernRight = KO_O;
layers = (
{
anchors = (
{
name = bottom;
pos = (779,0);
},
{
name = top;
pos = (947,1361);
}
);
layerId = m01;
shapes = (
{
closed = 1;
nodes = (
(845,1361,l),
(293,1361,l),
(207,661,l),
(278,661,ls),
(447,661,o),
(577,690,o),
(661,752,cs),
(745,814,o),
(790,920,o),
(807,1055,cs)
);
},
{
closed = 1;
nodes = (
(895,0,ls),
(1224,0,o),
(1511,424,o),
(1511,833,cs),
(1511,1122,o),
(1365,1361,o),
(1088,1361,cs),
(1011,1361,l),
(843,0,l)
);
},
{
closed = 1;
nodes = (
(709,261,l),
(209,261,l),
(206,233,ls),
(199,167,o),
(216,116,o),
(254,76,cs),
(303,24,o),
(378,0,o),
(477,0,cs),
(677,0,l)
);
}
);
width = 1505;
}
);
unicode = 390;
}
{
color = 9;
glyphname = Dhook;
kernRight = KO_D;
layers = (
{
anchors = (
{
name = bottom;
pos = (1204,0);
},
{
name = center;
pos = (905,681);
},
{
name = top;
pos = (1371,1361);
}
);
layerId = m01;
shapes = (
{
closed = 1;
nodes = (
(1333,0,ls),
(1515,0,o),
(1656,71,o),
(1760,203,cs),
(1905,387,o),
(1984,723,o),
(1959,988,cs),
(1936,1233,o),
(1788,1361,o),
(1500,1361,cs),
(1416,1361,l),
(1249,0,l)
);
},
{
closed = 1;
nodes = (
(1083,2,l),
(1250,1361,l),
(712,1361,l),
(545,2,l)
);
},
{
closed = 1;
nodes = (
(504,1016,l),
(546,1361,l),
(441,1361,ls),
(323,1361,o),
(177,1277,o),
(151,1065,cs),
(145,1016,l)
);
}
);
width = 1954;
}
);
unicode = 394;
}
{
color = 9;
glyphname = Eturned;
kernLeft = KO_Eturned;
kernRight = KO_H;
layers = (
{
anchors = (
{
name = bottom;
pos = (692,0);
},
{
name = ogonek;
pos = (79,10);
},
{
name = top;
pos = (859,1361);
},
{
name = topright;
pos = (1606,1361);
}
);
layerId = m01;
shapes = (
{
closed = 1;
nodes = (
(787,1361,l),
(292,1361,l),
(237,913,l),
(492,913,ls),
(623,913,o),
(745,1017,o),
(760,1140,cs)
);
},
{
closed = 1;
nodes = (
(1492,1361,l),
(954,1361,l),
(884,786,l),
(453,786,l),
(434,635,l),
(865,635,l),
(787,2,l),
(1325,2,l)
);
},
{
closed = 1;
nodes = (
(652,253,ls),
(677,457,o),
(547,526,o),
(432,526,cs),
(190,526,l),
(125,0,l),
(621,0,l)
);
}
);
width = 1450;
}
);
unicode = 398;
}
{
color = 9;
glyphname = Schwa;
kernLeft = KO_Aogonek;
kernRight = KO_Schwa;
layers = (
{
anchors = (
{
name = bottom;
pos = (831,0);
},
{
name = top;
pos = (998,1361);
}
);
layerId = m01;
shapes = (
{
closed = 1;
nodes = (
(715,325,o),
(698,376,o),
(660,416,cs),
(612,467,o),
(539,494,o),
(436,494,cs),
(186,494,l),
(125,0,l),
(675,0,l),
(698,187,ls)
);
},
{
closed = 1;
nodes = (
(773,1361,ls),
(598,1361,o),
(473,1330,o),
(392,1271,cs),
(308,1210,o),
(261,1107,o),
(244,969,cs),
(208,675,l),
(760,675,l),
(844,1361,l)
);
},
{
closed = 1;
nodes = (
(843,0,l),
(921,0,ls),
(1051,0,o),
(1163,32,o),
(1256,96,cs),
(1412,203,o),
(1548,435,o),
(1548,804,cs),
(1548,872,o),
(1542,933,o),
(1531,988,cs),
(1482,1233,o),
(1337,1361,o),
(1088,1361,cs),
(1010,1361,l)
);
}
);
width = 1549;
}
);
unicode = 399;
}
{
color = 9;
glyphname = Eopen;
kernLeft = KO_Eopen;
kernRight = KO_Eopen;
layers = (
{
anchors = (
{
name = bottom;
pos = (775,0);
},
{
name = top;
pos = (943,1361);
}
);
layerId = m01;
shapes = (
{
closed = 1;
nodes = (
(796,611,l),
(978,611,l),
(999,778,l),
(817,778,l),
(889,1361,l),
(812,1361,ls),
(654,1361,o),
(519,1328,o),
(421,1252,cs),
(332,1183,o),
(267,1065,o),
(267,936,cs),
(267,811,o),
(352,729,o),
(520,689,c),
(353,656,o),
(241,587,o),
(187,483,cs),
(171,452,o),
(152,390,o),
(152,327,cs),
(152,245,o),
(184,158,o),
(255,100,cs),
(337,33,o),
(461,0,o),
(629,0,cs),
(721,0,l)
);
},
{
closed = 1;
nodes = (
(1559,966,ls),
(1575,1098,o),
(1542,1201,o),
(1455,1271,cs),
(1378,1333,o),
(1266,1361,o),
(1128,1361,cs),
(1003,1361,l),
(946,900,l),
(1551,900,l)
);
},
{
closed = 1;
nodes = (
(1497,461,l),
(892,461,l),
(835,0,l),
(960,0,ls),
(1189,0,o),
(1343,74,o),
(1430,216,cs),
(1462,268,o),
(1481,329,o),
(1489,395,cs)
);
}
);
width = 1549;
}
);
unicode = 400;
}
{
glyphname = florin;
kernLeft = KO_florin;
layers = (
{
layerId = m01;
shapes = (
{
closed = 1;
nodes = (
(1327,1177,o),
(1353,1133,o),
(1412,1104,cs),
(1444,1088,o),
(1504,1080,o),
(1592,1080,cs),
(1678,1080,l),
(1823,1550,l),
(1406,1550,l),
(1356,1388,ls),
(1355,1385,o),
(1327,1283,o),
(1327,1232,cs)
);
},
{
closed = 1;
nodes = (
(642,-340,l),
(1221,1549,l),
(1154,1549,ls),
(1068,1549,o),
(992,1537,o),
(924,1512,cs),
(731,1441,o),
(604,1288,o),
(534,1060,cs),
(104,-340,l)
);
},
{
closed = 1;
nodes = (
(1418,510,l),
(1515,825,l),
(1184,825,l),
(1087,510,l)
);
}
);
width = 1712;
}
);
note = florin;
unicode = 402;
}
{
color = 9;
glyphname = Khook;
kernLeft = KO_H;
kernRight = KO_Khook;
layers = (
{
anchors = (
{
name = bottom;
pos = (783,0);
},
{
name = top;
pos = (950,1361);
}
);
layerId = m01;
shapes = (
{
closed = 1;
nodes = (
(663,2,l),
(830,1361,l),
(292,1361,l),
(125,2,l)
);
},
{
closed = 1;
nodes = (
(1754,932,l),
(1771,1069,ls),
(1797,1279,o),
(1633,1359,o),
(1503,1359,cs),
(1304,1359,ls),
(1123,1359,o),
(986,1279,o),
(943,934,c)
);
},
{
closed = 1;
nodes = (
(1517,621,o),
(1442,756,o),
(1283,756,cs),
(922,756,l),
(829,0,l),
(1441,0,l),
(1500,482,ls)
);
}
);
width = 1670;
}
);
unicode = 408;
}
{
color = 9;
glyphname = Yhook;
kernLeft = KO_U;
kernRight = KO_Yhook;
layers = (
{
anchors = (
{
name = bottom;
pos = (747,0);
},
{
name = top;
pos = (914,1361);
},
{
name = topleft;
pos = (167,1361);
}
);
layerId = m01;
shapes = (
{
closed = 1;
nodes = (
(996,1361,l),
(767,-510,l),
(829,-510,ls),
(1143,-510,o),
(1323,-355,o),
(1362,-36,cs),
(1533,1361,l)
);
},
{
closed = 1;
nodes = (
(155,363,o),
(156,303,o),
(165,249,cs),
(193,79,o),
(334,0,o),
(573,0,cs),
(663,0,l),
(830,1361,l),
(277,1361,l),
(164,437,ls)
);
},
{
closed = 1;
nodes = (
(2022,1064,ls),
(2049,1280,o),
(1919,1361,o),
(1804,1361,cs),
(1699,1361,l),
(1657,1016,l),
(2016,1016,l)
);
}
);
width = 1911;
}
);
unicode = 435;
}
{
color = 4;
glyphname = yhook;
kernLeft = KO_u;
kernRight = KO_yhook;
layers = (
{
anchors = (
{
name = bottom;
pos = (757,0);
},
{
name = top;
pos = (757,1020);
}
);
layerId = m01;
shapes = (
{
closed = 1;
nodes = (
(821,1020,l),
(821,-540,l),
(883,-540,ls),
(1200,-540,o),
(1358,-382,o),
(1358,-67,cs),
(1358,1020,l)
);
},
{
closed = 1;
nodes = (
(120,366,o),
(128,304,o),
(144,250,cs),
(191,83,o),
(338,0,o),
(583,0,cs),
(673,0,l),
(673,1020,l),
(120,1020,l),
(120,437,ls)
);
},
{
closed = 1;
nodes = (
(1885,724,ls),
(1885,938,o),
(1707,1020,o),
(1571,1020,cs),
(1506,1020,l),
(1506,675,l),
(1885,675,l)
);
}
);
width = 1905;
}
);
unicode = 436;
}
{
color = 9;
glyphname = jdotless;
kernLeft = KO_jcircumflex;
layers = (
{
anchors = (
{
name = bottom;
pos = (530,-560);
},
{
name = top;
pos = (724,1020);
}
);
layerId = m01;
shapes = (
{
closed = 1;
nodes = (
(351,-508,ls),
(516,-508,o),
(643,-462,o),
(732,-366,cs),
(806,-286,o),
(854,-166,o),
(874,-3,cs),
(1000,1020,l),
(462,1020,l),
(274,-508,l)
);
}
);
width = 1196;
}
);
note = dotlessj;
unicode = 567;
}
{
color = 4;
glyphname = bhook;
kernLeft = KO_h;
kernRight = KO_o;
layers = (
{
anchors = (
{
name = bottom;
pos = (727,0);
},
{
name = top;
pos = (394,1524);
}
);
layerId = m01;
shapes = (
{
closed = 1;
nodes = (
(663,2,l),
(663,1530,l),
(125,1530,l),
(125,2,l)
);
},
{
closed = 1;
nodes = (
(863,0,ls),
(1032,0,o),
(1161,46,o),
(1252,138,cs),
(1339,227,o),
(1383,348,o),
(1383,502,cs),
(1383,653,o),
(1343,775,o),
(1264,868,cs),
(1177,969,o),
(1052,1020,o),
(888,1020,cs),
(811,1020,l),
(811,0,l)
);
},
{
closed = 1;
nodes = (
(1310,1228,ls),
(1310,1328,o),
(1271,1404,o),
(1194,1456,cs),
(1127,1502,o),
(1033,1524,o),
(916,1524,cs),
(811,1524,l),
(811,1179,l),
(1310,1179,l)
);
}
);
width = 1453;
}
);
unicode = 595;
}
{
color = 9;
glyphname = schwa;
kernLeft = KO_schwa;
kernRight = KO_schwa;
layers = (
{
anchors = (
{
name = bottom;
pos = (767,0);
},
{
name = ogonekabove;
pos = (277,1010);
},
{
name = top;
pos = (893,1020);
}
);
layerId = m01;
shapes = (
{
closed = 1;
nodes = (
(199,563,l),
(185,453,ls),
(176,381,o),
(176,316,o),
(188,256,cs),
(221,89,o),
(359,0,o),
(617,0,cs),
(683,0,l),
(753,563,l)
);
},
{
closed = 1;
nodes = (
(1475,722,o),
(1442,815,o),
(1379,885,cs),
(1300,973,o),
(1178,1020,o),
(1009,1020,cs),
(957,1020,l),
(831,0,l),
(908,0,ls),
(1077,0,o),
(1208,54,o),
(1305,152,cs),
(1396,244,o),
(1475,411,o),
(1475,604,cs)
);
},
{
closed = 1;
nodes = (
(609,1020,ls),
(508,1020,o),
(426,995,o),
(364,942,cs),
(311,897,o),
(286,843,o),
(280,787,cs),
(277,759,l),
(777,759,l),
(809,1020,l)
);
}
);
width = 1534;
}
);
unicode = 601;
}
{
color = 9;
glyphname = eopen;
kernLeft = KO_eopen;
kernRight = KO_eopen;
layers = (
{
anchors = (
{
name = bottom;
pos = (717,0);
},
{
name = top;
pos = (844,1020);
}
);
background = {
shapes = (
{
ref = o;
}
);
};
layerId = m01;
shapes = (
{
closed = 1;
nodes = (
(699,458,l),
(1049,458,l),
(1064,583,l),
(714,583,l),
(768,1020,l),
(635,1020,ls),
(418,1020,o),
(190,932,o),
(190,705,cs),
(190,609,o),
(262,546,o),
(402,516,c),
(239,488,o),
(102,413,o),
(102,242,cs),
(102,63,o),
(301,0,o),
(496,0,cs),
(642,0,l)
);
},
{
closed = 1;
nodes = (
(1426,722,ls),
(1454,941,o),
(1280,1020,o),
(1069,1020,cs),
(916,1020,l),
(873,675,l),
(1420,675,l)
);
},
{
closed = 1;
nodes = (
(1380,345,l),
(833,345,l),
(790,0,l),
(943,0,ls),
(1176,0,o),
(1348,94,o),
(1374,298,cs)
);
}
);
width = 1407;
}
);
unicode = 603;
}
{
color = 9;
glyphname = hturned;
kernLeft = KO_u;
kernRight = KO_a;
layers = (
{
anchors = (
{
name = bottom;
pos = (1031,-512);
},
{
name = center;
pos = (1084,-167);
},
{
name = top;
pos = (867,1020);
}
);
layerId = m01;
shapes = (
{
closed = 1;
nodes = (
(947,1020,l),
(759,-511,l),
(1297,-511,l),
(1485,1020,l)
);
},
{
closed = 1;
nodes = (
(246,1020,l),
(174,437,ls),
(165,364,o),
(166,303,o),
(175,249,cs),
(203,79,o),
(344,0,o),
(583,0,cs),
(673,0,l),
(799,1020,l)
);
}
);
width = 1484;
}
);
unicode = 613;
}
{
color = 9;
glyphname = mturned;
kernLeft = KO_u;
kernRight = KO_a;
layers = (
{
anchors = (
{
name = bottom;
pos = (1098,0);
},
{
name = top;
pos = (1224,1020);
}
);
layerId = m01;
shapes = (
{
closed = 1;
nodes = (
(246,1020,l),
(174,437,ls),
(137,137,o),
(259,0,o),
(583,0,cs),
(673,0,l),
(799,1020,l)
);
},
{
closed = 1;
nodes = (
(947,1020,l),
(875,437,ls),
(838,137,o),
(960,0,o),
(1284,0,cs),
(1374,0,l),
(1500,1020,l)
);
},
{
closed = 1;
nodes = (
(1648,1020,l),
(1522,0,l),
(2078,0,l),
(2204,1020,l)
);
}
);
width = 2203;
}
);
unicode = 623;
}
{
color = 9;
glyphname = nhookleft;
kernLeft = KO_n;
kernRight = KO_n;
layers = (
{
anchors = (
{
name = bottom;
pos = (755,0);
},
{
name = top;
pos = (880,1020);
}
);
background = {
shapes = (
{
closed = 1;
nodes = (
(686,0,l),
(686,1020,l),
(130,1020,l),
(130,0,l)
);
}
);
};
layerId = m01;
shapes = (
{
closed = 1;
nodes = (
(1385,0,l),
(1456,580,ls),
(1465,653,o),
(1465,717,o),
(1455,774,cs),
(1427,936,o),
(1293,1020,o),
(1047,1020,cs),
(957,1020,l),
(832,0,l)
);
},
{
closed = 1;
nodes = (
(803,1020,l),
(250,1020,l),
(79,-373,l),
(169,-373,ls),
(414,-373,o),
(571,-290,o),
(639,-123,cs),
(661,-69,o),
(677,-8,o),
(686,67,cs)
);
}
);
width = 1505;
}
);
unicode = 626;
}
{
glyphname = commaturnedmod;
kernLeft = KO_commaturnedmod;
kernRight = KO_commaturnedmod;
layers = (
{
anchors = (
{
name = _top;
pos = (535,1020);
}
);
layerId = m01;
shapes = (
{
closed = 1;
nodes = (
(496,1791,o),
(298,1693,o),
(279,1538,cs),
(265,1424,ls),
(249,1294,o),
(341,1225,o),
(556,1225,cs),
(774,1225,o),
(904,1285,o),
(904,1456,cs),
(904,1560,o),
(822,1626,o),
(624,1631,c),
(644,1791,l)
);
}
);
width = 817;
}
);
unicode = 699;
userData = {
KernOnSpecialSpacing = {
L = quotes;
R = quotes;
};
};
}
{
glyphname = circumflex;
layers = (
{
layerId = m01;
shapes = (
{
closed = 1;
nodes = (
(527,1332,o),
(647,1385,o),
(775,1509,cs),
(807,1540,l),
(861,1477,ls),
(945,1379,o),
(1036,1332,o),
(1133,1332,cs),
(1182,1332,o),
(1228,1347,o),
(1265,1380,cs),
(1320,1429,l),
(849,1884,l),
(265,1429,l),
(302,1387,ls),
(337,1347,o),
(388,1332,o),
(452,1332,cs)
);
}
);
width = 1235;
}
);
note = circumflex;
unicode = 710;
}
{
glyphname = caron;
layers = (
{
layerId = m01;
shapes = (
{
closed = 1;
nodes = (
(1356,1727,l),
(1313,1776,ls),
(1284,1809,o),
(1238,1824,o),
(1183,1824,cs),
(1088,1824,o),
(986,1774,o),
(880,1676,cs),
(815,1616,l),
(766,1673,ls),
(680,1773,o),
(589,1824,o),
(489,1824,cs),
(440,1824,o),
(394,1809,o),
(357,1776,cs),
(302,1727,l),
(773,1272,l)
);
}
);
width = 1234;
}
);
note = caron;
unicode = 711;
}
{
glyphname = breve;
layers = (
{
layerId = m01;
shapes = (
{
closed = 1;
nodes = (
(1218,1341,o),
(1342,1464,o),
(1365,1672,cs),
(1368,1699,l),
(1049,1699,l),
(1044,1658,o),
(1034,1628,o),
(1021,1605,cs),
(982,1537,o),
(908,1509,o),
(811,1509,cs),
(737,1509,o),
(682,1524,o),
(646,1551,cs),
(602,1584,o),
(585,1634,o),
(593,1699,c),
(298,1699,l),
(292,1647,ls),
(277,1518,o),
(317,1421,o),
(417,1359,cs),
(554,1274,o),
(806,1264,o),
(999,1300,cs)
);
}
);
width = 1250;
}
);
note = breve;
unicode = 728;
}
{
glyphname = dotaccent;
layers = (
{
layerId = m01;
shapes = (
{
closed = 1;
nodes = (
(795,1294,o),
(912,1364,o),
(912,1533,cs),
(912,1652,o),
(816,1700,o),
(618,1700,cs),
(402,1700,o),
(272,1638,o),
(272,1472,cs),
(272,1354,o),
(374,1294,o),
(579,1294,cs)
);
}
);
width = 816;
}
);
note = dotaccent;
unicode = 729;
}
{
glyphname = ring;
layers = (
{
layerId = m01;
shapes = (
{
closed = 1;
nodes = (
(721,1250,o),
(817,1276,o),
(903,1332,cs),
(995,1392,o),
(1056,1481,o),
(1056,1603,cs),
(1056,1681,o),
(1027,1741,o),
(973,1788,cs),
(911,1842,o),
(826,1870,o),
(714,1870,cs),
(607,1870,o),
(510,1845,o),
(425,1787,cs),
(337,1727,o),
(279,1639,o),
(279,1518,cs),
(279,1445,o),
(304,1382,o),
(361,1332,cs),
(426,1275,o),
(514,1250,o),
(615,1250,cs)
);
},
{
closed = 1;
nodes = (
(517,1642,o),
(599,1692,o),
(690,1692,cs),
(772,1692,o),
(817,1652,o),
(817,1583,cs),
(817,1480,o),
(732,1429,o),
(642,1429,cs),
(559,1429,o),
(517,1469,o),
(517,1538,cs)
);
}
);
width = 952;
}
);
note = ring;
unicode = 730;
}
{
glyphname = ogonek;
layers = (
{
layerId = m01;
shapes = (
{
closed = 1;
nodes = (
(55,-376,o),
(83,-438,o),
(140,-486,cs),
(197,-534,o),
(271,-560,o),
(365,-560,cs),
(581,-560,l),
(621,-230,l),
(495,-230,ls),
(453,-230,o),
(422,-223,o),
(396,-175,cs),
(382,-149,o),
(383,-96,o),
(391,-30,cs),
(401,52,l),
(309,52,o),
(233,22,o),
(171,-34,cs),
(109,-90,o),
(55,-189,o),
(55,-302,cs)
);
}
);
width = 740;
}
);
note = ogonek;
unicode = 731;
}
{
glyphname = tilde;
layers = (
{
layerId = m01;
shapes = (
{
closed = 1;
nodes = (
(308,1072,ls),
(343,1072,o),
(380,1078,o),
(414,1092,cs),
(509,1131,o),
(585,1208,o),
(642,1320,c),
(651,1287,o),
(664,1255,o),
(679,1226,cs),
(733,1123,o),
(813,1072,o),
(917,1072,cs),
(1017,1072,ls),
(1122,1072,o),
(1210,1104,o),
(1282,1170,cs),
(1345,1228,o),
(1385,1301,o),
(1396,1390,cs),
(1413,1530,l),
(1327,1530,ls),
(1292,1530,o),
(1254,1524,o),
(1218,1509,cs),
(1122,1469,o),
(1048,1391,o),
(993,1280,c),
(974,1357,o),
(942,1413,o),
(901,1454,cs),
(850,1505,o),
(790,1530,o),
(719,1530,cs),
(618,1530,ls),
(520,1530,o),
(432,1502,o),
(359,1438,cs),
(289,1377,o),
(250,1299,o),
(239,1210,cs),
(222,1072,l)
);
}
);
width = 1315;
}
);
note = tilde;
unicode = 732;
}
{
glyphname = hungarumlaut;
layers = (
{
layerId = m01;
shapes = (
{
closed = 1;
nodes = (
(977,1347,o),
(1026,1332,o),
(1085,1332,cs),
(1188,1332,o),
(1295,1380,o),
(1405,1478,cs),
(1653,1699,l),
(1490,1886,l),
(905,1429,l),
(948,1380,ls)
);
},
{
closed = 1;
nodes = (
(1013,1699,l),
(850,1886,l),
(265,1429,l),
(308,1380,ls),
(337,1347,o),
(392,1332,o),
(460,1332,cs),
(536,1332,o),
(655,1380,o),
(765,1478,cs)
);
}
);
width = 1535;
}
);
note = hungarumlaut;
unicode = 733;
}
{
glyphname = gravecomb;
layers = (
{
anchors = (
{
name = _top;
pos = (617,1020);
},
{
name = top;
pos = (723,1886);
}
);
layerId = m01;
shapes = (
{
closed = 1;
nodes = (
(540,1707,l),
(270,1467,l),
(385,1336,ls),
(515,1188,o),
(638,1137,o),
(755,1171,cs),
(796,1183,o),
(832,1205,o),
(859,1229,cs),
(916,1279,l)
);
}
);
width = 849;
}
);
note = grave;
unicode = 768;
userData = {
KernOnSpecialSpacing = {
L = NoKerning;
R = NoKerning;
};
};
}
{
glyphname = acutecomb;
layers = (
{
anchors = (
{
name = _top;
pos = (457,1020);
},
{
name = top;
pos = (564,1886);
}
);
layerId = m01;
shapes = (
{
closed = 1;
nodes = (
(288,1233,ls),
(315,1203,o),
(346,1182,o),
(381,1171,cs),
(492,1136,o),
(629,1191,o),
(792,1336,cs),
(939,1467,l),
(728,1707,l),
(247,1279,l)
);
}
);
width = 849;
}
);
note = acute;
unicode = 769;
userData = {
KernOnSpecialSpacing = {
L = NoKerning;
R = NoKerning;
};
};
}
{
glyphname = circumflexcomb;
layers = (
{
anchors = (
{
name = _top;
pos = (716,1020);
},
{
name = top;
pos = (792,1654);
}
);
background = {
shapes = (
{
closed = 1;
nodes = (
(217,1332,o),
(330,1384,o),
(445,1509,cs),
(473,1540,l),
(533,1479,ls),
(630,1381,o),
(727,1332,o),
(825,1332,cs),
(877,1332,o),
(920,1349,o),
(955,1384,cs),
(1000,1429,l),
(473,1884,l),
(-55,1429,l),
(-10,1384,ls),
(26,1349,o),
(77,1332,o),
(144,1332,cs)
);
}
);
};
layerId = m01;
shapes = (
{
closed = 1;
nodes = (
(866,1677,l),
(724,1677,l),
(243,1249,l),
(264,1225,ls),
(291,1194,o),
(323,1175,o),
(355,1165,cs),
(470,1129,o),
(600,1184,o),
(750,1325,c),
(878,1181,o),
(997,1133,o),
(1113,1167,cs),
(1154,1179,o),
(1190,1198,o),
(1221,1229,cs),
(1241,1249,l)
);
}
);
width = 1178;
}
);
note = circumflex;
unicode = 770;
userData = {
KernOnSpecialSpacing = {
L = NoKerning;
R = NoKerning;
};
};
}
{
glyphname = tildecomb;
layers = (
{
anchors = (
{
name = _top;
pos = (673,1020);
},
{
name = top;
pos = (735,1530);
}
);
background = {
shapes = (
{
closed = 1;
nodes = (
(116,1252,ls),
(154,1252,o),
(189,1259,o),
(220,1272,cs),
(309,1311,o),
(376,1387,o),
(420,1500,c),
(433,1467,o),
(449,1436,o),
(468,1406,cs),
(535,1303,o),
(621,1252,o),
(725,1252,cs),
(825,1252,ls),
(930,1252,o),
(1013,1284,o),
(1076,1348,cs),
(1135,1408,o),
(1165,1483,o),
(1165,1573,cs),
(1165,1710,l),
(1079,1710,ls),
(1041,1710,o),
(1006,1703,o),
(974,1690,cs),
(883,1650,o),
(817,1573,o),
(775,1460,c),
(748,1533,o),
(711,1591,o),
(662,1634,cs),
(605,1685,o),
(542,1710,o),
(471,1710,cs),
(370,1710,ls),
(265,1710,o),
(181,1678,o),
(118,1614,cs),
(59,1554,o),
(30,1479,o),
(30,1389,cs),
(30,1252,l)
);
}
);
};
layerId = m01;
shapes = (
{
closed = 1;
nodes = (
(1180,1387,l),
(1215,1669,l),
(887,1404,l),
(587,1674,l),
(260,1402,l),
(226,1125,l),
(552,1402,l),
(853,1125,l)
);
}
);
width = 1102;
}
);
note = tilde;
unicode = 771;
userData = {
KernOnSpecialSpacing = {
L = NoKerning;
R = NoKerning;
};
};
}
{
glyphname = macroncomb;
layers = (
{
anchors = (
{
name = _top;
pos = (636,1020);
},
{
name = top;
pos = (685,1417);
}
);
layerId = m01;
shapes = (
{
closed = 1;
nodes = (
(1074,1160,l),
(1107,1427,l),
(265,1427,l),
(232,1160,l)
);
}
);
userData = {
assembly = "SVTCA[0]	/* SetFreedomAndProjectionVectorToAxis */
PUSHW[ ]	/* 4 values pushed */
1 1 2 4
CALL[ ]	/* CallFunction */
IUP[0]	/* InterpolateUntPts */
IUP[1]	/* InterpolateUntPts */";
};
width = 1022;
}
);
note = macron;
unicode = 772;
userData = {
KernOnSpecialSpacing = {
L = NoKerning;
R = NoKerning;
};
};
}
{
glyphname = brevecomb;
layers = (
{
anchors = (
{
name = _top;
pos = (593,1020);
},
{
name = top;
pos = (661,1521);
}
);
background = {
shapes = (
{
closed = 1;
nodes = (
(90,1599,l),
(90,1397,o),
(199,1231,o),
(469,1231,cs),
(723,1231,o),
(850,1397,o),
(850,1599,c)
);
}
);
};
layerId = m01;
shapes = (
{
closed = 1;
nodes = (
(253,1324,o),
(344,1160,o),
(614,1160,cs),
(883,1160,o),
(1013,1325,o),
(1038,1528,c),
(278,1528,l)
);
}
);
width = 940;
}
);
note = breve;
unicode = 774;
userData = {
KernOnSpecialSpacing = {
L = NoKerning;
R = NoKerning;
};
};
}
{
glyphname = dotaccentcomb;
layers = (
{
anchors = (
{
name = _top;
pos = (534,1020);
},
{
name = top;
pos = (618,1700);
}
);
layerId = m01;
shapes = (
{
closed = 1;
nodes = (
(778,1160,o),
(896,1228,o),
(896,1399,cs),
(896,1516,o),
(804,1566,o),
(602,1566,cs),
(383,1566,o),
(256,1503,o),
(256,1338,cs),
(256,1220,o),
(358,1160,o),
(563,1160,cs)
);
}
);
width = 816;
}
);
note = dotaccent;
unicode = 775;
userData = {
KernOnSpecialSpacing = {
L = NoKerning;
R = NoKerning;
};
};
}
{
glyphname = dieresiscomb;
layers = (
{
anchors = (
{
name = _top;
pos = (729,1020);
},
{
name = top;
pos = (788,1505);
}
);
layerId = m01;
shapes = (
{
closed = 1;
nodes = (
(1197,1506,o),
(1051,1506,cs),
(930,1506,o),
(829,1468,o),
(829,1298,cs),
(829,1194,o),
(896,1160,o),
(1071,1160,cs),
(1198,1160,o),
(1282,1216,o),
(1282,1374,cs),
(1282,1491,o)
);
},
{
closed = 1;
nodes = (
(615,1504,o),
(472,1504,cs),
(352,1504,o),
(251,1466,o),
(251,1296,cs),
(251,1192,o),
(318,1158,o),
(493,1158,cs),
(620,1158,o),
(704,1214,o),
(704,1373,cs),
(704,1492,o)
);
}
);
width = 1206;
}
);
note = dieresis;
unicode = 776;
userData = {
KernOnSpecialSpacing = {
L = NoKerning;
R = NoKerning;
};
};
}
{
glyphname = hookabovecomb;
layers = (
{
anchors = (
{
name = _top;
pos = (396,1020);
}
);
layerId = m01;
shapes = (
{
closed = 1;
nodes = (
(232,1160,l),
(600,1160,l),
(633,1432,o),
(481,1541,o),
(279,1541,c)
);
}
);
width = 548;
}
);
unicode = 777;
}
{
glyphname = ringcomb;
layers = (
{
anchors = (
{
name = _top;
pos = (601,1020);
},
{
name = top;
pos = (705,1870);
}
);
layerId = m01;
shapes = (
{
closed = 1;
nodes = (
(808,1180,o),
(1047,1295,o),
(1047,1531,cs),
(1047,1708,o),
(893,1800,o),
(705,1800,cs),
(498,1800,o),
(270,1685,o),
(270,1450,cs),
(270,1274,o),
(418,1180,o),
(605,1180,cs)
);
},
{
closed = 1;
nodes = (
(508,1572,o),
(590,1622,o),
(681,1622,cs),
(763,1622,o),
(808,1582,o),
(808,1513,cs),
(808,1410,o),
(723,1359,o),
(632,1359,cs),
(550,1359,o),
(508,1399,o),
(508,1468,cs)
);
}
);
width = 952;
}
);
note = ring;
unicode = 778;
userData = {
KernOnSpecialSpacing = {
L = NoKerning;
R = NoKerning;
};
};
}
{
glyphname = hungarumlautcomb;
layers = (
{
anchors = (
{
name = _top;
pos = (688,1020);
},
{
name = top;
pos = (1000,1886);
}
);
layerId = m01;
shapes = (
{
closed = 1;
nodes = (
(288,1233,ls),
(315,1203,o),
(346,1182,o),
(381,1171,cs),
(492,1136,o),
(629,1191,o),
(792,1336,cs),
(939,1467,l),
(728,1707,l),
(247,1279,l)
);
},
{
closed = 1;
nodes = (
(892,1233,ls),
(919,1203,o),
(950,1182,o),
(985,1171,cs),
(1096,1136,o),
(1233,1191,o),
(1396,1336,cs),
(1543,1467,l),
(1332,1707,l),
(851,1279,l)
);
}
);
width = 1453;
}
);
note = hungarumlaut;
unicode = 779;
userData = {
KernOnSpecialSpacing = {
L = NoKerning;
R = NoKerning;
};
};
}
{
glyphname = caroncomb;
layers = (
{
anchors = (
{
name = _top;
pos = (713,1020);
},
{
name = top;
pos = (792,1654);
}
);
layerId = m01;
shapes = (
{
closed = 1;
nodes = (
(1266,1610,ls),
(1242,1641,o),
(1209,1659,o),
(1175,1670,cs),
(1068,1704,o),
(938,1656,o),
(774,1512,c),
(655,1657,o),
(540,1706,o),
(421,1673,cs),
(382,1662,o),
(346,1642,o),
(312,1612,cs),
(285,1588,l),
(660,1160,l),
(802,1160,l),
(1283,1588,l)
);
}
);
width = 1178;
}
);
note = caron;
unicode = 780;
userData = {
KernOnSpecialSpacing = {
L = NoKerning;
R = NoKerning;
};
};
}
{
glyphname = horncomb;
layers = (
{
anchors = (
{
name = _topright;
pos = (435,1020);
},
{
name = topright;
pos = (870,1401);
}
);
layerId = m01;
shapes = (
{
closed = 1;
nodes = (
(435,1020,l),
(803,1020,l),
(836,1292,o),
(684,1401,o),
(482,1401,c)
);
},
{
closed = 1;
nodes = (
(590,639,o),
(770,748,o),
(803,1020,c),
(435,1020,l),
(388,639,l)
);
}
);
width = 600;
}
);
unicode = 795;
}
{
glyphname = dotbelowcomb;
layers = (
{
anchors = (
{
name = _bottom;
pos = (488,0);
},
{
name = bottom;
pos = (425,-513);
}
);
layerId = m01;
shapes = (
{
closed = 1;
nodes = (
(649,-543,o),
(767,-475,o),
(767,-304,cs),
(767,-187,o),
(675,-137,o),
(473,-137,cs),
(254,-137,o),
(127,-200,o),
(127,-365,cs),
(127,-483,o),
(229,-543,o),
(434,-543,cs)
);
}
);
width = 984;
}
);
unicode = 803;
}
{
glyphname = Delta;
kernLeft = KO_Delta;
kernRight = KO_Delta;
layers = (
{
layerId = m01;
shapes = (
{
closed = 1;
nodes = (
(1045,1530,l),
(1044,1529,l),
(99,0,l),
(1599,0,l)
);
}
);
width = 1698;
}
);
note = Delta;
unicode = 916;
}
{
glyphname = Omega;
kernLeft = KO_Omega;
kernRight = KO_Omega;
layers = (
{
layerId = m01;
shapes = (
{
closed = 1;
nodes = (
(1740,333,o),
(1778,365,o),
(1805,389,cs),
(1906,478,o),
(1970,613,o),
(1993,798,cs),
(2015,974,o),
(1976,1108,o),
(1885,1204,cs),
(1781,1314,o),
(1624,1361,o),
(1432,1361,cs),
(1354,1361,l),
(1187,0,l),
(1987,0,l),
(2029,339,l),
(1914,339,ls),
(1868,339,o),
(1799,329,o),
(1703,305,c)
);
},
{
closed = 1;
nodes = (
(1024,0,l),
(1191,1361,l),
(1113,1361,ls),
(921,1361,o),
(756,1314,o),
(626,1208,cs),
(507,1111,o),
(406,946,o),
(406,688,cs),
(406,603,o),
(420,533,o),
(445,474,cs),
(464,429,o),
(507,373,o),
(580,306,c),
(499,329,o),
(434,339,o),
(382,339,cs),
(267,339,l),
(225,0,l)
);
}
);
width = 2211;
}
);
note = Omega;
unicode = 937;
}
{
glyphname = pi;
kernLeft = KO_pi;
kernRight = KO_pi;
layers = (
{
layerId = m01;
shapes = (
{
closed = 1;
nodes = (
(1746,850,l),
(1788,1190,l),
(378,1190,l),
(336,850,l)
);
},
{
closed = 1;
nodes = (
(1113,263,o),
(1109,178,o),
(1134,112,cs),
(1163,36,o),
(1248,0,o),
(1381,0,cs),
(1471,0,l),
(1554,680,l),
(1164,680,l),
(1134,435,ls)
);
},
{
closed = 1;
nodes = (
(791,0,l),
(874,680,l),
(485,680,l),
(402,0,l)
);
}
);
width = 1874;
}
);
note = pi;
unicode = 960;
userData = {
KernOnName = pi;
};
}
{
color = 9;
glyphname = Germandbls;
kernLeft = KO_Aogonek;
kernRight = KO_Germandbls;
layers = (
{
background = {
shapes = (
{
closed = 1;
nodes = (
(678,2,l),
(678,1361,l),
(140,1361,l),
(140,2,l)
);
}
);
};
layerId = m01;
shapes = (
{
closed = 1;
nodes = (
(1550,1174,l),
(1573,1361,l),
(1011,1361,l),
(844,0,l),
(936,0,ls),
(1095,0,o),
(1233,33,o),
(1339,112,cs),
(1437,185,o),
(1508,309,o),
(1508,437,cs),
(1508,569,o),
(1411,730,o),
(1184,730,c)
);
},
{
closed = 1;
nodes = (
(125,0,l),
(678,0,l),
(845,1361,l),
(755,1361,ls),
(513,1361,o),
(355,1280,o),
(286,1113,cs),
(262,1055,o),
(247,992,o),
(238,920,cs)
);
}
);
width = 1565;
}
);
unicode = 7838;
}
{
glyphname = endash;
kernLeft = KO_endash;
kernRight = KO_endash;
layers = (
{
layerId = m01;
shapes = (
{
closed = 1;
nodes = (
(1249,479,l),
(1270,650,l),
(253,650,l),
(232,479,l)
);
}
);
userData = {
assembly = "PUSHW[ ]	/* 4 values pushed */
1 7 0 4
CALL[ ]	/* CallFunction */
PUSHW[ ]	/* 1 value pushed */
1
SRP0[ ]	/* SetRefPoint0 */
PUSHW[ ]	/* 1 value pushed */
5
MDRP[11100]	/* MoveDirectRelPt */
SVTCA[0]	/* SetFreedomAndProjectionVectorToAxis */
PUSHW[ ]	/* 4 values pushed */
1 2 2 4
CALL[ ]	/* CallFunction */
IUP[0]	/* InterpolateUntPts */
IUP[1]	/* InterpolateUntPts */";
};
width = 1368;
}
);
note = endash;
unicode = 8211;
userData = {
KernOnSpecialSpacing = {
L = dashes;
R = dashes;
};
};
}
{
glyphname = emdash;
kernLeft = KO_emdash;
kernRight = KO_emdash;
layers = (
{
layerId = m01;
shapes = (
{
closed = 1;
nodes = (
(1929,479,l),
(1950,650,l),
(250,650,l),
(229,479,l)
);
}
);
userData = {
assembly = "SVTCA[0]	/* SetFreedomAndProjectionVectorToAxis */
PUSHW[ ]	/* 4 values pushed */
1 2 2 4
CALL[ ]	/* CallFunction */
IUP[0]	/* InterpolateUntPts */
IUP[1]	/* InterpolateUntPts */";
};
width = 2046;
}
);
note = emdash;
unicode = 8212;
userData = {
KernOnSpecialSpacing = {
L = dashes;
R = dashes;
};
};
}
{
glyphname = quoteleft;
kernLeft = KO_quoteleft;
kernRight = KO_quoteleft;
layers = (
{
layerId = m01;
shapes = (
{
closed = 1;
nodes = (
(656,1707,o),
(575,1683,o),
(499,1631,cs),
(423,1579,o),
(382,1520,o),
(374,1454,cs),
(344,1210,ls),
(328,1080,o),
(420,1011,o),
(635,1011,cs),
(859,1011,o),
(964,1072,o),
(981,1210,cs),
(997,1340,o),
(909,1412,o),
(703,1417,c),
(739,1707,l)
);
}
);
width = 1018;
}
);
note = quoteleft;
unicode = 8216;
userData = {
KernOnSpecialSpacing = {
L = quotes;
R = quotes;
};
};
}
{
glyphname = quoteright;
kernLeft = KO_quoteright;
kernRight = KO_quoteright;
layers = (
{
layerId = m01;
shapes = (
{
closed = 1;
nodes = (
(495,1700,o),
(368,1627,o),
(368,1501,cs),
(368,1368,o),
(444,1299,o),
(646,1294,c),
(610,1004,l),
(697,1004,o),
(777,1030,o),
(848,1078,cs),
(925,1130,o),
(967,1191,o),
(975,1257,cs),
(1005,1501,ls),
(1021,1631,o),
(929,1700,o),
(714,1700,cs)
);
}
);
width = 1018;
}
);
note = quoteright;
unicode = 8217;
userData = {
KernOnSpecialSpacing = {
L = quotes;
R = quotes;
};
};
}
{
glyphname = quotesinglbase;
kernRight = KO_quotesinglbase;
layers = (
{
layerId = m01;
shapes = (
{
closed = 1;
nodes = (
(538,-290,o),
(618,-264,o),
(689,-216,cs),
(766,-164,o),
(808,-103,o),
(816,-37,cs),
(846,207,ls),
(862,337,o),
(770,406,o),
(555,406,cs),
(336,406,o),
(209,333,o),
(209,207,cs),
(209,74,o),
(285,5,o),
(487,0,c),
(451,-290,l)
);
}
);
width = 1018;
}
);
note = quotesinglbase;
unicode = 8218;
userData = {
KernOnSpecialSpacing = {
L = quotes;
R = quotes;
};
};
}
{
glyphname = quotedblleft;
kernLeft = KO_quotedblleft;
kernRight = KO_quotedblleft;
layers = (
{
layerId = m01;
shapes = (
{
closed = 1;
nodes = (
(1673,1011,o),
(1802,1075,o),
(1802,1234,cs),
(1802,1347,o),
(1718,1412,o),
(1522,1417,c),
(1558,1707,l),
(1475,1707,o),
(1394,1683,o),
(1318,1631,cs),
(1242,1579,o),
(1201,1520,o),
(1193,1454,cs),
(1163,1210,ls),
(1147,1080,o),
(1239,1011,o),
(1454,1011,cs)
);
},
{
closed = 1;
nodes = (
(664,1707,o),
(583,1683,o),
(507,1631,cs),
(431,1579,o),
(390,1520,o),
(382,1454,cs),
(352,1210,ls),
(336,1080,o),
(428,1011,o),
(643,1011,cs),
(867,1011,o),
(972,1072,o),
(989,1210,cs),
(1005,1340,o),
(917,1412,o),
(711,1417,c),
(747,1707,l)
);
}
);
width = 1874;
}
);
note = quotedblleft;
unicode = 8220;
userData = {
KernOnSpecialSpacing = {
L = quotes;
R = quotes;
};
};
}
{
glyphname = quotedblright;
kernLeft = KO_quotedblright;
kernRight = KO_quotedblright;
layers = (
{
layerId = m01;
shapes = (
{
closed = 1;
nodes = (
(1319,1696,o),
(1190,1632,o),
(1190,1473,cs),
(1190,1360,o),
(1274,1295,o),
(1470,1290,c),
(1434,1000,l),
(1517,1000,o),
(1598,1024,o),
(1672,1074,cs),
(1749,1126,o),
(1791,1186,o),
(1799,1252,cs),
(1829,1496,ls),
(1845,1626,o),
(1755,1696,o),
(1539,1696,cs)
);
},
{
closed = 1;
nodes = (
(530,1695,o),
(425,1634,o),
(408,1496,cs),
(392,1366,o),
(480,1294,o),
(686,1289,c),
(650,999,l),
(733,999,o),
(814,1023,o),
(890,1075,cs),
(966,1127,o),
(1007,1186,o),
(1015,1252,cs),
(1045,1496,ls),
(1061,1626,o),
(969,1695,o),
(754,1695,cs)
);
}
);
width = 1874;
}
);
note = quotedblright;
unicode = 8221;
userData = {
KernOnSpecialSpacing = {
L = quotes;
R = quotes;
};
};
}
{
glyphname = quotedblbase;
kernLeft = KO_quotedblbase;
kernRight = KO_quotedblbase;
layers = (
{
layerId = m01;
shapes = (
{
closed = 1;
nodes = (
(1353,-283,o),
(1434,-259,o),
(1510,-207,cs),
(1586,-155,o),
(1627,-96,o),
(1635,-30,cs),
(1665,214,ls),
(1681,344,o),
(1589,413,o),
(1374,413,cs),
(1155,413,o),
(1026,349,o),
(1026,190,cs),
(1026,77,o),
(1110,12,o),
(1306,7,c),
(1270,-283,l)
);
},
{
closed = 1;
nodes = (
(585,-283,o),
(666,-259,o),
(742,-207,cs),
(818,-155,o),
(859,-96,o),
(867,-30,cs),
(897,214,ls),
(913,344,o),
(821,413,o),
(606,413,cs),
(382,413,o),
(277,352,o),
(260,214,cs),
(244,84,o),
(332,12,o),
(538,7,c),
(502,-283,l)
);
}
);
width = 1874;
}
);
note = quotedblbase;
unicode = 8222;
userData = {
KernOnSpecialSpacing = {
L = quotes;
R = quotes;
};
};
}
{
glyphname = dagger;
kernLeft = KO_dagger;
kernRight = KO_dagger;
layers = (
{
layerId = m01;
shapes = (
{
closed = 1;
nodes = (
(424,-540,ls),
(587,-540,o),
(716,-495,o),
(806,-397,cs),
(883,-313,o),
(928,-190,o),
(947,-35,cs),
(1053,828,l),
(1362,828,l),
(1385,1019,l),
(1076,1019,l),
(1160,1700,l),
(622,1700,l),
(538,1019,l),
(215,1019,l),
(192,828,l),
(515,828,l),
(347,-540,l)
);
}
);
width = 1350;
}
);
note = dagger;
unicode = 8224;
}
{
glyphname = daggerdbl;
kernLeft = KO_daggerdbl;
kernRight = KO_daggerdbl;
layers = (
{
layerId = m01;
shapes = (
{
closed = 1;
nodes = (
(452,317,l),
(347,-540,l),
(424,-540,ls),
(594,-540,o),
(717,-491,o),
(802,-401,cs),
(883,-315,o),
(928,-189,o),
(947,-33,cs),
(990,317,l),
(1299,317,l),
(1322,508,l),
(1013,508,l),
(1053,828,l),
(1362,828,l),
(1385,1019,l),
(1076,1019,l),
(1160,1700,l),
(622,1700,l),
(538,1019,l),
(215,1019,l),
(192,828,l),
(515,828,l),
(475,508,l),
(152,508,l),
(129,317,l)
);
}
);
width = 1350;
}
);
note = daggerdbl;
unicode = 8225;
}
{
glyphname = bullet;
layers = (
{
layerId = m01;
shapes = (
{
closed = 1;
nodes = (
(645,347,o),
(742,374,o),
(827,430,cs),
(912,486,o),
(978,572,o),
(978,699,cs),
(978,777,o),
(949,837,o),
(896,884,cs),
(835,938,o),
(749,966,o),
(636,966,cs),
(526,966,o),
(430,940,o),
(349,885,cs),
(265,828,o),
(201,741,o),
(201,614,cs),
(201,537,o),
(229,477,o),
(282,430,cs),
(343,376,o),
(428,347,o),
(537,347,cs)
);
}
);
width = 1018;
}
);
note = bullet;
unicode = 8226;
userData = {
KernOnSpecialSpacing = {
L = NoKerning;
R = NoKerning;
};
};
}
{
glyphname = ellipsis;
kernLeft = KO_ellipsis;
kernRight = KO_ellipsis;
layers = (
{
layerId = m01;
shapes = (
{
closed = 1;
nodes = (
(2364,0,o),
(2481,70,o),
(2481,239,cs),
(2481,358,o),
(2385,406,o),
(2187,406,cs),
(1971,406,o),
(1841,344,o),
(1841,178,cs),
(1841,60,o),
(1943,0,o),
(2148,0,cs)
);
},
{
closed = 1;
nodes = (
(1510,0,o),
(1627,70,o),
(1627,239,cs),
(1627,358,o),
(1531,406,o),
(1333,406,cs),
(1117,406,o),
(987,344,o),
(987,178,cs),
(987,60,o),
(1089,0,o),
(1294,0,cs)
);
},
{
closed = 1;
nodes = (
(656,0,o),
(773,70,o),
(773,239,cs),
(773,358,o),
(677,406,o),
(479,406,cs),
(263,406,o),
(133,344,o),
(133,178,cs),
(133,60,o),
(235,0,o),
(440,0,cs)
);
}
);
width = 2562;
}
);
note = ellipsis;
unicode = 8230;
}
{
glyphname = guilsinglleft;
kernLeft = KO_guilsinglleft;
kernRight = KO_guilsinglleft;
layers = (
{
layerId = m01;
shapes = (
{
closed = 1;
nodes = (
(1010,-108,l),
(1040,138,l),
(609,510,l),
(1131,878,l),
(1162,1128,l),
(312,510,l)
);
}
);
userData = {
assembly = "PUSHW[ ]	/* 4 values pushed */
1 10 5 4
CALL[ ]	/* CallFunction */
PUSHW[ ]	/* 1 value pushed */
1
SRP0[ ]	/* SetRefPoint0 */
PUSHW[ ]	/* 1 value pushed */
3
MDRP[10000]	/* MoveDirectRelPt */
SVTCA[0]	/* SetFreedomAndProjectionVectorToAxis */
PUSHW[ ]	/* 3 values pushed */
0 4 3
CALL[ ]	/* CallFunction */
IUP[0]	/* InterpolateUntPts */
IUP[1]	/* InterpolateUntPts */";
};
width = 1368;
}
);
note = guilsinglleft;
unicode = 8249;
userData = {
KernOnSpecialSpacing = {
L = quotes;
R = quotes;
};
};
}
{
glyphname = guilsinglright;
kernLeft = KO_guilsinglright;
kernRight = KO_guilsinglright;
layers = (
{
layerId = m01;
shapes = (
{
closed = 1;
nodes = (
(1182,510,l),
(484,1128,l),
(453,878,l),
(885,510,l),
(362,138,l),
(332,-108,l)
);
}
);
userData = {
assembly = "PUSHW[ ]	/* 4 values pushed */
4 10 2 4
CALL[ ]	/* CallFunction */
PUSHW[ ]	/* 1 value pushed */
2
SRP0[ ]	/* SetRefPoint0 */
PUSHW[ ]	/* 1 value pushed */
0
MDRP[10000]	/* MoveDirectRelPt */
PUSHW[ ]	/* 1 value pushed */
4
SRP0[ ]	/* SetRefPoint0 */
PUSHW[ ]	/* 1 value pushed */
7
MDRP[11100]	/* MoveDirectRelPt */
SVTCA[0]	/* SetFreedomAndProjectionVectorToAxis */
PUSHW[ ]	/* 3 values pushed */
3 5 3
CALL[ ]	/* CallFunction */
IUP[0]	/* InterpolateUntPts */
IUP[1]	/* InterpolateUntPts */";
};
width = 1368;
}
);
note = guilsinglright;
unicode = 8250;
userData = {
KernOnSpecialSpacing = {
L = quotes;
R = quotes;
};
};
}
{
glyphname = fraction;
layers = (
{
layerId = m01;
shapes = (
{
closed = 1;
nodes = (
(430,-340,l),
(1331,1644,l),
(1100,1709,l),
(200,-274,l)
);
}
);
userData = {
assembly = "PUSHW[ ]	/* 4 values pushed */
1 10 3 4
CALL[ ]	/* CallFunction */
PUSHW[ ]	/* 1 value pushed */
1
SRP0[ ]	/* SetRefPoint0 */
PUSHW[ ]	/* 1 value pushed */
5
MDRP[11100]	/* MoveDirectRelPt */
SVTCA[0]	/* SetFreedomAndProjectionVectorToAxis */
PUSHW[ ]	/* 1 value pushed */
0
RCVT[ ]	/* ReadCVT */
IF[ ]	/* If */
PUSHW[ ]	/* 1 value pushed */
2
MDAP[1]	/* MoveDirectAbsPt */
ELSE[ ]	/* Else */
PUSHW[ ]	/* 2 values pushed */
2 16
MIAP[0]	/* MoveIndirectAbsPt */
EIF[ ]	/* EndIf */
IUP[0]	/* InterpolateUntPts */
IUP[1]	/* InterpolateUntPts */";
};
width = 1364;
}
);
note = fraction;
unicode = 8260;
userData = {
KernOnSpecialSpacing = {
L = fraction;
R = fraction;
};
};
}
{
glyphname = euro;
kernLeft = KO_euro;
kernRight = KO_euro;
layers = (
{
anchors = (
{
name = bottom;
pos = (975,0);
}
);
layerId = m01;
shapes = (
{
closed = 1;
nodes = (
(1166,1197,o),
(1193,1096,o),
(1259,1039,cs),
(1325,982,o),
(1442,951,o),
(1577,951,cs),
(1668,951,l),
(1718,1361,l),
(1186,1361,l),
(1175,1271,ls)
);
},
{
closed = 1;
nodes = (
(1078,1361,l),
(1001,1361,ls),
(947,1361,o),
(893,1353,o),
(842,1334,cs),
(746,1298,o),
(665,1236,o),
(598,1148,cs),
(503,1023,o),
(421,838,o),
(421,614,cs),
(421,545,o),
(429,474,o),
(447,399,cs),
(475,283,o),
(521,191,o),
(584,122,cs),
(657,42,o),
(748,0,o),
(859,0,cs),
(911,0,l)
);
},
{
closed = 1;
nodes = (
(1199,0,ls),
(1296,0,o),
(1378,23,o),
(1441,76,cs),
(1491,118,o),
(1520,170,o),
(1527,228,cs),
(1531,261,l),
(1061,261,l),
(1029,0,l)
);
},
{
closed = 1;
nodes = (
(1528,705,l),
(1545,849,l),
(242,849,l),
(225,705,l),
(460,705,l)
);
},
{
closed = 1;
nodes = (
(1407,440,l),
(1425,584,l),
(122,584,l),
(104,440,l),
(339,440,l)
);
}
);
width = 1676;
}
);
note = Euro;
unicode = 8364;
userData = {
KernOnSpecialSpacing = {
L = symbols;
R = symbols;
};
};
}
{
glyphname = trademark;
kernLeft = KO_trademark;
kernRight = KO_trademark;
layers = (
{
layerId = m01;
shapes = (
{
closed = 1;
nodes = (
(3540,340,l),
(3612,926,ls),
(3630,1073,o),
(3611,1182,o),
(3554,1252,cs),
(3493,1327,o),
(3382,1362,o),
(3227,1362,cs),
(3162,1362,l),
(3037,340,l)
);
},
{
closed = 1;
nodes = (
(2931,340,l),
(3056,1361,l),
(2550,1361,l),
(2425,340,l)
);
},
{
closed = 1;
nodes = (
(2319,340,l),
(2444,1361,l),
(1938,1361,l),
(1813,340,l)
);
},
{
closed = 1;
nodes = (
(1290,1054,o),
(1304,938,o),
(1352,874,cs),
(1393,819,o),
(1469,796,o),
(1569,796,cs),
(1656,796,l),
(1725,1361,l),
(1327,1361,l),
(1310,1220,ls)
);
},
{
closed = 1;
nodes = (
(1110,340,l),
(1235,1361,l),
(747,1361,l),
(622,340,l)
);
},
{
closed = 1;
nodes = (
(275,796,ls),
(322,796,o),
(364,801,o),
(405,812,cs),
(535,847,o),
(610,988,o),
(638,1220,cs),
(655,1361,l),
(257,1361,l),
(188,796,l)
);
}
);
width = 3588;
}
);
note = trademark;
unicode = 8482;
userData = {
KernOnSpecialSpacing = {
L = superiors;
};
};
}
{
glyphname = partialdiff;
layers = (
{
layerId = m01;
shapes = (
{
closed = 1;
nodes = (
(1096,0,ls),
(1220,0,o),
(1338,51,o),
(1446,169,cs),
(1578,313,o),
(1666,532,o),
(1712,728,cs),
(1727,792,o),
(1739,856,o),
(1746,914,cs),
(1753,972,o),
(1756,1029,o),
(1756,1087,cs),
(1756,1336,o),
(1710,1501,o),
(1617,1622,cs),
(1541,1721,o),
(1440,1771,o),
(1313,1771,cs),
(1235,1771,l),
(1018,0,l)
);
},
{
closed = 1;
nodes = (
(347,343,o),
(378,225,o),
(453,139,cs),
(534,46,o),
(659,0,o),
(827,0,cs),
(879,0,l),
(1004,1020,l),
(927,1020,ls),
(770,1020,o),
(634,973,o),
(530,867,cs),
(437,772,o),
(384,644,o),
(366,498,cs)
);
}
);
width = 1874;
}
);
note = partialdiff;
unicode = 8706;
}
{
glyphname = product;
layers = (
{
layerId = m01;
shapes = (
{
closed = 1;
nodes = (
(1789,1196,l),
(1830,1530,l),
(420,1530,l),
(379,1196,l)
);
},
{
closed = 1;
nodes = (
(1472,0,l),
(1597,1020,l),
(1207,1020,l),
(1082,0,l)
);
},
{
closed = 1;
nodes = (
(792,0,l),
(917,1020,l),
(527,1020,l),
(402,0,l)
);
}
);
userData = {
assembly = "PUSHW[ ]	/* 1 value pushed */
12
MDAP[1]	/* MoveDirectAbsPt */
PUSHW[ ]	/* 1 value pushed */
4
MDAP[1]	/* MoveDirectAbsPt */
PUSHW[ ]	/* 2 values pushed */
5 8
MIRP[10100]	/* MoveIndirectRelPt */
PUSHW[ ]	/* 1 value pushed */
12
SRP0[ ]	/* SetRefPoint0 */
PUSHW[ ]	/* 1 value pushed */
8
MDRP[10000]	/* MoveDirectRelPt */
PUSHW[ ]	/* 1 value pushed */
8
MDAP[1]	/* MoveDirectAbsPt */
PUSHW[ ]	/* 2 values pushed */
9 8
MIRP[10100]	/* MoveIndirectRelPt */
PUSHW[ ]	/* 1 value pushed */
5
SRP0[ ]	/* SetRefPoint0 */
PUSHW[ ]	/* 1 value pushed */
13
MDRP[11100]	/* MoveDirectRelPt */
SVTCA[0]	/* SetFreedomAndProjectionVectorToAxis */
PUSHW[ ]	/* 1 value pushed */
0
RCVT[ ]	/* ReadCVT */
IF[ ]	/* If */
PUSHW[ ]	/* 1 value pushed */
4
MDAP[1]	/* MoveDirectAbsPt */
ELSE[ ]	/* Else */
PUSHW[ ]	/* 2 values pushed */
4 18
MIAP[0]	/* MoveIndirectAbsPt */
EIF[ ]	/* EndIf */
PUSHW[ ]	/* 1 value pushed */
0
RCVT[ ]	/* ReadCVT */
IF[ ]	/* If */
PUSHW[ ]	/* 1 value pushed */
8
MDAP[1]	/* MoveDirectAbsPt */
ELSE[ ]	/* Else */
PUSHW[ ]	/* 2 values pushed */
8 18
MIAP[0]	/* MoveIndirectAbsPt */
EIF[ ]	/* EndIf */
PUSHW[ ]	/* 4 values pushed */
1 6 2 4
CALL[ ]	/* CallFunction */
IUP[0]	/* InterpolateUntPts */
IUP[1]	/* InterpolateUntPts */";
};
width = 1874;
}
);
note = product;
unicode = 8719;
}
{
glyphname = summation;
kernRight = KO_micro;
layers = (
{
layerId = m01;
shapes = (
{
closed = 1;
nodes = (
(1159,1185,o),
(1180,1112,o),
(1227,1067,cs),
(1288,1009,o),
(1411,983,o),
(1585,983,cs),
(1689,983,l),
(1736,1361,l),
(1181,1361,l),
(1173,1297,ls)
);
},
{
closed = 1;
nodes = (
(839,2,l),
(1227,680,l),
(1006,1361,l),
(472,1361,l),
(693,680,l),
(305,2,l)
);
},
{
closed = 1;
nodes = (
(1569,0,l),
(1619,406,l),
(1540,406,ls),
(1443,406,o),
(1362,397,o),
(1298,378,cs),
(1130,328,o),
(1041,233,o),
(1025,100,cs),
(1013,0,l)
);
}
);
width = 1872;
}
);
note = summation;
unicode = 8721;
}
{
glyphname = minus;
kernLeft = KO_minus;
kernRight = KO_minus;
layers = (
{
layerId = m01;
shapes = (
{
closed = 1;
nodes = (
(1303,469,l),
(1326,660,l),
(374,660,l),
(351,469,l)
);
}
);
userData = {
assembly = "PUSHW[ ]	/* 4 values pushed */
1 7 0 4
CALL[ ]	/* CallFunction */
PUSHW[ ]	/* 1 value pushed */
1
SRP0[ ]	/* SetRefPoint0 */
PUSHW[ ]	/* 1 value pushed */
5
MDRP[11100]	/* MoveDirectRelPt */
SVTCA[0]	/* SetFreedomAndProjectionVectorToAxis */
PUSHW[ ]	/* 4 values pushed */
1 1 2 4
CALL[ ]	/* CallFunction */
IUP[0]	/* InterpolateUntPts */
IUP[1]	/* InterpolateUntPts */";
};
width = 1538;
}
);
note = minus;
unicode = 8722;
userData = {
KernOnSpecialSpacing = {
L = math;
R = math;
};
};
}
{
glyphname = radical;
kernRight = KO_radical;
layers = (
{
layerId = m01;
shapes = (
{
closed = 1;
nodes = (
(475,680,l),
(253,680,l),
(638,-337,l),
(638,-339,l),
(639,-340,l),
(639,-337,l),
(1526,1360,l),
(1292,1360,l),
(680,123,l)
);
}
);
width = 1529;
}
);
note = radical;
unicode = 8730;
}
{
glyphname = infinity;
layers = (
{
layerId = m01;
shapes = (
{
closed = 1;
nodes = (
(771,389,o),
(856,463,o),
(933,570,c),
(948,537,o),
(966,505,o),
(984,479,cs),
(1041,396,o),
(1134,352,o),
(1262,352,cs),
(1365,352,o),
(1451,391,o),
(1520,472,cs),
(1584,547,o),
(1646,684,o),
(1646,870,cs),
(1646,956,o),
(1629,1025,o),
(1596,1076,cs),
(1549,1149,o),
(1469,1186,o),
(1369,1186,cs),
(1266,1186,o),
(1197,1160,o),
(1107,1091,cs),
(1064,1058,o),
(1015,1003,o),
(962,923,c),
(945,964,o),
(928,1000,o),
(912,1031,cs),
(860,1132,o),
(781,1187,o),
(670,1187,cs),
(556,1187,o),
(456,1148,o),
(378,1059,cs),
(307,978,o),
(250,852,o),
(250,682,cs),
(250,589,o),
(271,516,o),
(310,460,cs),
(363,384,o),
(455,344,o),
(553,344,cs),
(604,344,o),
(646,349,o),
(680,360,cs)
);
},
{
closed = 1;
nodes = (
(1086,802,o),
(1128,880,o),
(1173,936,cs),
(1217,991,o),
(1259,1020,o),
(1338,1020,cs),
(1408,1020,o),
(1461,953,o),
(1461,836,cs),
(1461,730,o),
(1424,642,o),
(1384,589,cs),
(1326,512,o),
(1255,492,o),
(1185,526,cs),
(1123,556,o),
(1069,616,o),
(1026,709,c)
);
},
{
closed = 1;
nodes = (
(809,686,o),
(758,619,o),
(718,578,cs),
(676,535,o),
(634,510,o),
(591,510,cs),
(536,510,o),
(492,531,o),
(462,580,cs),
(440,616,o),
(430,658,o),
(430,714,cs),
(430,830,o),
(463,889,o),
(507,942,cs),
(551,995,o),
(599,1020,o),
(651,1020,cs),
(739,1020,o),
(813,945,o),
(873,786,c)
);
}
);
width = 1707;
}
);
note = infinity;
unicode = 8734;
}
{
glyphname = integral;
kernRight = KO_integral;
layers = (
{
layerId = m01;
shapes = (
{
closed = 1;
nodes = (
(1710,1228,o),
(1738,1141,o),
(1805,1100,cs),
(1851,1072,o),
(1927,1060,o),
(2020,1060,cs),
(2136,1060,l),
(2196,1550,l),
(1749,1550,l),
(1727,1369,ls)
);
},
{
closed = 1;
nodes = (
(793,-340,l),
(860,-340,ls),
(944,-340,o),
(1019,-329,o),
(1084,-304,cs),
(1258,-237,o),
(1362,-87,o),
(1391,148,cs),
(1565,1549,l),
(1498,1549,ls),
(1408,1549,o),
(1335,1536,o),
(1273,1512,cs),
(1100,1445,o),
(996,1296,o),
(967,1060,cs),
(855,150,l),
(852,142,l)
);
},
{
closed = 1;
nodes = (
(162,-341,l),
(609,-341,l),
(631,-162,ls),
(648,-22,o),
(622,66,o),
(555,108,cs),
(512,135,o),
(439,149,o),
(338,149,cs),
(222,149,l)
);
}
);
width = 2211;
}
);
note = integral;
unicode = 8747;
}
{
glyphname = approxequal;
kernLeft = KO_approxequal;
kernRight = KO_approxequal;
layers = (
{
layerId = m01;
shapes = (
{
closed = 1;
nodes = (
(1044,262,l),
(1079,544,l),
(751,279,l),
(451,549,l),
(124,277,l),
(90,0,l),
(416,277,l),
(717,0,l)
);
},
{
closed = 1;
nodes = (
(1121,884,l),
(1155,1166,l),
(828,901,l),
(528,1171,l),
(200,899,l),
(166,622,l),
(492,899,l),
(793,622,l)
);
}
);
width = 1102;
}
);
note = approxequal;
unicode = 8776;
userData = {
KernOnSpecialSpacing = {
L = math;
R = math;
};
};
}
{
glyphname = notequal;
kernRight = KO_notequal;
layers = (
{
layerId = m01;
shapes = (
{
closed = 1;
nodes = (
(344,-60,l),
(514,267,l),
(1018,267,l),
(1042,461,l),
(616,461,l),
(724,670,l),
(1067,670,l),
(1091,861,l),
(824,861,l),
(996,1190,l),
(826,1246,l),
(625,861,l),
(139,861,l),
(115,670,l),
(525,670,l),
(416,461,l),
(90,461,l),
(66,267,l),
(315,267,l),
(174,-3,l)
);
}
);
userData = {
assembly = "SVTCA[0]	/* SetFreedomAndProjectionVectorToAxis */
PUSHW[ ]	/* 4 values pushed */
3 1 0 4
CALL[ ]	/* CallFunction */
PUSHW[ ]	/* 4 values pushed */
7 1 4 4
CALL[ ]	/* CallFunction */
PUSHW[ ]	/* 1 value pushed */
7
SRP0[ ]	/* SetRefPoint0 */
PUSHW[ ]	/* 1 value pushed */
10
MDRP[10000]	/* MoveDirectRelPt */
PUSHW[ ]	/* 1 value pushed */
4
SRP0[ ]	/* SetRefPoint0 */
PUSHW[ ]	/* 1 value pushed */
12
MDRP[10000]	/* MoveDirectRelPt */
PUSHW[ ]	/* 1 value pushed */
3
SRP0[ ]	/* SetRefPoint0 */
PUSHW[ ]	/* 1 value pushed */
14
MDRP[10000]	/* MoveDirectRelPt */
PUSHW[ ]	/* 1 value pushed */
0
SRP0[ ]	/* SetRefPoint0 */
PUSHW[ ]	/* 1 value pushed */
16
MDRP[10000]	/* MoveDirectRelPt */
IUP[0]	/* InterpolateUntPts */
IUP[1]	/* InterpolateUntPts */";
};
width = 1018;
}
);
note = notequal;
unicode = 8800;
}
{
glyphname = lessequal;
kernLeft = KO_lessequal;
kernRight = KO_lessequal;
layers = (
{
layerId = m01;
shapes = (
{
closed = 1;
nodes = (
(1010,343,l),
(1152,479,l),
(727,892,l),
(1255,1322,l),
(1147,1458,l),
(455,892,l)
);
},
{
closed = 1;
nodes = (
(1279,-1,l),
(1303,191,l),
(282,191,l),
(258,-1,l)
);
}
);
userData = {
assembly = "PUSHW[ ]	/* 4 values pushed */
7 7 6 4
CALL[ ]	/* CallFunction */
PUSHW[ ]	/* 1 value pushed */
7
SRP0[ ]	/* SetRefPoint0 */
PUSHW[ ]	/* 1 value pushed */
11
MDRP[11100]	/* MoveDirectRelPt */
SVTCA[0]	/* SetFreedomAndProjectionVectorToAxis */
PUSHW[ ]	/* 1 value pushed */
0
RCVT[ ]	/* ReadCVT */
IF[ ]	/* If */
PUSHW[ ]	/* 1 value pushed */
8
MDAP[1]	/* MoveDirectAbsPt */
ELSE[ ]	/* Else */
PUSHW[ ]	/* 2 values pushed */
8 14
MIAP[0]	/* MoveIndirectAbsPt */
EIF[ ]	/* EndIf */
PUSHW[ ]	/* 2 values pushed */
6 1
MIRP[10100]	/* MoveIndirectRelPt */
IUP[0]	/* InterpolateUntPts */
IUP[1]	/* InterpolateUntPts */";
};
width = 1538;
}
);
note = lessequal;
unicode = 8804;
}
{
glyphname = greaterequal;
kernLeft = KO_greaterequal;
kernRight = KO_greaterequal;
layers = (
{
layerId = m01;
shapes = (
{
closed = 1;
nodes = (
(1222,889,l),
(668,1455,l),
(527,1319,l),
(951,889,l),
(424,476,l),
(531,340,l)
);
},
{
closed = 1;
nodes = (
(1279,-1,l),
(1303,191,l),
(282,191,l),
(258,-1,l)
);
}
);
userData = {
assembly = "PUSHW[ ]	/* 4 values pushed */
7 7 6 4
CALL[ ]	/* CallFunction */
PUSHW[ ]	/* 1 value pushed */
7
SRP0[ ]	/* SetRefPoint0 */
PUSHW[ ]	/* 1 value pushed */
11
MDRP[11100]	/* MoveDirectRelPt */
SVTCA[0]	/* SetFreedomAndProjectionVectorToAxis */
PUSHW[ ]	/* 1 value pushed */
0
RCVT[ ]	/* ReadCVT */
IF[ ]	/* If */
PUSHW[ ]	/* 1 value pushed */
8
MDAP[1]	/* MoveDirectAbsPt */
ELSE[ ]	/* Else */
PUSHW[ ]	/* 2 values pushed */
8 14
MIAP[0]	/* MoveIndirectAbsPt */
EIF[ ]	/* EndIf */
PUSHW[ ]	/* 2 values pushed */
6 1
MIRP[10100]	/* MoveIndirectRelPt */
IUP[0]	/* InterpolateUntPts */
IUP[1]	/* InterpolateUntPts */";
};
width = 1538;
}
);
note = greaterequal;
unicode = 8805;
}
{
color = 9;
glyphname = Saltillo;
kernRight = KO_Saltillo;
layers = (
{
layerId = m01;
shapes = (
{
closed = 1;
nodes = (
(754,634,l),
(880,1661,l),
(342,1661,l),
(216,634,l)
);
}
);
width = 814;
}
);
unicode = 42891;
}
{
color = 9;
glyphname = saltillo;
layers = (
{
layerId = m01;
shapes = (
{
closed = 1;
nodes = (
(753,490,l),
(881,1531,l),
(343,1531,l),
(215,490,l)
);
}
);
width = 848;
}
);
unicode = 42892;
}
{
color = 9;
glyphname = Hturned;
layers = (
{
layerId = m01;
shapes = (
{
closed = 1;
nodes = (
(728,529,l),
(923,529,l),
(859,2,l),
(1397,2,l),
(1563,1361,l),
(1025,1361,l),
(942,680,l),
(747,680,l)
);
},
{
closed = 1;
nodes = (
(194,680,l),
(164,437,ls),
(155,364,o),
(156,303,o),
(165,249,cs),
(193,79,o),
(334,0,o),
(573,0,cs),
(663,0,l),
(747,680,l)
);
}
);
width = 1521;
}
);
unicode = 42893;
}
{
color = 9;
glyphname = Eng.loclNSM;
kernLeft = KO_H;
kernRight = KO_N;
layers = (
{
layerId = m01;
shapes = (
{
closed = 1;
nodes = (
(765,-538,l),
(855,-538,ls),
(1028,-538,o),
(1153,-498,o),
(1233,-422,cs),
(1310,-349,o),
(1353,-237,o),
(1370,-98,cs),
(1495,920,ls),
(1505,1000,o),
(1503,1064,o),
(1494,1116,cs),
(1465,1283,o),
(1324,1361,o),
(1086,1361,cs),
(996,1361,l),
(829,0,l)
);
},
{
closed = 1;
nodes = (
(663,0,l),
(830,1361,l),
(292,1361,l),
(125,0,l)
);
}
);
width = 1492;
}
);
note = Eng;
}
{
glyphname = acutecomb.case;
layers = (
{
anchors = (
{
name = _top;
pos = (465,1361);
},
{
name = top;
pos = (694,2000);
}
);
layerId = m01;
shapes = (
{
closed = 1;
nodes = (
(335,1612,ls),
(362,1582,o),
(393,1561,o),
(428,1550,cs),
(539,1515,o),
(676,1570,o),
(839,1715,cs),
(986,1846,l),
(775,2086,l),
(294,1658,l)
);
}
);
width = 849;
}
);
note = acute.cap;
}
{
glyphname = brevecomb.case;
layers = (
{
anchors = (
{
name = _top;
pos = (636,1361);
},
{
name = top;
pos = (701,1890);
}
);
layerId = m01;
shapes = (
{
closed = 1;
nodes = (
(304,1742,o),
(395,1578,o),
(665,1578,cs),
(934,1578,o),
(1064,1743,o),
(1089,1946,c),
(329,1946,l)
);
}
);
width = 940;
}
);
note = breve.cap;
}
{
glyphname = brevecomb_acutecomb;
layers = (
{
anchors = (
{
name = _top;
pos = (596,1020);
},
{
name = top;
pos = (746,2194);
}
);
layerId = m01;
shapes = (
{
closed = 1;
nodes = (
(313,1299,o),
(389,1160,o),
(617,1160,cs),
(843,1160,o),
(953,1299,o),
(974,1470,c),
(334,1470,l)
);
},
{
closed = 1;
nodes = (
(514,1644,ls),
(536,1619,o),
(564,1601,o),
(592,1592,cs),
(686,1562,o),
(801,1608,o),
(937,1729,cs),
(1063,1841,l),
(884,2043,l),
(479,1683,l)
);
}
);
width = 940;
}
);
}
{
glyphname = brevecomb_gravecomb;
layers = (
{
anchors = (
{
name = _top;
pos = (591,1020);
},
{
name = top;
pos = (741,2194);
}
);
layerId = m01;
shapes = (
{
closed = 1;
nodes = (
(307,1299,o),
(383,1160,o),
(611,1160,cs),
(838,1160,o),
(948,1299,o),
(969,1470,c),
(328,1470,l)
);
},
{
closed = 1;
nodes = (
(586,2043,l),
(359,1841,l),
(456,1730,ls),
(566,1604,o),
(670,1563,o),
(768,1592,cs),
(798,1601,o),
(828,1617,o),
(861,1646,cs),
(903,1683,l)
);
}
);
width = 940;
}
);
}
{
glyphname = brevecomb_hookabovecomb;
layers = (
{
anchors = (
{
name = _top;
pos = (519,1020);
},
{
name = top;
pos = (557,1282);
}
);
layerId = m01;
shapes = (
{
closed = 1;
nodes = (
(235,1299,o),
(311,1160,o),
(539,1160,cs),
(766,1160,o),
(876,1299,o),
(897,1470,c),
(256,1470,l)
);
},
{
closed = 1;
nodes = (
(446,1622,l),
(756,1622,l),
(784,1851,o),
(655,1943,o),
(485,1943,c)
);
}
);
width = 940;
}
);
}
{
glyphname = brevecomb_tildecomb;
layers = (
{
anchors = (
{
name = _top;
pos = (599,1020);
},
{
name = top;
pos = (707,1894);
}
);
layerId = m01;
shapes = (
{
closed = 1;
nodes = (
(311,1299,o),
(387,1160,o),
(615,1160,cs),
(841,1160,o),
(951,1299,o),
(972,1470,c),
(332,1470,l)
);
},
{
closed = 1;
nodes = (
(722,1711,o),
(792,1677,o),
(869,1705,cs),
(894,1714,o),
(917,1730,o),
(937,1750,cs),
(953,1766,l),
(1126,1961,l),
(1112,1975,ls),
(1092,1995,o),
(1071,2005,o),
(1050,2010,cs),
(982,2026,o),
(901,1988,o),
(816,1907,c),
(730,1996,ls),
(675,2053,o),
(613,2081,o),
(535,2053,cs),
(507,2043,o),
(487,2029,o),
(468,2009,cs),
(453,1993,l),
(279,1798,l),
(292,1785,ls),
(312,1765,o),
(335,1753,o),
(357,1748,cs),
(424,1733,o),
(505,1772,o),
(588,1851,c),
(672,1763,ls)
);
}
);
width = 940;
}
);
}
{
glyphname = caroncomb.alt;
layers = (
{
layerId = m01;
shapes = (
{
closed = 1;
nodes = (
(268,937,ls),
(461,937,o),
(547,980,o),
(591,1084,cs),
(612,1134,o),
(631,1213,o),
(645,1328,cs),
(677,1586,l),
(285,1586,l),
(205,937,l)
);
}
);
width = 572;
}
);
userData = {
KernOnSpecialSpacing = {
L = NoKerning;
R = NoKerning;
};
};
}
{
glyphname = caroncomb.case;
layers = (
{
anchors = (
{
name = _top;
pos = (785,1361);
},
{
name = top;
pos = (863,2000);
}
);
layerId = m01;
shapes = (
{
closed = 1;
nodes = (
(1383,1943,l),
(1340,1991,ls),
(1313,2021,o),
(1270,2040,o),
(1210,2040,cs),
(1115,2040,o),
(1013,1990,o),
(907,1892,cs),
(842,1832,l),
(788,1895,ls),
(704,1993,o),
(613,2040,o),
(516,2040,cs),
(467,2040,o),
(421,2025,o),
(384,1992,cs),
(329,1943,l),
(800,1488,l)
);
}
);
width = 1234;
}
);
note = caron.cap;
}
{
glyphname = cedillacomb.case;
layers = (
{
anchors = (
{
name = _bottom;
pos = (355,0);
},
{
name = bottom;
pos = (287,-556);
}
);
layerId = m01;
shapes = (
{
closed = 1;
nodes = (
(588,-259,l),
(425,-9,l),
(204,-157,ls),
(113,-218,o),
(63,-277,o),
(49,-335,cs),
(42,-364,o),
(53,-396,o),
(74,-429,cs),
(156,-556,l)
);
}
);
width = 710;
}
);
note = cedilla.cap;
}
{
glyphname = circumflexcomb.case;
layers = (
{
anchors = (
{
name = _top;
pos = (785,1361);
},
{
name = top;
pos = (863,2000);
}
);
layerId = m01;
shapes = (
{
closed = 1;
nodes = (
(545,1508,o),
(664,1561,o),
(796,1685,cs),
(829,1716,l),
(883,1653,ls),
(967,1555,o),
(1058,1508,o),
(1156,1508,cs),
(1204,1508,o),
(1250,1523,o),
(1287,1556,cs),
(1342,1605,l),
(871,2060,l),
(287,1605,l),
(324,1563,ls),
(359,1523,o),
(410,1508,o),
(474,1508,cs)
);
}
);
width = 1235;
}
);
note = circumflex.cap;
}
{
glyphname = circumflexcomb_acutecomb;
layers = (
{
anchors = (
{
name = _top;
pos = (717,1020);
},
{
name = top;
pos = (873,2305);
}
);
layerId = m01;
shapes = (
{
closed = 1;
nodes = (
(845,1595,l),
(725,1595,l),
(320,1234,l),
(339,1213,ls),
(361,1189,o),
(387,1172,o),
(416,1163,cs),
(513,1133,o),
(623,1180,o),
(748,1298,c),
(856,1177,o),
(954,1137,o),
(1050,1164,cs),
(1082,1173,o),
(1114,1189,o),
(1144,1217,cs),
(1162,1234,l)
);
},
{
closed = 1;
nodes = (
(641,1755,ls),
(665,1728,o),
(693,1711,o),
(719,1703,cs),
(814,1673,o),
(929,1721,o),
(1063,1840,cs),
(1189,1952,l),
(1011,2155,l),
(606,1794,l)
);
}
);
width = 1178;
}
);
}
{
glyphname = circumflexcomb_gravecomb;
layers = (
{
anchors = (
{
name = _top;
pos = (717,1020);
},
{
name = top;
pos = (873,2305);
}
);
layerId = m01;
shapes = (
{
closed = 1;
nodes = (
(845,1595,l),
(725,1595,l),
(320,1234,l),
(339,1213,ls),
(361,1189,o),
(387,1172,o),
(416,1163,cs),
(513,1133,o),
(623,1180,o),
(748,1298,c),
(856,1177,o),
(954,1137,o),
(1050,1164,cs),
(1082,1173,o),
(1114,1189,o),
(1144,1217,cs),
(1162,1234,l)
);
},
{
closed = 1;
nodes = (
(718,2155,l),
(490,1952,l),
(586,1843,ls),
(697,1717,o),
(799,1675,o),
(896,1702,cs),
(929,1711,o),
(962,1730,o),
(988,1753,cs),
(1035,1794,l)
);
}
);
width = 1178;
}
);
}
{
glyphname = circumflexcomb_hookabovecomb;
layers = (
{
anchors = (
{
name = _top;
pos = (717,1020);
},
{
name = top;
pos = (783,1575);
}
);
layerId = m01;
shapes = (
{
closed = 1;
nodes = (
(845,1595,l),
(725,1595,l),
(320,1234,l),
(339,1213,ls),
(361,1189,o),
(387,1172,o),
(416,1163,cs),
(513,1133,o),
(623,1180,o),
(748,1298,c),
(856,1177,o),
(954,1137,o),
(1050,1164,cs),
(1082,1173,o),
(1114,1189,o),
(1144,1217,cs),
(1162,1234,l)
);
},
{
closed = 1;
nodes = (
(644,1694,l),
(955,1694,l),
(983,1923,o),
(855,2015,o),
(684,2015,c)
);
}
);
width = 1178;
}
);
}
{
glyphname = circumflexcomb_tildecomb;
layers = (
{
anchors = (
{
name = _top;
pos = (717,1020);
},
{
name = top;
pos = (836,2005);
}
);
layerId = m01;
shapes = (
{
closed = 1;
nodes = (
(845,1595,l),
(726,1595,l),
(321,1234,l),
(337,1216,ls),
(361,1189,o),
(388,1172,o),
(416,1163,cs),
(511,1133,o),
(621,1178,o),
(749,1298,c),
(853,1180,o),
(954,1135,o),
(1055,1165,cs),
(1085,1174,o),
(1116,1188,o),
(1145,1217,cs),
(1162,1234,l)
);
},
{
closed = 1;
nodes = (
(841,1712,o),
(911,1677,o),
(989,1705,cs),
(1014,1714,o),
(1037,1730,o),
(1057,1750,cs),
(1073,1766,l),
(1246,1961,l),
(1232,1975,ls),
(1212,1995,o),
(1191,2005,o),
(1170,2010,cs),
(1102,2026,o),
(1021,1988,o),
(937,1907,c),
(850,1996,ls),
(796,2051,o),
(735,2082,o),
(655,2053,cs),
(630,2044,o),
(609,2031,o),
(588,2009,cs),
(573,1993,l),
(399,1798,l),
(413,1785,ls),
(435,1764,o),
(460,1752,o),
(478,1748,cs),
(546,1733,o),
(627,1774,o),
(708,1851,c),
(792,1763,ls)
);
}
);
width = 1178;
}
);
}
{
glyphname = commaaccentcomb.case;
layers = (
{
anchors = (
{
name = _bottom;
pos = (318,0);
},
{
name = bottom;
pos = (249,-560);
}
);
layerId = m01;
shapes = (
{
closed = 1;
nodes = (
(21,-560,l),
(114,-560,ls),
(186,-560,o),
(247,-552,o),
(295,-536,cs),
(424,-493,o),
(495,-416,o),
(508,-307,cs),
(527,-149,l),
(71,-149,l)
);
}
);
width = 636;
}
);
note = commaaccent.cap;
}
{
glyphname = commaaccentcomb.loclMAH;
layers = (
{
anchors = (
{
name = _bottom;
pos = (326,0);
}
);
layerId = m01;
shapes = (
{
closed = 1;
nodes = (
(375,-513,o),
(533,-430,o),
(548,-307,cs),
(560,-209,ls),
(573,-103,o),
(492,-50,o),
(322,-50,cs),
(143,-50,o),
(37,-101,o),
(37,-237,cs),
(37,-324,o),
(103,-378,o),
(266,-382,c),
(250,-513,l)
);
}
);
width = 600;
}
);
}
{
glyphname = dieresiscomb.case;
layers = (
{
anchors = (
{
name = _top;
pos = (795,1361);
},
{
name = top;
pos = (855,1855);
}
);
layerId = m01;
shapes = (
{
closed = 1;
nodes = (
(1285,1890,o),
(1138,1890,cs),
(1017,1890,o),
(916,1852,o),
(916,1682,cs),
(916,1579,o),
(982,1544,o),
(1168,1544,cs),
(1297,1544,o),
(1379,1600,o),
(1379,1759,cs),
(1379,1883,o)
);
},
{
closed = 1;
nodes = (
(667,1888,o),
(519,1888,cs),
(399,1888,o),
(298,1850,o),
(298,1680,cs),
(298,1577,o),
(364,1542,o),
(550,1542,cs),
(679,1542,o),
(761,1598,o),
(761,1757,cs),
(761,1881,o)
);
}
);
width = 1256;
}
);
note = dieresis.cap;
}
{
glyphname = dotaccentcomb.case;
layers = (
{
anchors = (
{
name = _top;
pos = (575,1361);
},
{
name = top;
pos = (653,2000);
}
);
layerId = m01;
shapes = (
{
closed = 1;
nodes = (
(821,1504,o),
(938,1574,o),
(938,1743,cs),
(938,1862,o),
(842,1910,o),
(644,1910,cs),
(428,1910,o),
(298,1848,o),
(298,1682,cs),
(298,1564,o),
(400,1504,o),
(605,1504,cs)
);
}
);
width = 816;
}
);
note = dotaccent.cap;
}
{
glyphname = gravecomb.case;
layers = (
{
anchors = (
{
name = _top;
pos = (616,1361);
},
{
name = top;
pos = (694,2000);
}
);
layerId = m01;
shapes = (
{
closed = 1;
nodes = (
(583,2053,l),
(313,1813,l),
(428,1682,ls),
(558,1534,o),
(681,1483,o),
(798,1517,cs),
(839,1529,o),
(875,1551,o),
(902,1575,cs),
(959,1625,l)
);
}
);
width = 849;
}
);
note = grave.cap;
}
{
glyphname = hungarumlautcomb.case;
layers = (
{
anchors = (
{
name = _top;
pos = (730,1361);
},
{
name = top;
pos = (1042,2227);
}
);
layerId = m01;
shapes = (
{
closed = 1;
nodes = (
(330,1574,ls),
(357,1544,o),
(388,1523,o),
(423,1512,cs),
(534,1477,o),
(671,1532,o),
(834,1677,cs),
(981,1808,l),
(770,2048,l),
(289,1620,l)
);
},
{
closed = 1;
nodes = (
(934,1574,ls),
(961,1544,o),
(992,1523,o),
(1027,1512,cs),
(1138,1477,o),
(1275,1532,o),
(1438,1677,cs),
(1585,1808,l),
(1374,2048,l),
(893,1620,l)
);
}
);
width = 1453;
}
);
note = hungarumlaut.cap;
}
{
glyphname = macroncomb.case;
layers = (
{
anchors = (
{
name = _top;
pos = (622,1361);
},
{
name = top;
pos = (667,1721);
}
);
layerId = m01;
shapes = (
{
closed = 1;
nodes = (
(1006,1513,l),
(1040,1790,l),
(310,1790,l),
(276,1513,l)
);
}
);
userData = {
assembly = "PUSHW[ ]	/* 4 values pushed */
1 10 0 4
CALL[ ]	/* CallFunction */
PUSHW[ ]	/* 1 value pushed */
1
SRP0[ ]	/* SetRefPoint0 */
PUSHW[ ]	/* 1 value pushed */
5
MDRP[11100]	/* MoveDirectRelPt */
SVTCA[0]	/* SetFreedomAndProjectionVectorToAxis */
PUSHW[ ]	/* 4 values pushed */
1 3 2 4
CALL[ ]	/* CallFunction */
IUP[0]	/* InterpolateUntPts */
IUP[1]	/* InterpolateUntPts */";
};
width = 910;
}
);
note = macron.cap;
}
{
glyphname = ringcomb.case;
layers = (
{
anchors = (
{
name = _top;
pos = (641,1361);
},
{
name = top;
pos = (722,2000);
}
);
layerId = m01;
shapes = (
{
closed = 1;
nodes = (
(843,1450,o),
(1081,1564,o),
(1081,1802,cs),
(1081,1978,o),
(930,2070,o),
(739,2070,cs),
(532,2070,o),
(304,1955,o),
(304,1720,cs),
(304,1544,o),
(452,1450,o),
(639,1450,cs)
);
},
{
closed = 1;
nodes = (
(542,1842,o),
(624,1892,o),
(715,1892,cs),
(797,1892,o),
(842,1852,o),
(842,1783,cs),
(842,1680,o),
(757,1629,o),
(666,1629,cs),
(584,1629,o),
(542,1669,o),
(542,1738,cs)
);
}
);
width = 952;
}
);
note = ring.cap;
}
{
glyphname = tildecomb.case;
layers = (
{
anchors = (
{
name = _top;
pos = (655,1361);
},
{
name = top;
pos = (734,2000);
}
);
layerId = m01;
shapes = (
{
closed = 1;
nodes = (
(1157,1699,l),
(1192,1981,l),
(864,1716,l),
(564,1986,l),
(237,1714,l),
(203,1437,l),
(529,1714,l),
(830,1437,l)
);
}
);
width = 1102;
}
);
note = tilde.cap;
}
